<mxfile host="app.diagrams.net" modified="2021-05-19T07:07:59.448Z" agent="5.0 (Windows NT 10.0; Win64; x64) AppleWebKit/537.36 (KHTML, like Gecko) Chrome/90.0.4430.212 Safari/537.36" etag="r4vbjf8EgqRNgDQB-Js6" version="14.6.13" type="github">
  <diagram name="Page-1" id="c7558073-3199-34d8-9f00-42111426c3f3">
    <mxGraphModel dx="920" dy="485" grid="1" gridSize="10" guides="1" tooltips="1" connect="1" arrows="1" fold="1" page="1" pageScale="1" pageWidth="826" pageHeight="1169" math="0" shadow="0">
      <root>
        <mxCell id="0" />
        <mxCell id="1" parent="0" />
        <mxCell id="LAokjbQ1z-uIzmXzvzG--138" value="" style="endArrow=classic;html=1;fontColor=#46495D;strokeColor=#788AA3;fillColor=#B2C9AB;" edge="1" parent="1" target="LAokjbQ1z-uIzmXzvzG--127">
          <mxGeometry width="50" height="50" relative="1" as="geometry">
            <mxPoint x="292" y="220" as="sourcePoint" />
            <mxPoint x="420" y="320" as="targetPoint" />
          </mxGeometry>
        </mxCell>
        <mxCell id="LAokjbQ1z-uIzmXzvzG--103" value="" style="rounded=0;whiteSpace=wrap;html=1;sketch=0;fontColor=#46495D;strokeColor=#788AA3;fillColor=none;strokeWidth=2;" vertex="1" parent="1">
          <mxGeometry x="23.5" y="80" width="536.5" height="615" as="geometry" />
        </mxCell>
        <mxCell id="4" value="scRNA-seq data(TPM)" style="whiteSpace=wrap;align=center;verticalAlign=middle;fontStyle=1;strokeWidth=3;fillColor=#B2C9AB;strokeColor=#788AA3;fontColor=#46495D;fontSize=12;rounded=1;" parent="1" vertex="1">
          <mxGeometry x="169" y="191" width="251" height="49" as="geometry" />
        </mxCell>
        <mxCell id="LAokjbQ1z-uIzmXzvzG--98" value="&lt;span style=&quot;color: rgb(20, 54, 66); font-family: helvetica; font-size: 12px; font-style: normal; font-weight: 700; letter-spacing: normal; text-indent: 0px; text-transform: none; word-spacing: 0px; display: inline; float: none;&quot;&gt;SMART-Seq2&lt;/span&gt;" style="text;whiteSpace=wrap;html=1;fontSize=12;labelBackgroundColor=none;align=center;rounded=1;strokeWidth=1;strokeColor=#B3B3B3;" vertex="1" parent="1">
          <mxGeometry x="242.25" y="160" width="100" height="20" as="geometry" />
        </mxCell>
        <mxCell id="LAokjbQ1z-uIzmXzvzG--99" value="" style="shape=image;verticalLabelPosition=bottom;verticalAlign=top;imageAspect=0;image=data:image/png,iVBORw0KGgoAAAANSUhEUgAAA1cAAAF9CAYAAADoapKJAAAAAXNSR0IArs4c6QAAAARnQU1BAACxjwv8YQUAAAAJcEhZcwAAFiUAABYlAUlSJPAAAMShSURBVHhe7b2Hm6VVme59/ojvnDnfd86MM6POjDqjM44zijOOacw5YsIEJjCBShoVBAyMEUERFQVFUZLEpgndhCbTTeimgYamaZrQ3XSoXLuqdu1a33rWep71Puuttfd+a+935/u+rvtaXYaqnapq/+q3nvX+D4MgCIIgCIKMdJb2P2EWt95uqndeZBauOtXMn3u0qfzkIDN70qvNzFf+wffL1Of7fun5Ztp25ksv8D3iBWbaduaIfzQzh/tOu/WfzPQXuV/4JzPzxRfalfv5F5qZz/+zXbmfo74o62ep/+J7mO/MsW80s//9MTP3i6PN/AU/NNUbLzSLj2w0S3OzfE8QpLcBXCEIgiAIgoxQak8/YqobLjHzl5xkKqcdaGaO+nszc+TzeKUSTPl12oGVBSkCK1oJqL5sQYrBygHVlyxIMVg5oDrCgpQCKw9UGVjNfIFgSq0MVjOfJ6iyK4PVjIMqBiwHV/9qpg+VlfpiM/0ZWV9sZr/2LlP52VFm4fJfmurd15ulp5/ge4wg3QvgCkEQBEEQZEizNLHLLG6+1iys/qGZ++XHzexx/2Jmjn6uLcGUroCVBiyuNlZsrYKxEsAisGJrFYOVBixdAituI2OlwUoawEr3JWb607oHmOlPHWBvx2stcB1jFq67wNR2PMSPCoJ0LoArBEEQBEGQYUlt0Sw+eL2Zv/REU/n+683MMc8xs8cQTD3H/pvW55pZB1b23wqspslcEVQFY0X/ZrASc2XBKpirIzxgZcZKmSsHVglzxWBVz1gJWM18jqCKAYu2An6WYIoBi8FqShkrAqupT2vAOsBMfcquFq6mbKc/9VIz9Um7fvKl9n68xULm8Wbh2vNMbdtmftAQpLwArhAEQRAEQQY4td0Pm+pNvzZzZ3/KzB5noeZYC1JUC1YOqBiqgrGKrJWYKinBFJfBqpmxkgawso2MlbJWHqx0Cay4BFQOrLj1jJVUjFVkrbyx0mDloMp2yq3/ZqY/4Tt1yL+Zmf96n5n/w4/N4v138qOJIO0FcIUgCIIgCDJgWXzoRrOw+rum8pN3mtn/+jsLU39nV4IquzJYzR5LMMWAFbYCyipgpQErM1ZhxipvrBrNWtUzVgxX8axVYsYqZ6ymyViFWSv6N8EUA1bOWE1pY+XW2FgJWE19wq4MVtOf+He/HmLXg//dgulHzPwFP7OP7b38KCPIygO4QhAEQRAEGYAsjT1hqut+aSqnv9vMftUCFUFVKIEV1xkrqYCVBixVba1kK6A2V2KtlLnyQCUVsNKAlZkrsVZuS6AFq8haFZ21csZKKmCVAVZmrWzZWrlGYGVXAStlrgSsZJ06+GVm6uMvM7MnfsLMX/wrU3v6SX70EaRYAFcIgiAIgiB9nMUt15v5C48ysydYePnq3zJY2bWRsVJgNXsMgZQGK4IpWalsrMKWQGWsHFg1MVb50wEPL2iseEtgZKxs3YxVzlhNabA6NDdj9Zk6xsqtOWPlwEobKwVYDqxkfZmZ/vh/2M/5WjP3m++bxYc38bOBII0DuEIQBEEQBOmzeEv1CzP3s3ebma/9jYMqD1Z2tWAVWSsLVsFYBXMlpkoqYKUBS7WIsbKlNTJW0ZbAOsbKlW1VsFYerBoaK2kEVrzmjZWatRJrFQ6xoFq4irYE2mpz5arAyvVj1P8IrZz6VVPdcCM/QwiSDuAKQRAEQRCkT1LbcZeZv+S/zOwJLzCzXyOg+htelbHiLYGxscrMlQcrOSVQwEoDFgGVXS1UZcbKA1ahWSsHVAqwGs1aBWNlV94KmJ+18odYyHWtBKx4DWDl1ykGq7qzVsFYebByQNVk1iplrAis/PofZvpjLzdTH5X15Wb2pMPMwg2X8zOGIHEAVwiCIAiCID3O4tZ1Zv68L5rZr/+NM1WzZKvcqoyVs1Zsq7SxkgpYSYsYK306oCvbKmWsQgWsbCOwypsrdey6a6NZK2etqAJWCrAcWGnA4kbHrtvysevaWgVjJYAlWwJzxmqarVVkrFwzY0VgRVAV+hHqK8zsyV8y1btv4WcQQXwAVwiCIAiCID3K4v1XmfnffdLMfP3ZDFa8BmNlV94K2GzWykNVAWNl1+kAVn5t+XTACKwIpmTNzVppY0VryljlZ60IqHgVYyVgtfx0QA9YwVx9wgNWZqyUuao3a8VgFcwVg5WYKwGr6Y++IgDW1IdfYeZ+9k2zuO1BfkaRUQ/gCkEQBEEQpMtZvOciM/frD5rZ4wimfB1YsbHyc1YMVsFaMVgFa0UVsFKAFeasNFjZRodY2DY5HVDASqyVgBWdDJg/HVAqYCXGSg6xWGasgrUiqGK4ErCKrBXBlC7BFJfBSoxVNGOlwEoawIqhKmWsZCtgVgIrLgGVAyuuBaupD7/S96P/aeZ+f7pZ2vc0P8PIqAZwhSAIgiAI0qUsbrzUzJ3xDjPz9Wc5sFpmrMJWQL0lkICqvrGS0wGDsaLTASOwIpjSYEUw5ddp3goYzFVTYyWrgJVdI7DiLYEFZq3cKYGHMWAFYyWrgJUGLJ61smBV11g1mrWqZ6yazVrVMVZTHyGwYsA6iP79Kvu4vN9Ub7qan21kFAO4QhAEQRAE6XBqT2408+d93gLVs8yMbQZWGrAIqNLGqtCsVT1jFQBLl2CKmzNW+VmrAFZsrZbNWOWNlSvbKjFWfOz6MmOlwSqyVhaiImvFtio0M1a+y43VsutZ2UZgJXXWStsqKoGVLsGULhsrAauDXpX1Q68yc2f+wCyN7+NnHxmlAK4QBEEQBEE6lKXKpFlY8wMzc8JzzOzxGqzsGoGVXQWsisxaHcOAFYxVBliziVmraT4dUMDKnRIoYJWatTrCA1YwV0VOB2SwqmesBKyi61pZsHLXtcoZq6mUsQqApYwVg9WKTgc8hGCqubESwIqMle10wlhNCmBZsJo66NVm8oOvso/zx0z19hv4lYCMSgBXCIIgCIIgHUj1ngtN5advcFCljVWYscobK7eyrYrAilvPWEnFWEXWSoAqA6tgrFzZVomxsmCVN1bSAFa2kbFS1iqasXIlsOISUDmw4jYyVgqsYmuV2SoPVgRVDFZsruiaVhlY+VXmrOR0QDFWcojFMnOlrZUCK1c9a6XNlQMrXj/0ajP1Qd+535xmTG2RXxXIsAdwhSAIgiAIUmJqOzaYuT98mk3VM5cbq2azVo2MVX7WShkrD1WyClhpwMqMVTRrpY1V3VkrAqw6xorhKhgrBqzkjJUyVstOBzyMoIoBK2eslp8OSGDFxsqtBY2VAywGq4MJpBIzVnljFbYEEkwxWDljpcHKr5MMVmSu/EqA9Z9m9ltHmqXpSX6FIMMcwBWCIAiCIEhJqd70MwtTHqikwVhx6xsr+2+2VgJYyVkrZ6ykAlYasFS1tWpyOqDMWnmwIqhSYGWbmrUSaxWua6WtlWwF1OZKrJU2Vw6opAJWGWBl1sqDlZirvLEqMmuVzVhJla1y9WCVWSsBK4IqBqu8sZJqYxXM1X+aqQ/4znz542Zpzy5+pSDDGsAVgiAIgiBIm1nat93Mn3+YmSGw+oYFKgYsB1bHFzRWvCUwMla29U4HFLCapdMBtbE6mmCK/i1gxcYqbAlUxsqBVQFjpcHq8ILGircERsbK1s1Y5YzVlAarQ3MzVp/RxsquFqwKnw6ozZUDK2Wu9KxVmLFicxWM1cvNtICVMldhxopXMVZTOWM1+QFZCbBeY7/GW0xtxzZ+1SDDGMAVgiAIgiBIG1m873JTOeXlFqIIrAiqFFiFClhJY3NVz1jJlsDkrBWZqmhLoK6AFVcbK2et2FZpY0W2Km+s9KxVI2OVn7UqYqykYq2iQyxs+dj1UAYrqYCVzFnFYKUAyxkrDVhcC1aRuSLAiqwVlaCK4UqbKwdVDFgOrKRirGwZrMRcTb7fru+3gGW7uOU+fvUgwxbAFYIgCIIgSCupLZqFq7/tgKqusdJgdZw2VnZ1UKXMFYPVslkrB1WZufJApa5r1WDWKjNWHrDC9awazVo5oFKA5cBKA1Ydc8VbAfOzVv4QixeZGQGrvLlyQOXXqbAV0K/LZq2KGKv8rFUjY2WhKj9rJcbKrTlj5YDqwxaitLGi0wEZrOoZKwdWbiW4eq2ZfN9rTG3nk/xCQoYpgCsEQRAEQZAVpvbE3Wbu7A94UyVlsArNGav6s1ZsrBxceWPlWs9YSbWxisBKl01VKNuqyFpRxVhpwCKgSpgrdey6qwWr2FpRCaq4Yq4cUEkFrDRg6RJMcXPGSmatpAGsbPPGSk4HjIyVK9sqMVZ61kobq2CtCKq4Yqwia8W2KjQzVr7eWFEJrKbeR4D1WrO0fy+/opBhCeAKQRAEQRBkBVm8+49m9tv/YGZPsDD1jb92YBWMVbQlkIBKA5YyV9pY0ZoyVrlZKw9VBY1VACu/irGSQywKnQ5IQBWBFcFUwljRqo0VrU2NlQYsvq6VAis3c2XBqu6s1Sc8YAVzdYgyVw6sEuaKwSqYKwYrMVcCVtF1rcRcHcSAFYwVA1YwVrKKsbIrbQXU5krAis0VAdb05z9ilqan+JWFDEMAVwiCIAiCIAWzsPZ7FqoIqKQEU74CVjJnJYAVrmulDrHwc1a8FTBYKwarYK2oBFgCVwxYDqw0YHGjQyxsm5wOKGAl1krAimxV3lhJBazEWMkhFg2NlVTAKrJWAlQZWAVj5Uow5StglTdW0gBWDFUBrJS1kq2AWQmsuLIVsIixUmAVW6vMVoVDLMRYufW1DqqcuTqQ1teZ2e98zb6wFvgVhgx6AFcIgiAIgiBNsjQ7ZuYv+oKZIaA6wYKUNlb5WSsyVcFc5YxV2AqotwQSUPGaMFZyOmAwVnQ6YARWBFMarAim/OqvZ1Vn1soZK2Wuis5aRWBVf9bKnRJ4GANWHWMVH2JRwFg1m7VKGSuGq7qzVo2MVZ1Zq4bGqsmslQYrtx5oAesHJ/ErDRn0AK4QBEEQBEEapPbURjN35ju9sQrWiqCKgEq63FjVnbVSYCXGqvCsVcpYBcDS9VCVMlZhxoobwIqsVQRWBFQJY+XKtiqUwIrbyFhpsIqslbZVHqzEWPnmjJUDq+XGKgKryFpZoIqsFYFVrgJWeXPlgEoqYJUBVt1ZK9kKKOZKzVoFwLJgNWlL68KVl/ArDhnkAK4QBEEQBEHqZHHzFaby/X8xM9/4qwysyFwd7wErM1ayCljZNQIru0ZgZVfZCpiatTqGASsYKwYsC1aziVmraTJXCqzcKYECVqnTAbWxolmrVk8HtBVjJWAVXdfKgpW7rpU2VnRdq5SxCoCljBWD1YpOBzyEYKq5sRLAioyV7XTCWIXrWhFQ0emAbKwcUH2ooLFya2ysPFi93ky+93X2fhxoak/s4FceMqgBXCEIgiAIgiRSvfl0M3siwRRXG6tgrSxEsbUKM1bUlLFyK9uqCKy4jYxVsFYWoiJrJUCVgVUwVq5sq8RYWbDKGytpACvbCKyUtYpmrPLGypXAikvGyh1iwQ1zVlQBK25krTRY2QpYsbmia1plYOVXmbOS0wHFWMkhFrG1si1irKQRWPGaMFYerKSZsXLNGSuCKjFWBFaT7yXAer2pnPIdfvUhgxrAFYIgCIIgSC4La7/rwGrmBG+s6s5apYxV2BLIxio/a9XIWCVmrSKwOkpWASsNWGyswqxVwliFWSs2VmHWigCroLFiwErOWCljtex6VodZiNJgdWhmrJZdz0obK7cWNFYOsBisDrYQFcyVmrHKzVqF61oJWOXNlQMqv2bXs5JVwIrXYKzsKlsBG8xaEVhNEVi9R9bXm4U1V/GrEBnEAK4QBEEQBEFUFq755nJj5Y5d52pjxdYqq4AVr8FY2VXAylYAKzlr5YBKKmClAUtXwMq2yemAMms1zebKX9dKjJXeEkhA5VexVuG6VtpaFT0d0IEVr3lj1WzWKmWsbANgEVjZCmA1NVbLZq0Iprj1jJVUjJWUwSqzVQJW3lZlWwLZWNHqrFUGVlk9WFGnD/2IWRof41cjMmgBXCEIgiAIgnAWVn0tMlZhxipvrMKsFQFWQWPFWwIjY2XbzFjN0umARymwOppgSoNVZqxkK2B2OiCBlTJWDqwSxkqD1eE5Y/VFgqmEseItgZGxsnUzVgGsFGA5sPLrVAArv7Z0OqADK2WuHFgpc6VnrcKMFZsrZaymE8YqzFjxKsZqqujpgNpY0ZoyVjxrJcZq6j1vCOv8ZX/iVyQyaAFcIQiCIAiC2Mz9/mMWrAiqGKy0uRJjpcyV3wq43Fj5KmPlrFXaWMmWwOSsFZmqaEugroBVBlixtWJb1chY2dLqr2slYFXHWOVnrZytkpXASkowpStgZRsdYmHLx66HMlhJBazEWsVgpQDLGSsNWFwLVpG5IsDS1krPWjmo8mCVWSsGLAdWUjFW0sxaCVjJnFXYCijmSsBKWSsHVspaTRJgvfsN9vn9Ar8qkUEL4ApBEARBkJFP5fT/5K2AFqzClsC8seLVgZWsAlYJcyVbAVc4a+WBSl3XqtGsVTBW9O8617PKz1o5Y6XMlQMqBViNZq2CscpmrfwhFi8yMwJW+VmrRsaKtwImZ63qGatms1baWFmoimetqARUfEpgzlg5oFLXs3LG6iALUQxWK7qeVX7WykGVMlcOqnLm6t2yvsFUb7uJX53IIAVwhSAIgnQ0tV13mtqOtWbxkUvM4gPnmMV7f2YWt5xn/7M1ZmnvZmMWpvl/iSC9yey3LdiQsXLWSsCKoMqDVSiDVWjOWGVglRmrbCugX2daPR1Qm6vo2HUGrMhaebDKrJUHK2+sNGB5a7Vs1kqBlasFq9haUQmquGpLYNJYBcDSJZji5oyVnA4oDWBlG20JdECVMFaubKtCBaxstbEK1oqgiivGKrJWYqqkmbGSWasixioCq8ha0ZZAD1W+bzSz38WFhQcxgCsEQRCk9NQev95Ub/2Gmb/g1Wbut/9o5s/5J7dK8x8vXPoOU73tRLO0737+DAjSnVR+9BIHVW7GSsyVBSs5HVAAKxiraEtgHWNFqzZWtBYxVjxrFRkru/rrWlEJpvw6HbYC+lWMVbiuVcpY5WetCKgisCKYqmOsaGWwcubqswxYwVgxYAWw0oDF17VSYOVOCbRgVXfW6hMesIK5OkSZKwdWGrAIpuzKYBXMFW8FFHMlYBVd10rM1UEMWGyuJvl0wMxYySrGyq60FVCbKwGrvLFKzVo1MFZTFqwm3+UBa3HrQ/xKRQYlgCsEQRCktCxuu9wsXPmhCJxWWkAW0q3M/eZ9mbFy1sqDVWatPFh5Y5UBlsxZCWDJnJU+xMLPWfFWQKmAVcpcOWtFFbBSgCXGKgAWNzrEwlYbK9kSqOasBKxcc8ZKmjdWcohFU2OlwSqyVgJUGVgFY+VKMOUrYJU3VtIAVgxVAayUtZKtgElj5UowxQ1bArnaWCmwiq2VhSi2VgJWwVi51duqGKy4CWPlgCqyVhasHFz5zl9+Mb9akUEJ4ApBEARpO2SqFq79dFNDtZKPHWSN4a+2SGcyf/nRZvYkASsCKg9Wda9npY0VnQ4YzFXOWIWtgHpLIMEUrwljJacDBmNFpwMGsLKrbAUUc6XAyp0SaMGq7qzVEcpcOWOVM1epWasIrHLGSs1auVMCmxir+BALNlb5WSttrJrNWqWMFcNV3VmrRsaqzqxVQ2PlVmWs8rNWjYxVmLWyYPVegqnlxsqvbzRT73qTmf3hf/MrFhmUAK4QBEGQtlLbfnUESGV2/oLX2M+PC2oi5aZ6y8/qG6tgrQiquHWMVZFZKzFWwVbljVWwVgRVDFfNjJUr2yoxVm5LIFcbKw1WbK2yLYEEVAlj5cq2KpTAitvIWGmwkjYxVr7KWLmVwGq5scrAyq/aWrlqa9XodEABrGCspAJWGWA1nLUKxoq3BBJYaXPF1koAKz4ZkCrGSppZK+r0oYfwqxYZlACuEARBkJZTe/RKD0ElGqvUx3QIBoKUkcUHrnTGaubEv8zAiq5r9Q0GLDFXx3vAyoyVrAJWCXMVgZVdZStgatbqGAYsMVdHM2BZsPIzVhqwaMbKrgqsxFiFGau8scrPWrVyOiCDlRgrAavoulYWrNx1rbSxOoxnrBLGSsAqGCsGqxWfDqiN1cEEU8uNlWwJjIyV7XTCWIXrWhFQHfRqdV0r2w8VNFZuzRkrB1YWovLGilYxVu/xxkrAaurdbzKT76R/0/oms/T00/zqRQYhgCsEQRCkpRDwaADqdAFYSLup7X7AVE45IDZW4dh1BquUseKGGStqEWNl68GKS8bKbQnkamMVrJWFqMhaWYiKrBXBlC7bKjFWFqzyxkoaGSsNVspaRTNWwVgxWOXNFRkrba7CnJUGK25krTxYhQpYsbmia1o5sMqbKwdWsbGSQyyWnQ6ojZWzVh6sImMljcCK14Sx8mAlzYyVa85YyZxVZKxsBbCCsdKzVspYCVhRqzffyK9gZBACuEIQBEFWHAGrsg1Vs48BWEjLWaqZ+d99yMJUzlg1m7UqYqzys1aNjFVi1iqAFc1aHcWAFbYCyurByhkrt3qwamqswqwVAVZBY8WAFWaseEtg3lgtu57VYRaiNFgdWmfGyq0EVmys3NrMWCnAqjdrxVsB87NWcl2rAFZ5c+WAyq9irOrOWgVjZVfZCrjSWSsHVPVnrTxY8fqON5m5353NL2JkEAK4QhAEQVaUxYf/FAFPV3vuS8zSvgf4liBI8SxcfaKHKt16s1bOWEkJpnQFrHgNxsqu6nRAAazkrBUBlTZXYc5Kg5UGLFVtrRisInPF1spVg5VttiWQgMqvYq3cIRauYqzIVlE9WEXGSipgJU0Zq2azVkWMlW1hY9XodEAHVwRWXAErqRgrqVgrPnZdKmAlrTtr5YwVA1YwVlIxVlIBK1sCK7ZW1MpPfsyvYmQQArhCEARBCmdp+ikzd/6rSzdSK/l4Yd3RfGsQpFgW7znPwhQbK9fMWIUZq7yxYrByxopOB9TG6rg6xoq3BEbGyraZsZolY3X8i838744wC9f/0lTvuMAsbrrG1B65w1Rvv8AsXPEDM3fW5+zneBGDFRsrtxJYKWPlwCphrDRYHZ4zVl8kmFLmisEqfzqghyq5rhWDVZ3TAacCWPk1up4VrUVOB3RgVcBY5Wat3KqM1XQ9Y6VOBwwzVsFcEVgpYxW2AvKqjRWtRY1VMFcCVMuNFZ0S6MHqzc5czX7rRH4lI4MQwBWCIAhSONUN9k2egp5etfbYtXyLEKRxak/eYyrfe4ECK4IqBqu8sZJGYLXcWPkqY+WslTJWzloJWCljJWWwmj3hJWb+4hPM4uY1fGsbZ2nvDrNw7c/t/XlH0lh5sFLGypZWslYZWImxspVj16XqEAtvragEWAJXDFgOrDRg6Yqxso0OsbDlQyykAlZirQJYkbmyUKXBSipg5WrBKjJXRU8HDNbKg5UHKinBlG7OWFmwamqslLVyYBVZKwErDVhcdYiFqwWryXe82cwc9SV+BSCDEMAVgiAIUihL+7eY+d+/OIKcMo3USj5euBrHEyMFUq2YubPfw9ezimetBLAyYyWrgJUCrHqzVrIVcIWzVpUfv8MsrPu1WZrYzTd05VlY9ztT+c6bi81aOaBSgNVo1iplrHjWKhir/KxVI2PFWwGTs1b1jFXqdEAFVg2NVdgKyKcEFjFWB1mICsZKVg9WzlwpsGo6a/VeZa4cVOXMVWLWKgYr+jeDFZur6U/j590gBXCFIAiCFEp1/fci0Ol16XALafXe0wfyY7+ebqr32NV22Xo39adx70p0w09sZVVdX6d3npbuHdJT1Wp7e53eJv1x1lsTvUV6Smg3snDlV9WFgrkFjFVoasYqZ6yyrYBsrPTpgMFaUT1YzZ9/tFmaGeNb2F6WZsbNwlWnB3PljRUDVgArDVgEVBqwMmMV5qyCtSKo4oqxiqyVgJUGLF2CKW7OWMnpgNLIWAlguS2BBFQJY+XKtipUwMq2kbEK1oqgitvEWPkqY+XWtLGKwCqyVhaiImtFMKVLMKVLYMV937v5GUcGIYArBEEQpFDmV30ogE1ZBmpkP6b1Ny+wtevZsj7f//ssu571AlP5Na22v/4H2+ebyq/sals5k9df/r2Zs/92q23lF88zc7+w68/Vals547lm7gy7/ozW5/rVtnL6c8ycbeWnvP7k79y/aZ2jf5/2t7Z2PfVvzRyvrj/+G1sLE6fQakur7eyPnm0qP7L//iGtFkJ+8Cz3b7f+wK7ff6apfN/CyveeaZamdvGrqnNZ3HRxZqzoulYpY3WChSk9a0WmSm8JrGesUrNWBYzVwlU/5FtXbub/9J06xipnrmQroJgr2QqYmrX6LAMWGSsyV4cxYFmwmknMWrnrWimwcqcEWrCKZq1kK2DKXB2izJUzVspc1Zu1YrAScyVgFV3XSszVQQxYbK4m+XTApsaKwaqpscrPWhUxVgxYfsbK/jsCK7sSWL39zfbzv4efaWQQArhCEARBmmZpZlcEB2gJJaBygGVLUKXAykOVKoMVwVRYz7QAxWDlSkDlAMuCVB6sGKo0WLkSTMnKYBVKQKUAS4OVhipXB1a2DFZupTqw4hJYWcBaWHUEv6o6l6W5SXu/X+/BKrJWHqwya+XBSqyVgJWcDCiAJXNWGqz8nJUFq2CsGLCWWSsCLAuwvz+cb11nsnDFKQGsZM5KGytpZKxs5dj1YKz42PVlxipYKwtRkbWyEBVZK7ZVoQRTvgJWeWMl1cbKVcBKWSvZCpg0Vq4EU9ywJZBbz1hF1spCFFsrAau8sSKoisGKmzBWDqgia2UhKrJWFqIia6WMFXf6U9gWOEgBXCEIgiBNU9t2hQOC0g3OqH1MK8GUrGKuBKzsWnGAlYGVM1a0irGyUJUZK7taqFpmrgSsaCWgWmas7CrG6qd/Z+aCsbIrwVTOXAWwopVgigCLwUqM1awYqx9akIqMlYcrMVe1x2/nV1XnsrD2ZA9WYUsgAZUHq7rXs9LGik4HDOZKgCoDq8hYWagKxorWY5W5csbq78x8h8FKMn/Rty1QaXPFxio/a9XIWKlZq2XXtUoYK5m1ioxVftaqkbHKz1oVMVb5WSsGq6SxqjNr5cDqoDrGyq3KWLm1oLEKs1YWrN5LULXcWMnpgMFYBbgimNKA9RZnrmaO/DI/w8ggBHCFIAiCNE31zv+OIAFts3mw0oAVWSs2VVJnrGy1sUqBlQYsDVYOrjxg1TVWKbDSgLXMWlE9WCWNlQKr+T9+gF9RnUttx50erOoZq2CtCKq4YqzYWsVgpQGLgEoDVmasls9ZeWNV+emBfMu6k7lffC4DK9vkjJUr26pQAituI2OlwSqyVhaiImtlIYqNVaiAVc5ceWOltwQSUPlVWytXba1WcjqgNlfOWEm1tfJgFc1aBWPFWwIJrLS5YmslgBWfDEgVYyUVYyUVsLKVrYBSC1aTb3+Lmf0mjmIfpACuEARBkKapXveFCA5KNzqj8DHBFH1swWo+AVbeWNl/E1TZfwdj5cCKzJUFKTFWtNYzVhFYKXNFxioyV8pY0aqMVTRjFYGVXQmo7L+dsXJwRWBlP9bGitacsaJZq8VN5/ErqnOZ+8PH/YxV7nTAZde1avV0QG2uZCtgatbqGA9Y1bsv41vWndQev9+461oVOR2QwUqMVTRjpYzVTP50wMN4xiphrASs6p4O6MAqYaw0WNHpgNpYHUwwtdxYyZbAyFjZTieM1WTeWGmw+lBBYxUOsVDGyoGVhahGxuo9FqIUWE29m2AqA6spASs1azVBYMXmqvKTU/nZRQYhgCsEQRCkaeYvfVcEC2iLFWNFq4arZcaKmzNWAliZsbKrax6sPFxFxiqAFdsqVwtR2lwRVLnmwYpqQUobqwBWbKtcPVhlxsqurs+09+e1/GrqXKrrfxufDshgVchYKbByLWKsbD1YcclYuUMsfOd+/Um+Zd3N/HknKrDyqxircF0rba0ErPLmioBKm6swZ6XBKgOszFrZNjBWdE0rB1a20ayVA6vYWE0Ha+XBKrNWHqwya+XBqqmx0rNWjYxVACuuNla0poyVrQBWMFbaXMmx69LoEAsGrMhaUd9if3b8hp9ZZBACuEIQBEGaZv5cf32rUgzOqH5MQEUrwVR+1kobq+h0QDJWtGZgFZ0OSCsBlTZXeWP1s7yxEsDSs1YeqNxKMKXNVc5YVU6x8BTAiowVrRZColkrBitav+fNVfW2n/KrqTNZmnra3t5/szCVNlZ1Z62KGKtms1baWIVZq+eYxc29udg12auGxoq3BIYZK94SuGzGKmGsIrA6tM6MVbNZKwdWylw5oFKA1WjWKlzPimetyFg1m7VyQOVXMVaFZq1kK+BKZ60cUNWftfLGitecsXJAxcaKwGribW+x3zu38TOLDEIAVwiCIEjTzF/w6gwS0JXX2SoqgRVDlQMrqQerZcZKWauUsVp+OqBd2VrJrJUYq9BgrWxTxkpbK2esqAJWXDFWkbWyZbDytopKYGXhxQLW0th2fjV1JtWbT8/ASpsrsVbaXDljJSWY0hWwSpgrdTqgbAmsO2t1ylv5lvUmc2cfrQBLGav8rFXKWEkFrKRFjFV+1qqIsbKNjJWtgFXD61m5EkypOlulwUoqxkqqrBUfuy4VsJLWnbVyxooBKxgrKduqUAEr20bGKlgrAixbC1dL09P8rCKDEMAVgiAI0jQLqz8cwUKpRmfYP7ZQtey6VrZuxkqZKzFWDqjIXNU1Vspc5Y1VZK6UsaI1YawErJZd10qMlTJX7rpWAlZ2FWMlYLXMWKlZq/kLP86vpA6lOmfv16uj0wHDjJVrwlgxWDljRacDamN13AqMlW3eWM0e+1yzcNNZfON6k+rN58fmqsDpgNNsrmYisOI1gJVfpwJY+TUyVrSmjFV+1sqBVUFjZcEqGCtalbGarmes1OmAYcYqmCsCqxXMWhUxVtGslf3PGKzCda0YrKLrWrG5mng7Axabq4m3ecDq9UmBS1PT9rV0h5n7/UVmYdW17t+1J3byf4ukArhCEARBmmZh3VERPKArrFgrMVYOqgSsbLWx0uYqWCsGKgYsmbMKYEVrHWMlgBVbKwYrBVh156zyxkrWyFoxUDFgibVyWwJtq3edza+kzqS64XfFjJU0AiuCKgVWocpYOWuljJWzVgJWsbFytYBVe3wj37reZGlqvwerYKwYsCJrRSWoYrjSWwJDBaw0YHGjQyxseSugVMBKrFW2JZCASgGWM1YasLgWrCJztZLTAbWxiqwVwZRuzlhZsGpqrKQCVpG18kCVNFauBFPcsCWQq40VW6u5s37Nz2h3s7jxfvv9cbKZfOP7zcRr3qt6oJn4zwPNzFEnmYXV15mliUn+fyASwBWCIAjSNIt3neIgoVSjMwIfu2pjRf9eZqw8WMWnA5Kx8mAVTgdksIqMFQHWMmNl1xxYySEW0emAtDqwshDFxsqtBFXKWOXByl/XysKHNlaRucqMlVu/2/ktgXO/foeFqnjWSgArGCttrhxYKcBqNGsVjJVdHVTlzFVi1mr2mOeapX07+Nb1LpXTPuGgKpq1ShgrmbUKxio/a0VAxesyY8VbAZOnA9KaMlap0wEVWDU0VmErYOK6Vg6qZPVgNcmzVpmxklWMlV0VWDWdtXqvMlcOqpS5qjNrJWCVMlb5WSt3SqAFK5q1mnz7W031jjv42exOak/vtT8zfm0mXvseW4IpWQWsMsCa+M/32cfvs2bhirX8/0YogCsEQRCkaWpP3rQcGtDmdcaKymAVrBWBFZfhqq6xso2NFQOWGKscWEnrGittrZyxojJQBWuVAysNWJGxorKtCsaKAcvCFQHW3C9eya+izmRx82WZsXJwRWDFrWOsQgWsbLW5io9dZ8ASY8WAFc9ZUT1YSZcqU3wLe5fKqR6uCKziOSsqARZXjFVkrQSsFGCJsQqApXtAZq20sZItgWKsBLDclkACqoSxcmVbFSpgRTDFQJUyVgqsYmulbZUHKzFWvspYuTVtrCKwiqyVhajIWompkhJM6RJM6cbGavJtb7X37cNdnbdafOAh+1x8gcFKKmBlS2DloIr7aur7XGdPOMUsbuv9HxT6IYArBEEQpHkWpiNoKNvwDN3HtIqx0uZKwMquzlgpuIqMFa31jJU2VwJWtBJQ8ZbAzFjZlYwVARbBVDBWdhVjZdfoulYEVnZ1M1ZqS6A3VvbfBFRkriJjZVcxVtpc2VZvPoVfRJ3J3O8/4q9rlTJWJ1iYyhsrvSWwkbFyYEUwxas2VrQmjNXMsc8N5qofUjn1k5mxys9afZYBS8zVYQxYFqxmHFhpwOLrWimwcqcEWqgqdDogmatDlLlyxkqZq3qzVgxWYq4ErJYZq9R1rYoYq/ysVQRWOWOVn7XSxopmrVLGigErMlYBrOyaMFYOrN7+Vmeu5s7q3txe9c67zcTrPFBNvo5gqrGxGiewsquHq/eb8Ve9z972Q8zCtTfxZxzdAK4QBEGQQllYc2gEEGiT1jVWsmZgFYyVlM1VMFbUemDFs1aueWMlFXMlxipYKwasAFbSGKwiY6XNlRgrtlYCVgRVzlzRlsD9ndsSWHt8fc5aebDKrJUHK7FWAlZyMqAAlsxZZYDFVYdYiLGSQywya0VQxXDlSoDVL3D1CQYrLhkrPnZ9mbEK1spCVGStLERF1krbKg9W0YyVBau8sZJqY+UqYKWslQOryFoRWOkSTHEDWHHrGSupGCu2VgJWeWNFUOXAyq3eWIUZK3eIBVe2Ai6zVraRtdJgRVDFYCWNwIrXd77D1HY8xs9kZzP32/MCWCWNVQAsVTZWrhasJl71/tD5y9fwZx7NAK4QBEGQQqnee3r5hqeNj2u77hyM7lRrw97h16dotaW1SJ+s19vVqvpEwT6uVtfb1JroDrWqdjILa05msCKg8qsYq6anA2pzJVsBxVxFYGVXAav8rJWDqnjWauZoD1j9kNkT3rrcWCVmrQJY0axVzljJ6YCRscrPWjUyVo1mreoZK4ar/KxVEWMVAIvA6qCCxsqtOWMVwCpnrMKsFRurMGv1BrsSSGXXswrGKmwJJJiSlUowpcHKGyvaElg59VR+Fjubud/+0Uw6sHo3rwJWvAZjRf8mqKJ/E1R5wCJjJeaKwGr8lRawXvkBs3DD7fwVRi+AKwRBEKRQlubGzPzFbw5w08su3HQs3ypklFM5/TXLjVWwVgRVXDFWbK0ysFpurLJZq9hYBVuVN1bBWnlj5Xp0H8DVYjUzVq4EVroEU1xtrDRYBcBS1dYqdzqgzFrJda0isLKNwcqv2lr5Kmu1ktMBtblyxkoqxkrqrVVoMFZ2bXA6oABWmLGSNW+sms1apYyVlMGKurj5Pn4iO5f5y67yxkpaxFiFrYBcZawmHFhJP2Cqd3X+PvRjAFcIgiBI4Sw+cI6DmzINVCsfL+3ZxLcIGdUsPrQmAyt9XSsxV8d7wMqMlazKWOVnrSKwamCseNZKwIquayXGisBq9ujnmdqOe/mW9ia1p7Z6Y2Urxkq2AuaN1Uz+dMDDeMYqYaxkK2DydMAAVk2MVf50wIMJppYbK9kSGIwVbwmc1sbK9VVmMm+sNFh9KGesPljHWIVDLJSxcmBFMFXPWGXmyoMVm6tgrN5opmQroJq1cjNWylyJsSLAmv3Wt/hZ7Fyqd97FULXcWE0GwCKY8ms2Y+VXMVayJdAZq1d9IJir8Vd8wEy84oNmad84f8XRCeAKQRAEKZ6lRbNwxfsj0Ol2Fzf9gm8MMspZuPyYAFaFjJUCK1dtrGyTxsrWgxWXgMqBFTdhrGYsWFEXrvkJ39LepLruvMxaCVhJo62AvAZjJRWwygArtlYWpiJrlRkruqaVAyvbaNbKgVVsrKZTxsrVg1VmrTxYNTRW0giseM0bqwBWXG2saLVwpbcESgWwXOlCwdpcqWPXXaNDLBiwImvlwcobK+lbTfXuu/lZ7ExqT+2yj/fnHVg1nLWKDrGw5a2AmbXyYCXWSsDK1cIVAdbkez9vv2CNv/JoBHCFIAiCrCi13RvM/B9e6kCnbCPV7OOF6+wvamTkszQ3aWZ/8C+RsSo0a1XPWIUtgWysGLDqGaswY8WnAwawOsaC1VEesCqnvY9vbW9SOf2z2YwVbwlMzlgFsNKARTDlV7mu1YpPB4y2BBJMKcBqNGsVZqzsKlsBm81aOajyqxirwrNWwVgxYBFQNZu1yhkrOR1QZq3EWC2btRKoyhsrPWt1+un8DHYus1//9nJjFYEVwZQGK4Ipv447sOIZK1pf6QErM1axuRp/+QfM7HfO4K88GgFcIQiCICsOHdCgoacbnb/4rWZp/BG+BcgoZ/HBqxrPWjmgkhJM6QpYacBicyVbAR1Y2bXorJUzVlICLN/F+6/jW9zdLE3tNzNfsnDjrJUHq8hYSQWspEWMlTod0LeAsbKNjJWtgJU3VnbV1qrRrJWDKg1WCrAcWEnFWNkyWIm1kmPXpY1mrZLGypVtVaiAlW0jYxWsFUEVl8Fq6qMfsT9bd/Gz2JlUzjirubEKgMUNWwK52lixtQrGSoOV7cTLCbA+aKHxXL4Fwx/AFYIgCNJSNGCVbahSHy+Nb+WvjIx6qutOy2asXJsYq+h0QAtUxxU0VrwlMDJWtnljNUvGSoPV0X9vZo58npk76zC+xd1N9abzlbHKTgf0h1i8yMxEYMVrHWM1nTodkNYixip1OmAwVzljZaEqOh1QGSs3c5UyVup0wDBjFcyVB6pCpwPSeiADVjBWylw5sEqYKwarcF0rBqvoulY8azWRM1cTb2PAYrCaeOtbzPzFF/Mz2JnMX04HWIixygDLz1jZfyuwGs+dDuhmrgSs8qcD0qxVwlj5lQDrQ2b8Pz5oFq68kW/JcAdwhSAIgrQcAp753/9rBEKdaG33XfwVEcS+Sbzo8wqsCKo8WIVGYLXcWPkqY+WqjJWzVgJWDYyVNAIrXqkWsBbvv55vdXeyVJk2s9989/JZK2etqARYAlcarDRgcaNDLGxzpwMKWEkDWJG5slClwUqaGSsp2yoxVnrWShurYK0IqhiuxFhF1opgSjdnrCxYFTJWGqwiayWmSkpgpUswxWWwamasqDNHH83PYGdSvXuTmXizBSICqshaWYiKrBXBlC7BFJfBqpmxkgawsp34jw/Zx/GLprZzD9+i4Q3gCkEQBGkrBFgLl73LQVAZhkp/vHD1IWZpeid/JQTxmfvJqy1UNZi1cmClAKvRrFUwVrwlsMHpgNH1rGQNYKUA6yhvrmitnPp+vtXdycJVv1xmrGTWKhirxOmAAlZNjVXYCshrEWOVPx2QwSqYKwarcEogg1XyulYHMWAFY8WAFYyVrGKs7KrASrYEFpq1qmescrNWAlgpY5WftXKnBApY0azVWz1gVW/v3HWhlvbstc/b4Wby9QRTeksgwZSsAlYasDJjlbyeVf50wFfSVsDlxsqvBFgHmdlvDf/8FeAKQRAEaTtLM7tN9a5TzNy5B0Rw1Grnr3i/WXzoAv7sCJJlaWZ/wljx6sBKKsZKA5a3VvGx6wxYYqwYsOI5K6oYK6mAlQYsXQIs37lzO2slJIubb2p8OmBkrRisUsYqAJbuAZm1amSsBLAIrGzlelYNjZUrgRU3bAnkamOlwCq2VhaiImuVGStfZazcmjZWEVhF1spClLSZsXIlmNIlmOIqY0Wd+8Mf+BnsTGZP+K7bDlho1kpbK9kKqM2VWCttrhxQSQWsNGB5cyWANb9quLcHAq4QBEGQ0kIHTlRv/6aZv+A/Y1gqaKwW1n7OLG69hD8bgixPbfttkbESsKp7OmAEVspYObAimOJVGytaE8ZqhmetImNlV7qulTNXvBWQwGqaVoKrrxBg/YNZfPg2vgedSW37fcZd10rNWglYOXN1GAOWBasZB1YasOpc10qBVdPTAQ/JmasipwMyWBUyVrlZq0LGKj9rFYFVA2OVuq5VEWMVAItgyq4KrJYZKwas2f8+mZ/BzmTunPO8sVJgNfk6AikNVgRTslLZWIUtgcpYObBqYqxekTNWLz/IjL/Mg9X4yw6yj+cRprZ3jG/h8AVwhSAIgnQkdOBF9d7T3da++T+9MYKp0D/+h6muO8osPvB7s7R3NK/mj6ws1Vt/mTBXBFTZlsC8sZI5qwywuOoQCzFWbitgZK0IqhiuxFhF1opgSjczVgJWM1/xrd76R74X5aZ62yWZseJj1xsaK6kYq8haCVBlYBVmrNyaM1YWrAiq8sbKVcBKWSsHVpG1IrDSJZjiBrDiNjJWwVpZiGJrJWCVN1YEVQ6slLkKM1a8irGactaKzVWYs8rAKlRbqwisCKoYrHLmavqww8zSns7NIFVvvcNMvL6gscrPWhUwVuNkrYK5ErDy1ipvrMYZrCZsaZ371UV8K4cvgCsEQRCka1maftJB19L4NmPmJ/g/RZDiWbj25MxcOWOlzFW9WasIrOwagRVvCdTmisHKmatjcrNWRzNgBbDSgEUwZVcFVtO0WrCa/jIB1vPN3Ln/ZZb27uB7037mzj1xmbHKz1oFsKJZqzrXs4qMVX7WSoHVik4HpFmretezUsbKr8WMVQAsAquDXq2uayWmSlZlrNyqjFXYEljAWDnA8kA19R4Cqex6VnWNVdgSSDClwSozVhNvfaupbtjAz2L5qe1+2j7+/kLBcjpgdF2rlLmSrYDOWHnAKjRr5cBKAVZi1iqYq38nwPqwfRw+Z78PhtNeAa4QBEEQBBmYLFx5fGys2Fo5Y8XWqpGxymatlLFyZVuVN1bBWlmIiqyVhajIWhFM6WbGyvf5ZubLvrMn/Kep3tyexVq870ZT+fkXvbFy9WAVrJU2V85YSQWsNGCpamuVOx1QZq3kulYxWClz5YyVX7W18tXWylZbKwErba7EWmlz5YBKKsZK6q2VnrXyYGXXBqcDRsZKWsRY5WetChgr6vxFnTU3s9/6QWaspEljRVBFJaji1pu1ckAlFWOlActbq2WzVgRWbKxcLWCN//uHzdyZw2mvAFcIgiAIggxM5i89ys1aRcaKZq2KnA4YgVUTYyWARcaKZq2UsQozVspYuRmrAFiZsRKwcubKgtX0lwiwXuDWuV8cahauP9ssjRU7EZOOWV+87wYz56DqhWbmCx6sohkr27yxmkmcDhjNWB2aGSvZCpg8HTCAVQFj5QDLA9X0wQRSy42VbAkMxoq3BE5rY+X6KjNZx1g5oPrQfypzZYHqg42MFQNWatbKQZUyVw6sMnPlwYrNVTBWbLBypwO6GStlrsRYEWDNn9vZC+rO/+EiBVbLjZW/rhWVYMqv2YyVX8VYCVgVPh0wAiuCKVm9sRJzNf5vH7aPxRdMbc/w2SvAFYIgSJMsze41tR1rzeIDvzPVO79r3wwd7g5eqN56vKnefaqpPXGjfdOzj//XCIJ0MvMXfj5trBRYibUKYGVbz1h5sOISUDmw4jYyVpG1stXWKgIrgioPVqEEWF+ygHXEC9w6Y9fKTw4x8+efaH++nGMW719nIep6U739UrNw3W/N/MXfN5VTPmb/9xaUvvBCM00NxoqgKgOryFhJI7DiNW+s8rNW2lg5a5UZq2kBK9tlxopXMVZy7HrD0wGdtfJg1dBYSSOw4tUZK7sqayWHWISZK22u3JxVBlZSAausAla26hALVwKsyFp5sMqslQerzFp1Hqyqd97FYFVg1io6xMK2nrHiCliJtRKw8jNWsbGSCliJsfKAxbWANXfmn/iWD08AVwiCIIksTWw3i5vPNgtXHxwdwNDo1Lv5Kz9s/z9nmaWpJ/mzIAhSdubO/URsrMKsFQFWHWMVtgSysWLAqmeswowVnw4YwOoYgioGrLAVUFYqGyu3ElixsXJrZqwysPpHvx5h18P/0a7/5NfD7frFf7IrgZRdv+iBypsqbaw8WOVnrTxU8RrASgGWmrWS61qFWatgrDxg1T0dUJsrB1QKsBxYKXNVb9ZKtgKuYNYqm7GS1YNV3VmrIsYqP2tFQBXMVXY6oMxaibFKzlqljBXPWs395jf8Ku5Mlvbtt88bX8/KglUwVnQ6oDJXMVjRvxms5JRAC1Zh1uqVHrAyY6XMVb1ZK9kKKOYqAiu7MlhN/PtH7OvjOL71wxPAFYIgiApBVfWO70QAtdLOn3uA+xy4+C2ClJ+533zIQhSBFUGVBys5HdBXwEoDljJXwVjZ1YJVsFZirsRaaXPlgEoqYKUBS5dtVQNjFSpgZRsAS8DK1q8CVmysGKwya0Vgxa1nrKTaWAVzpWyVK8GUrjJWzlrljVVsrqQCVq4WrCJrJceuB2vFYJU3Vw6opGKspGKspAWNlQAWgZWyVg2NlauAlW0EVrbaWAVrxcaKrVXlRz/kV3DnMvvfp7R+OmA4dp1gygNVqDZWGqzYWi2bscobK9fYWI1bsBr/N9/q3Q/yPRiOAK4QBEEoS4v2B/xpZv6PL/OAVPC6TI0+nr/w9Wbxwc5eHBJBRi3zF3whbaw0WB1X0FjxlsDIWNnmjdVsZKw0YBFM+VWMlWwJzIyVByw9axXMlQMrXgNYacBS5ioYK15TxopnrWYisOK1jrGaTp0OSGsRY5WftSKgUmDV7HRAMVZu5qqIsTrIQpQ2VxaqInMlYCXmSsCKzNWBOXP1XmWuHFjlzBXNWjFYhetaMViFUwIFrNSslZiribcxYFmwmv361/jV27nMnX9xACs5HVAAy89YacA60IxHh1hkxsqBVep0QG2saNaqyOmADFYpY+UAi+DqpR8xlZ905hIFvQrgCkGQkc/S3JhZWPv5CI7KbPWW4+w7win+agiCtJOFNd8LxsqD1XJj5Rsbq5kAVn4VWyVbArOKsZJ6wHKNwMpWjl2XNpq1slAlYOWNVQZYMw6sYnPlqrYE+jkrC1aRtaISVDFcaXPloEqDlQYsbnSIhW3udEABK6mAlWsRYxUAi6sOsWhorKRirCJrJaZKqoyVW3PGKhy7njNWGqwia2UhKrJWBFa6BFPcAFbchLGaPfk7/MrtXNyclTZWUjFWkbUSoMrAKhgrV7ZVYqwsWOWNlTSAlW1krJS1imasXGOwonXyA8fwPRmOAK4QBBnpLE3uMHO/+5cAQmUYq9THC6s/bJbGt/JXRRCk1VQ3/JHBSgGWAysNWHXMFW8FLDpr5a9rJUClwYpgSlYqwZRfCxmr/KwVAZUCq8hYuS2BBFOyKmNFK5mqvLFKnA4YgxXBlF+XGauwFVDWGKymDpFVwCpnrlKzVgxW4ZRABqvkda0OYsAKxooBSxur/KxVI2PVbNYqZawYroKxYsAqZKwEsGjG6oyf8au2c6k9vcc+P190YOVmrZSxCjNWyljFh1gkZqzyxirMWrGxCrNWBFh1jBXDVTBWDFhirCYYrCb+7aMesF76UVO9dSPfo8EP4ApBkJHN0r4HIhDqdOcve5cFrEf4qyMI0kpq224J5krmrKItgbbxset2FbAK1opKgMVtZqwCYOkKWNk2MlZsrfScVQxWsbHKz1qJsYpmrbSxCtaKoIorYBVZKwErDVi6BFPcOsZq2emAtjFY6RJY6RJY6RJMcRsZKwVWsbXKjJWvMlZuzRkrB1YEVDljFayVhajIWlmIiqwVwZQuwVSuCqzmz+vOVrfZb37fgVVWASsNWKraWjU5HTC6npWswVjpLYE5c+XAiu2VtlZirKQMVtTKacOzNRBwhSDISGZpZreZO/eADHxKMlTNPl4gwMJpggjScpb274iNVQRWdYxVatbqWGWuHFhlgOWNVQZY4bpWCqzcda0ErNzpgAxYYq6+5AErmKsjPGBlYJUzVzRrFYGVXWUroJgrBisxVwJWzlwdxoBlwWrGQRUDFoNVdF0rZ6zsqsBqRacD0qxVC6cDClgljVVu1ioyVnRdKzZWAlbOWLnVg1UwVgGsmhirMGv1ersSTBUwVgGwCKbsGsBKGav3v9csXH8dv1o7m7lzznNAJacDClhN0umA2li9lmCK/i1gxcYqbAlUxsqBVQFjpcHq5c2MlQervLnyYPURM2HXqY8Oz6mBgCsEQUYvtapZWP2RCH662eotX+cbgiBIK8kbK5mzygCLq8BKjJUDqryxkoqxiqyVAFUGVsFYuRJMcRmsxFiFGStumLGiamPF1mqZsbKVrYDBWDmw4jYyVgqsYmslQJWBVZixcmvOWFmwIqjKGytXASupgFVkrcRUSQmmdAmmuAxWSWOlwMqttBVQm6sAVgRVDFbKXIUZK17FWE05a8XmKsxZZWAVqq1VBFYEVR6spr/wObO4eTO/Sjub6k23+jmr/OmA0ZZAXQErrjZWzlqxrVLGapxsVd5Y2dVf1yo2Vq7qEAtvrSxgRdaKKmClAOsA39oTu/neDXYAVwiCjFzoVEABnbKM1Eo/rj1yKd8aBEFWmvlLjmk8axWBFW8JrDdrdYyatcoZq7qzVgqsxFgVnrVKGauwJZCNVX7WKmes5HRAmbUKYJWftXJQJasHq3A9K22s8rNWjYxVmLWiLYHFjJWcDljEWIUtgWKswqwVAVYdY+VWZazClsACxsoBlgeqqfdYiArmqoGxSsxazZ78bbO0by+/Qjub2uNP2sfqM2YydzpguK5Vo1mrYKw8YBWatXJgpQDLgZUGLGWugrFisEoYK5m1ImPlwOqlH3Pr/EVr+R4OdgBXCIKMVOg6VnLcei87f9l7+BYhCLLSLD50fV1jlc1aKWNlK8euNzVWGqwiayVAlYFVMFaumbFyM1YWrPLGatn1rGwzsPKrtlZu1kqslZgrsVbaXDmgkgpYacDSVdYqdzqgzFotO8Qib66csfKrGKus2lrZamtV9HRAB1a8BmMlVbYqAJY3Vm7NGSsHVraRsZIWMVaNZq3YWM39trMXB85n5uvfUsYqZ66oEVjZRseuM2BF1sqDVWatPFh5Y6UBy1uraEtgHWNVaNaKjZXvx+z326l8Dwc7gCsEQUYqcoHgsgxUOx8vbjmPbxWCICtN5ZRXLzdW+VmrCKxyxkoAi4wVnQ6oZ6zoulZHMWAxWLkZqwBYasaKwWpFpwMeQSBVwFjxlsBoxso2b6xmEqcDRjNWh2bGSrYCNj4dUBkrB1YJY+UAywPV9MEEUspYfZxgiv7toSoYK94SOK2NleurzGQdYzWVOh2Q1lZOB3RQpcyVA6vMXHmwYnMVjBUbrJyxohmrqQ8eaBbWXsuvyO5k7szfBmPlgMqueWPlr2tFJZjy67gDK4Ipv4qxErAqdDogAZU2VwJWYq5kKyCZq3/LmauXMmAFY5UB1oQFq/GXfNQ+N8NxJDvgCkGQkcnS9M4IcHrd+YtebxauPgTtp151cLZSV+d65cejzq+yq+vHXOevsKstra6Xf9QsXO5X18vsx7a0ul76kbiXqF784bh/oh6UrRfleiH1Q74X5Ho+9YNZz5N+wK9/tKvuH3zn/vB+u9qe6zsn6+/t+vv32fV9fv0d9xz7sVsPdF2a3MnffeWnettvMrCyLWSs8uaKjJU2V2HOSoMVN7JWGqwIqjxYReYqgBVBlQIr22xLoDJWAaz8WshYSSOw4rWRsWLAiq1VZqym6xkrWwGsMGMVzBWbqlAPVpm18mCVWSsFWA6spAxY1OgQC1s+dl0qYCUNYEXmys1ZZWAlFbDKKmBlqw6xcJVj16Vq1mrmK0eYxQcf4Fdjd7Kw5obcnBUDlhirAFjc6BAL20bGSgBLzVkJWPkZq9hYSeUQizBjxYdYNDRWkbWiLYEEV7YvPZjv6WAHcIUgyMhkcduqUowTPh7Sj38j6wv8v8+2K/Ws5/v113a1/678+h/cvyu/suuv7Homrf9g1783c/bflV/a1bbyC1mfZ+bsvys/t6tt5Yzn+vVndj2D1ueYOfvvyul2Pd2uP6X1OXb9OzNn/135iV1tK6fJ+rfu35VT7Ur98d/49RS7/phX6o+ebWth44e0Wgj54bNMxf579gd2tZ39vqzPNBX779nv2dV29rt/7df/tut3ebWdPfmvTOVku36H1r+y61+aiv337Lft+m27fovWv7TrM9y/Z7/5DFN77Fb+7utM5s//YtpYMWBFxsq23vWsImOlwepoAin6t0AVG6uwJZCNlVsJrJoZKw1WCXPFWwGbzVpN52etHFApwFKzVlMMVmHWKhgru1qoKnQ6oAMqZa4cUClz1WjWKhgrBqwms1bZjJWsbKqKzFrVM1bNZq20sQpbAWWlsrGi9e1vtt9/p5ilyUl+FXYn1bvuZWP1rmWzVvEhFnaNwIr+zWAlpwRasAqzVq/0gJUZK2Wuis5aRWDVZNZKGSsPVbJSP25qT+3hezy4AVwhCDIyqd56fPZGGkVTdWDFUBXgiurBygEW1YGVKgEWVcAqABaBlQUoAStaCagIsGwJsFwJpgis3EpgxSWY0nVgxVAV4IpKYMVQpcDKr7YEWFQGq1ACLA1WtBJQEWDZLgMrgioHVlyCKV2CKgYr6sL13+Xvvs5kad92e7tfzmDFgBWMlV0tWCWNlVQbKz1rpY1Vs1mrhLEKFbCyjcEqM1bZVkA2Vvp0QFeCKW49YyUVsJImjRVBFZWgistgJdYqBisNWARUGrC4Fqwic6WOXffWisEqWCsGq8haEUzpsq0KLWisBLAIrKTNjJWrgJUGLC4bq5mjvmSqt3X2DwapLG7dlhmrYK0sREXWimBKl2BKl21VwliFGStuACuyVhFYEVAljJUr26pQAiuuNlYarLS1smBFrd55P9/rwQ3gCkGQkcncea8Ib6JLNR74ePA/plUbK/vvihgrB1b2Yw1WwVyRsfJg5YAqMlfKWBFgibFyYGVXMldirIK58lAlxkoAK2+s5mgVY+XAysKEBiu7irESsPLGSpsrZaxoFWPlwMquGqxoDcbKrtpYuZWgKjNWFVpPeoZ9nN7O332dy+K9l5nZr9cxVvlZKwdVmbnyQCWnBApYacAimPJrZqzsaqGq0OmADqx4bWSsaNXGitYGxmpGwCp1OiCvYqym650OqI0VrSljlZ+1IqBSYNXsdEAxVm7myhkrBVYHyerBKrqulZgrC1WRuRKwSs1aHZgzV+9V5sqBlTJXuVmrcF0rBqtwSiCD1dQH32vmz/+jMbUav+q6l9rTe8zkGwim3hXAKm+s/IyVBiyasbKrAisxVg6sUqcDamNFs1ZFjZVtPWMlYCWnAwpYTdDpgNpYHfBxM/ZiD1jzf7qe7/ngBnCFIMhIZGl2b/RmGkWjElTljVUAK4YqVw9Wy4wVbQkkoGKwIqiKtgLKqsDKNwOryFj91MKT2CoHVlxtrBRYBWOlAUsbKyoBFYNV3lhJNVhJBbDEWDmwYrgKzRkrX/vxSX9plvZt4+/CzqW67hfOWulDLLy1YrAK1opKUKUrYGUbgZVtdOw6QZUHq8xaebASayVg5Y1VBlg0Z5WftXJVh1j4OSveCihtNGvloEqDlQKsMGclgMVlsBJjJVsBpQJWrtpYMVwtM1YBsLjqEIumxkqBVWyttK3yYBWMlVtzxsqCFUFVQ2MlFbCKrJWYKinbKm7lh98zte2P8iutu1mam6tvrIK1shAVWSsBqgysgrFyZVslxsqCVd5YSQNY2WbGyq9irGRLYGSt6s1akbHS5soZK+nHzfiLP25/bl7C935wA7hCEGQksrRno3sTXbrxwMeD/TGtkbHiNYAVGyv773jWio0VrQRTdY2VAixtrNyWQG2s7ErGigCLTFUdY7Vs1krAym0JtABl/z3rwCozVw6ogrlKGCtabSNj5bYEsrEic6VnrchUBXNFUMWmSoxVACu/Vu/4NX8XdjYLa0/15iplrOrMWhUxVtlWQL9OO7BqYqxSpwMqsIqMldsSSDAl6z9nxopWMlXNjNVhFqIisCKI8qubtbJgVXjW6hBlrhxU5cxVataKwUrMlYBV0+taOaiS1YNVoVkrbayazVoVMVYMWNpYTX/p86Z604386upNnLF6vZqxej3BFANWHWMVH2LxPm+sAmAljFWYtWJjFWatCLAIpBLGircEBmPFWwLrXc8qAysLURqsDqCtgBlYjb/4YPvz82K+94MbwBWCICOR2qOrozfVKOrqjBWVwIqhSoFVbK1sGawyY8XNG6v8rJWAlYMq37Sx4uaNVX7WiqDKlU1VI2NFzRsrB1gWpAJY2VVmreoYq6h5Y+W2BIqxsiWwOokA6y/N/Lkf5e/CzmdhzanKWhFgccVYRdZKwEoDlq6AlW0jY8XWKsxZ6S2BCWOVn7XKyraqmbEK1oqgiuGqmbFyJZjiMljljVWj0wH9lsDMWDU9HZCPXW9qrBRYheaMla8yVm4lsGJj5VZvq6KtgMpYOVu1zFrZamtlwWr6kx8185dcaEy1yq+q3mTiDbQNMNsKmFWMlVTASgMWt8npgPlZK39dKzFWekugNlfKWDlrxbaqkbGSNjBW0grMFYIgyGBk8b5fRW+qSzcg+HiwPv6t/Zhgij7W5krAyq5irASsGp8OaFcCqry5ErCiNRirDKzqnw5oV4IpNlduxkobK1qDsfIVY+VgioxVdDqgXQmo8ubKNsxaBWOVgVWz0wE9YC03VhXeEjh7kv3fnUhbA7u3raq2fYM3V8fmZq2OYcAKxor+7cFqVsyVAit3XSsBK2esGLBk1upLHrCCuTrCA1YGVhqwCKgS5orBqt7pgAJWzlwdxoBlwcpd1yp3OmB0XStlrASsVnQ6IM1atXA6oIBV3lhF17UisKLrWmljRde1io5dr2Os3JozVgGscsYqzFq93q4EUspYvYdgiv7tocoZq/e93f48+LV9re7jV1LvkjRWCqwmX0cQpcDqtQRTGqwaGCsHVs2MlQYrXvX1rGgtcDqghyq5rpWAlQYsAiq/jgVzBbhCEAQZiCw+dH705hpFM2Nl1wBWCrDqWSsqG6swY8XWSsCKYMqDVQZYYq0cWDFcLTNXYqyCtbIQFYGVrDFYuYq10uZKjBVbKwErgqlgrNyaAyuGKw9YBFZcMVbBWlmgCmAltR+ztSKwIsCq3nEWfyd2J0v7HrPPz0ccWAVjFayVhajIWglQZWAVjJUrwRSXwUqMVZixyhkraQArhqqUsZKtgFkJrLhkrNyWQK42VgqsYmtlISqyVgRTvnLB4MhYWbByM1Y5YyVzVsFYabCKrJWYKimBlW4erHgNxkoqYKUBS5mrYKwIqjRY2dWClcxZCWCFGSttrrSxUrNWlZ/8yEJ552cDi2RSGyupAqto1qqesXLWSsCKu8xY8dbAYKzUzJWYK7Ul0M9ZWbASY+WsFYNVsFZUAiyBKwYsB1YasLgMVsFc/StmrhAEQQYmtSdvdm+oSzcg+HhwP9ZgRf9mY+XByq7aWMlqGxkrWgmmksYqA6vGpwMqY0UrwVTSWGmwsqs2VgquImNFK8FU0lhpsLKrNlayirkSY0Wrhan8rJUrz1iFLYEMVrTO/fTVZml6L383dinzM2b+wmMdYIVZq5yxKjJrJcaq0OmANGtVxFjlZ61yxkpOB5RZqwBWqVmrlLFyqwerbNbKg1VTYxVmrWhLIEFVc2MlpwMGYxUAKw9WFqI0WJGxYrByM1YfKmiswpbAAsaKVgdWylzxrNXsd75hqhvv5hdM7yNgtcxcOaCSVcBKAxYBFa/BWHnACtezajRr5UyVMlfaWIWtgHpLIAFVfWMls1bBWOVnrZSx8mB1sAMrZ65+DrhCEAQZiCxNPBq9yUZHvM5aUS1EibWqZ6yoDFZirNzpgHxCoAcru4q5IqAKgJXbCijNGys6HVCfEOisFZWBKgAWgZWHqqh5Y8WApa2VLwOVbT1jlYEV2ypXC0oMWJm1ojJY5Y2VK4EV94S/MgvXfJO/G7ubxY2r7GP09sxYabCSNjNWrpmxCtVgFSpgpQGLgIrtVTBWdrVgFVmrerNWDqx4DcZKKmCVAVZmrWzZWrkKWGlzRWCVN1cOqPwaz1lRtbWiirGyXcnpgMFcaVvlwSo/ayXGyq05Y+XAKm+spHWMVeWHJ5vFe+7iV0jvs/jAFjVjpcyVBausAlYasLgEVpG18mCVWSsPVtpapYxV3VmrhLEqPGuVMlYBsHQJsA62P4dX8aMyuAFcIQgyGlmcj95cl2pA8PFgfWyByp0SKMaKwcpd10qMlf23GCsPVjRrRUCVM1dirGgloLL/XnaIBYEVAVZkrOxqocqZKmWuBKzcKYEEUxqutLGy/46NFZ8OSKYqmrUiY8UrAVVkrpSxorWesYpmrQioeCWgYnPlZ6zYWAWwsiuD1eyJf21m7FrbdjN/Q3Y3S5VJM7/quwGsZo8hmGLAamSsAmApY+XAKmGsNFjR6YDaWB1ex1jxlsBoxso2b6zcjFXOWE1psDo0M1ayFTBprNyaM1YOrJoYq4MJopSx+jjBVAZWsbGyH0dg5dfJYKz8KsZqqt7pgPp6VrQWOR3QQZUyV9pYHfhm+734Y7O45QF+VfRH5i+6tK6xckBl17yx8qcEUgmm/DruwIpgyq9irMJ1rV7pASszVrIqcxWBlV0FrMRcyVbAlLl6KQNWMFYMWBasJhKzVu66VgqsxshcEVydt4YfmcEN4ApBkJHJwuqPRm+40RGsNlbaWsnJgHlzJcaKqsAqb6wIqmKw8nClzZUYK7cVMFgrC1E5sArGKgIrqQer2FjxmjBWDqzEWNkKWBFMhdMB2Vy5ClgpayVgFRsrqjJWkbUimNK1n+8E37nffYy/G3uTxa232ef3Mw6wMrDSgKWqrRWD1TJjZUtrZKyiLYHKWAWw8mtkrJy18mAVGStpBFa8NjNWatbKW6vMWE3XM1a2AlhhxiqYKzFVquoQC2+tqARYAlcMWA6spGKspGKsbBmsxFrJsevS6BALN2eVmStvrTKwkk597L32e/wXprZjO78K+ieVX5zlwSqyVgRYAlcMWPWMVQAsbnSIBcGUByppmLFiaxVmrKg5YyWVrYBhxoqPXW9qrBisHFBF1kqAKgMrgirp/OW9+QNMmQFcIQgyMlm878xyDQg+HqyPCarcSmBl1wBWFqJktZAVXc+KVoIp++/lxkpWAis2V2Ks8uZKwIpWMlYOrtSslTZWDqzsqo1V3lwJWNk1XM9q2emAAlgEVjljlTdXAla0ElA5uNLGyq5irNQhFsFYBbgimJKV6o2Vg6tvEGA901Rv+xV/R/Yuixuvss/XxyxgEUgVMFb5WStnrGQVsFKA1WjWKhgruzqoysyVzFr5QywYsAJYKcByYOXXKQar5KyVharCpwNGWwIJppS5ajRrpYxVgKoGs1bZjJWsbKqKng6YMlaJWauZoz5n5s87x9Se3s3Pen9l9genmck3Eky9MzNXDqoycyWzVvEhFnaVrYBirhRYuVMCLVglZ63qGauwJZCNVX7WqpGxys9aKWPloUpWASsNWJmxGnNwdYhZuHY9P0KDG8AVgiAjk9ruu7I32uhoNm+sHFRRCazYVgVjJastAZY2VgGwcsaKVrZWeWNVoa2AkbXyYBVVzJWAlYMqASuGqryxCtbKlo1VKJurAFa05oxVtBWQoEpZq2CspGKtnLFS5ipYK1ttrQSspBawKj/8d/uG92H+ruxtqhsusY/3+xmsMsCKrRXbKmWsQgWsbJcZqwislLFqdDqggysCK64DK6mAlQYsbnTsOkGVB6vMWlHZWglgBWOlzJUDKw1Yumyr8sYqWCuCKq6AVWStxFRJ2VaFZsZqqpGxEsBiY6W3BE5/4WD7/f1zs3jfvfwM919qe/aameO+mRmrYK0sREXWykJUZK0IpnQJpnTZViWMVf56VpGxisCKgCphrGwjY+VKYMVtZKw0WNGqrRWDVei/HGyqt2ziR2pwA7hCEGSksnDlh9yb7FKNSIsfL6w7xtR23Yn2qjub9Y54fcquRfqkWqPenlhtn1Broz6uVtfbEqvqDrUW6WO32ubXBt3eqPb/H1buo/HaT6ne+ScLyp9ksGKDlTJW+VkrB1a8NjNWDrAIpnhtYKxmBKzys1YEVLyKsXJglTdWtGpjRWtRY6XAapqgKhgruzJYRde1smDlZq4+zIAl5uogBqxgrDRgsbmyUBWZK9kKKOZKwCplrt7rAWvqU+83cz8/xVTX99drKhU6uGL6sCO8sXqDMlY0a6WNFV3XShkrP2OlAYtgyq4KrMRYhRkrbaxS17Vq9XRAWzFWAlZyOqCA1QSdDqiN1QEf9zNWeWMVtgQeYsYsWI3/yyFm8f7uXROvUwFcIQgyUlncdnkEOb3s0thDfKsQBOmHLG5bb+YvOsnMfP3f2Vopc2WhSsBKrJWAFZ0MmD8d0FWBlZ+z4q2AUnWIhbdWVIIqhqtmxioAFpfBSoyVbAXMGytXbazCnNVyYyVbAbMSWHHDlkCuNlYKrGJrZSEqslZsqwis3JozVhasCKq0sZo6+N2mcurJpnrTdWapMsvPXn9nYd3N9vZ/hMGKS8bKHWLBtWAVjFWwVhaiImtlISqyVgRTumyrxFgpc+WNlVTAKm2uMmNlVwtWkbWqN2tFxkqbK2espAJWXG2snLU6xNUsVPkRG9wArhAEGbksXPvpADhlGKhWPq7eegLfGgRB+i1LE7vNwg1nm8qPP5g2VqnTARVYNTRWFqqCsaKVTFVkrBiwAlhpwCKY0oDFs1YWrLLTAQmyGsxaHaLMlYOqnLlKzVrljNW0NlaNZq0cVMnqwarQrFXCWE0d/C4HVAvr1pilqUl+pgYj83+61JuqlLEKs1ZsrASwGhmrAFdsrAJgFTBWGqxeUdBY8ZbAaMbKNmmsNFjpLYFsrsRYhVkrMlZsrqbe8zV+xAY7gCsEQUYutcevj4Cn211Y9QGzNLefbw2CIP2c2qN32+/ZU0zle+92cBVvCVxurOR0wMhYubKtamasNFhJmxkr18xY+S43Vo1OB/RbAjNj1fB6Vq4EU9xGxkqBVWytLEQpaxUZK7daoDrEAtVp3xlIoKLUnnzKzH7/x2bijQRW73RgFayVmKtgrKRirKQCVhqwuLIVUNpk1qqIscrAyq+FjJVUwEqaMla50wEJrMRazRx7Bj9ygx3AFYIgI5nFe38WAU9ZRqrZx/PnHmBquzfwrUAQZJCy+NDtZv7i75rKt99mgUqZq3qzVgxW9U4HFLBy5koZK3ddq5yxmqpjrASsVnw6oDZWdF2rAqcDCljljdV04nTA7LpWBFiZsRKwShoru84c9Skz94sfDixQSeZXrbb3+xAGK4IpNla2TY3V6yxEabB6LcGUBqs6xip1OmC0JZCASgOWMlf6ela0Fjgd0EOVXNeKwarO6YBjAaz8qo0VgdXYiw4xc7+6gh+9wQ7gCkGQkc3CDV+OAKgbrW2/mr86giCDnNr2e83C9b81c2d9xcwe//q6xkq2AmYlsOKSsSKwamasImtlISqyVpmtkgsGB2PlVm+rIrBiaxUZKw1Wy6yVrbZWAlZ5c+XAitdgrKQCVhqw/tPMHGNh6jc/NdVb1pra7qf40R3c1B7dbma/9V0HVcFYOWslYKWMlVQbKz1rFRkrWwIssVZ5c+WgyoOVN1YZYMmclQAWWStnrtSWQD9nZcFKjJWzVgxWwVpRCbAErhiwHFhpwOJGh1jYJk4HFGtFXVjXv6c8riSAKwRBRjoLaz8bwU9Zhir18eK24firHIIgy1Pb+YgFhAvN3DlfM7MnvjU2VvlZK22sZEsggVX+dMDDCKYYsLSxcqsHq2zWqqCxCrNWbKzCrFV9Y+VXZazClkCCKQ1WFqLyxorBys1YfdRC6FcPtT8PLUzdeZNZGh/jR284QrNVk+/9kJl8EwHVO8JWwKazVg6oZBWw0oBFMMVrMFYerJLGKj9rRaYqmKucsQpbAfWWQAIqXhPGSmatgrHKz1opY5VtBfSrXM8qM1cEVp9w5mpp7wQ/koMdwBWCICOfxQf/EACoU128/xz+agiCjEKWJveZxY3XmflLTjGVHx1sActCU9FZK2espAJWGWBl1sqWrZWrgJWYq3qzVg6o/BrPWVGVrXL1YJVZKwErgioGK6mAle3M4R8wlR981cyf/ytTve16U3tqBz8yw5fFB7eY2eNPMhNvskBlG8AqWCuqGCupGCupgJUGLG4jYxWsFUGVN1Zh1ipnrIrMWomxKjxrlTJWAbB0Caa4OWM1bsFq8m3H8KM5+AFcIQiC2NS2XWHmzn91gKGyjNXCFe8ztR1r+asgCDLKqT26ySys/Z2Z/8O3TeUnnzOzJ77bTH/x3/yMVc5YTWmwOjQzVg6oPlPHWLk1Z6wcWDUxVilzRTNWYq5kKyCbq2kGq+lPvcnM/NfBFh6/aubOOc0srLnELD60ySxVZvgeD3/m/ni+mXyHhR8HVgRTvBYwVhM8axUZK7uGUwIFrF5zoBkXwGJzNf4qBiwxV6/0gJUZK1kFrOwagZVdZSugmCvZCpiatXopA1YwVgxYFqwmErNW7rpWCqzkdEAHVrlZKzJXM0f/jB/RwQ/gCkEQhLM0/ZSpbviBmf/9iyNQaqnnvsQdmmGqFf7sCIIg6SxN7HXgVV1/tVm46mwLXyebyulfMrPf/JCZ+fJr08ZKzVp5a5UZK9dlxio2V67qEAtXC1ZirKY/+RozfcS7zexxh5jZ73/FzJ1tfzZeca6p3nGdqW170CxNjfOtH81U77nXzBzzNTP55nc0NFZyiEVmrgiqGK6aGStXgilu2BLI1cYqWCsLUWytwowVtaCxkmPXmxorBisHVJG1shAVWSuCKd3MWAlYjb/oE2buN6v5kR38AK4QBEFyWdq/xb6B+I6Zv+gNKzdWf3qjBbQfmqV9D/BnQxAEaTPzs6a2c7tZvP92U735UrNw2S/tz5qfmvnzTzFzv/+ufWP6LTN35jfM3BlfNZXTjjSVHx1uZr97mF2PMJVTjzRzP7P/+S/sf3/Wt+3Pqe9ZePux/f+ebuYvPtMsXP1HU73lKrO48TYLeA+a2p6dZmluMC7M24ssTUyYuV/+2gLV2xms7CpglZq1er0yVw6qls9axYdY2DUCK7tqY9Vs1iplrMKWQDZW+VmrRsYqMWsVgVWd0wEjY5WftVJg5VYLV9U7H+RHePADuEIQBGmQ2pM3m+rtJ5n5yw808398WQRS0oVVHzTVu35kao9dY0wVb0oQBEGGMQtrrzPTn/msmXizgBUbK7cWNFbBWlmIiqyVAJUGK122VaFsq/LGSoGVNICVbdJY2UbGypXAiuuASipgJRWw0oDFbXI6IM1aEVhNvPpwszQzPLs8AFcIgiAryfykWdr/oFnau9n+Mthp6WuB/wsEQRBkGFN79FEz+9/fM5NvebsCKzZWAaxyxio/a6WNFc1aKWMVZqwCYBFM2VWBlRirMGOVN1Zh1ooAq6CxYsCKjJVtM2M1kT8d8ICP+xmrhLGSrYCp0wEJrMZsZ084mx/p4QjgCkEQBEEQBEESmb/gQjN54AcsUGmwqmOsbD1YcclYuUMsuNpYBWtlIWqZtbLV1krASiqzVg6seA3GSipgpQErM1eZsWJ7pa1VvVkrAqpoS6CugFUGWLG1YluljBWBFa0L19/Dj/ZwBHCFIAiCIAiCICrVDRvMzNHHWqB623JjFQBLGasAVjljFWat2FgJYJGxeh2BFAOWNlZhSyAbq7AlsICx0mD1CgtREVjVMVa8JbDerJUHKnVdqwazVtmMlV0tVGXGygNWftZq8p1f40d8eAK4QhAEQRAEQRCbpZkZU/nFLy1QEVRpsOI1GCu7RmBlVwtWwVqJuRJrpc1VmLPSYKUBSzVlrKQMVqEFjFUGVmys9KxVPWMlFbCSFjFW6nRAb628rXL950+YyikX8CM/PAFcIQiCIAiCICOf6p13munDjzCTbyWQUmD1ljrGircERsbKtpCxCmDFazBW9O8DlbHygJU8HZCMVbQlkIBKAxYBVR1zVeB0wHGetYqMVbQlkGDKr2MBrPwaGStac8ZqzILV+Is+aar3bOVHf3gCuEIQBEEQBEFGNwsLZu6ss8wEmaq3LjdWvspYOWuljJWzVgJW2ljx6sDKNjp23TY6dp0BK7JWHqwya+XByhurDLBkzkoAi6yVM1cKrFzl2HWpOsRimbly1ooqYKUAK8xZCWBxo0MsbHkroFTASqzV9Od/zE/AcAVwhSAIgiAIgoxkqnffbWaOPNKC1VsdWDnAcmClAUuZq2CseEtgvdMBtblyQCUrlWBKVirBlKxUAioPVklj1WzWqpGxslAVzVoljJWcDhiMVf50QAKqCKwIpvwaXc/KrcpY0crGitaFazfwszBcAVwhCIIgCIIgo5WlJTP3u3MsUBFUebCSOasMsLy1io9dZ8ASY8WAFc9ZUdlWhQpYacDiEljVM1bBWhFUcesYqyKzVmKsgq3KG6tgrQiqGK6aGasAWFwGq2zOisrGircETn/ye/xEDF8AVwiCIAiCIMjIpLZtm5k59hhvqhismhorB1YEU7wuM1bKXDmwygBLzJWAVbiulYDVaw404wJYPGu17LpWr/SAlRkrWQWsEuYqAiu7ylbA1KzVSxmwxFwdwIBlwWrCgZUGrI/761opsJLTAQWs6p0OKOZq/vJb+dkYvgCuEARBEARBkJHI4n33makPfrChsZI5qxis0sZKDrHIrJWFqMhaiamSEkzpEkxxGayaGitumLGiFjFWtnLsejBWbksgVxurYK0sREXWykJUZK0IpnTZVimw0sZq/J8/aaY+/C1+NoYzgCsEQRAEQRBk6LNw/fVm4q1vMZNve6syVglzFYGVXQWsms1asbHKz1plgEUwpQGLYMquCWNVd9aqiLHKz1pFYJUzVolZqwBWNGtV53pWkbHKz1o1MFa0zl98Ez8jwxnAFYIgCIIgCDLUmfv1rx1UuYqxYmu1zFi5VRkrtxY0VsFaWYiSNjNWrmyrQtlWNTNWGqxsM2NlVwtWmbGya71ZKwIqba7CnJUGKw1YqtpaMViFClgpczX92R/xMzK8AVwhCIIgCIIgQ5u5n59RzFjlZ60isGpgrFLXtVLGKsxY5Y1VACw1Y8Vg1fR0QG2sXkFAlTBWvCUwMla2zYzVRP50wAM+7mesEsZKtgImTwcMYOWNFW0JrN5yHz8rwxvAFYIgCIIgCDKUmTvnnLSxUmAl1krAiqAqaaxsPVhxyVhpcxXmrDKwyipgxdXWKgIrgioPVnlz5cGKoEqBlW1q1ioyVs5asa3SxkoabQXktZmxys9aNTBWdE0rAquZE87mZ2W4A7hCEARBEARBhi7V9XeaibcpY/U2C1TBXDUwVmFLIBsrBqxCxkqB1eTrCKQ0WBFMyUplYxW2BCpj5cAqYaw0WJGxCmDFazBWdnVQlTNXiVkrD1TqulYOrDRgEUz5dSyAlV0tVGXGygNWvVmr8f/4vFl85Cl+ZoY7gCsEQRAEQRBkuLK4aGaO+ooyVlKCKV0BKw1YbK7U6YCyJTBYK22spEWMVX7WqoCxCo3AKm2ssq2AbKz06YAOrgisuAJWUgEraRFj5awVla2VMlfeWHnAqpxxGT8xwx/AFYIgCIIgCDJUmTv39xlY5Y3VWy1IabB6S0FjlTodUJkrD1ZySqCAFa/BWPk1M1YesJKnA5Kx0ubKAZUCLG2sAljxWsRY8axVZKyiLYEEU36NjJVdo9MBaa1jrNwhFkN8weBUAFcIgiAIgiDIUGX6iMM9XKlZKw9Wy42VLwMWGSupMlfeWmVglVXASgMWN9oSyIAVWSsPVpm18mAl1krAyhurDLBozsrNWimw8nNWvBVQqg6xWDZr5awVVcBKAVaYsxLA4kaHWNjmjJWAlTQcYrF+Cz8roxHAFYIgCIIgCDI0WdyyJZ61cmClAKvRrFUwVgxWKWOVn7UioJI1b6zCVkBZqQRUfk0aq2azVo2MlYWqYKx4S2C90wGDsUqcDhiDFcGUX90pgRas6s5a/bMyVxasKmdcys/K6ARwhSAIgiAIggxNoi2BoWKsNGB5axUfu54zVsFaEWCJraJqW0UVsNKAxY3AylYbq2Ct2FixtXLGiq1VDFYasAioNGBlxirYqryxCtaKoIrbzFgFwNLNjFWYscoZq6kR2w4oAVwhCIIgCIIgQ5P5c8+tfzqgNlcCVnpLoJirN+TM1etzs1avywDLGyv7bwarcF0rBVbjtApYySmBAlZkrl7pASszVrIKWCXMVQRWdpWtgKlZq5cyYIm5OoABy4LVhAMrDVgfT1/XSoFVs9MBx174iZHbDigBXCEIgiAIgiBDE2euGhgrmbNKng7Ih1iIsXJAFVkrC1GRtbIQFVkrgildgikug1UhY6XAyrWIsbKVrYDBWLktgdx6xkoqxiqyVgJUGViJsZILBkfGio5d/+dPmvlLbuZnY/QCuEIQBEEQBEGGJgurrmg8axWBVc5YNZu1el1u1oqMVYArgikNWARTdk0Yq0KzVvWMVbNZK22sErNWAaxo1qrO9awiY+VWD1ZNjZVd535zFT8ToxnAFYIgCIIgCDI0qe3e7Y2VslYNjZVbc8bKgRVXG6tgrSxERdbKQlRkrQimdNlWhbKtCsZKKmAlFbBKmCsLVpmxsmvRWStnrKQCVhqwVLW1yp0OKLNWY2yu6JpWs9/+HT8LoxvAFYIgCIIgCDJUmTn22OXGyq05YxXAqomxCrNW77YrwRQDlp6xyhurAFhqxorBqunpgNpYvaKgsUqdDmibN1YTqdMBtbF6SWasZCtgdjoggZUyVg6svLGaOvAb/Oj3NkvTc6Z6+8Om9tgeY+ar/J92L4ArBEEQBEEQZKgy9/tzsxkrtlYCVs5gBbCyqwUrsVYCWGKsBLDiOasMrLIKWHG1tYrAiqDKg1VsrgSsChgrV2WsnLViW9XIWEkjsOI1b6zys1baWDlrFRsrmrPqZRbv3W4qp60yU+//gRl7zud9/476BTP9uTPN/KXr+X/Z+QCuEARBEARBkKHK0syMmT7sc2ljFbYEsrHiLYGFjJUCq8nXWYiKwIpgSlYqG6uwJZCNVd5cObBSgNVo1ioYK7vyVsBms1YeqNR1rRxQKcBSs1ZjAaz8Wvd6VrlZq16l9tjTZuaY31qY+pwZe+7nzX4HVl8w+wms3PoFC1hfNPv/9gtm5shz+P/V2QCuEARBEARBkKHLwtXXKLDSgMXGitaUsZKKsZIWMVaNZq3qGKtQASvbGKwyY5VtBWRjpU8HdHBFYMVNGiupgJVtdIiFbXTsOkGVB6vMWnmwEmvVq8z98Sb7OH3VQpUHq2CsGLDIWrlasBr72y+6Th10Gv+/OxfAFYIgCIIgCDKUmfn68R6w6l3PqtGslYOqzFx5sJJTAgWseOYqGCu/ZsbKrhasxFgJYNU9HTDaEqiMVQArXrWxojVlrHjWKjJWEVgRTPl1mbFyYKVmrfrIWC1uedJMf/FMM/Y8gioxVna1UJUZK7tasCJjJeaK4Gr/33zRzP12HX+mzgRwhSAIgiAIggxlFu9/wEy++33eXKlDLFwFrIK1ysAqq4CVBixudIgFA5a2Vo1mrSxUCVjJyYACVjRnlZ+1clWHWPg5K94KGKwVlaCK4Uqbq5SxCoDFjQ6xsM0ZKwEraS8yf+Et9j4cyVDV2FjJlkCxVgRWY397uBn7m8PN/OV38WcsP4ArBEEQBEEQZGizsGq1MlcFjFWdWau8sWo0axWua8XGqunpgEWNldsSSDAlqzJWtJKpiowVA1YAKw1YBFN2VWDlTgm0YNVo1mriNUfwI9vdVH58uYWpzy43VvlZqzrGisDKrRauJl7/HbM0McufudwArhAEQRAEQZChTuWMXzJY5YxVsFYEWNxmxioAlq6AlW0jY8XWSs9ZxWAVG6v8rJUYq2jWShurYK0IsLhhS6BAlYCVLtuq0MxY6RmrqQ+eyI9o90IQNHPk2R6qFFjF1iozVr7KWLmVwMpbq/3PtuuzjzCzP1jFX6HcAK4QBEEQBEGQoc/sN77lwYrM1Rty5ur1uVmr12WA5Y1VBljhulYKrMbJXAlYkbESwBJz9UoPWMFcFTkdMAIru8pWQDFXDFZirgSsnLlSxmoiYazGokMsMmMlYJUyVjNHdP4wiHwW73/cAt0PzH5trJ6XGSsBq9TpgDFYeWPlwOpvjvDr3x9lFjc/wV+pvACuEARBEARBkJHI7Le/FxkrB1R5YyUVYxVZKwGqDKyCsXIlmOIyWCWNlQIrV22sbJPGyla2AgZj5cCK28hYKbCKrZUAVQZWwVi5emM1e/Lv+BHsXhauucc+Nv9lYUpvBZQKWHFpK6A2VwGsCKoYrJS52v9sC1jPOsIC90X81coL4ApBEARBEAQZmcz9+reZscrPWr1OzVrljFXdWauEsSo8a1XvelbaWOVnrXLGSk4HlFmrAFYvJahiwNIzVnlj5VYPVtmsFYPVAZ82c+dczY9c9zL3hxvN2N9biNJgRcaKwarR9az8qoxV3lw5sPLr2POPMbXte/irlhPAFYIgCIIgCDJSmTvnj8WMlQarvLUSsJLWm7VyYMVrMFZSASsNWJm5yoyVXWnWSqyVmCuxVtpcOaCSClhpwNJV1ip3OuDUISeb6t0P8SPWvVR+coUFK4KqAsYqMWsVjJWzVgRWmbFyYEVQxeZq/7O+ZGZ/cCV/5XICuEIQBEEQBEFGLg6wxFiFWSs+HVDPWL2OYIoBSxursCVQzVi5FjBWGqxeUdBY8ZbAyFjZ5o3VRN5YHUAQpcDqJZmxkq2AeWM1+8M/GrNQ5Ueqe5k58Q85sPKrGKux1OmAtDY5HTCatWKwGrNgRevEa77DX72cAK4QBEEQBEGQkczCFVeZiTdacBJjpc1VmLPSYMXVxspZKwErgioPVqERWC03Vr45YxXAyq9iq2RLYNJYSSOw4rWRsXLWytuqybcfYxauvoMfne5laWLGTB/+SwVWGrC40SEWtnzsulTAShrAisyVm7PKwErqAOuZXzLVux/jW9J+AFcIgiAIgiDIyKa6/m4z9dHDll3PyhmrAFa8BmPFgMWzVrIlMDlr5cBKAZYDKw1YylwFY2VX3grYbNZqPLqulYCVAiw1azUWwMqv+npWlR/+0dR27edHpXupPbrbTH34hxlYqVmrpsYqbAXktYixerY3VgJWY8/6sqmcdg3fmvYDuEIQBEEQBEFGOrUdT5iZo76RGSs9a6WNVaPTAZ21YluljFWogJVtDFaZscq2ArKxYrAKc1baXDljJRWw0oClK8bKNjp2/WAzc/TpZnHjI/xIdDfVOx4yE2/+hgeryFoRTOkSTOlmxmqskbESwCKwso22BFqwkk594HS+Re0HcIUgCIIgCIIg8wumcuY5ZvJNFoqUsfLXtRKw8qubsUoYK9kSmJy1cmDFa95YBbDiVRsrWosaqwisCKb8usxYWaiaOvhbZuHaO/nOdz/zl99hb48FHQdVhym4ImOlAYuva2WhKjJXshUwNWv17Jy54tMBM7BS5uqZXzZj//hVvlXtB3CFIAiCIAiCIJzFLVvN7Ld+5MAqMlcEVtpaRYdYEFR5sBJrJWAlJwMKWMmclTZXruoQCz9nxVsB88YqslYEWAJXGqw0YOkebKYP/a6Zv+Jmvre9ydyvrrEwxUAVWSsLUZG10rbKg1WYsXJrzlhZsCKoyhsrua6VAyplrQis9lP/+sum9ng5WyIBVwiCIAiCIAiSS3XdbWb6C1+NjFW2FdCvyRmrIqcDKrCKjFWzWauXZubKGysGrABWGrAIpuzKWwFnjj3dLKy7l+9d7zL7nQs8WP0DwVRsrOR0wMhYNZu10saq2axVzljt/2tZv2wWrr6Pb2F7AVwhCIIgCIIgSJ0sXHODmTnyRAYr20bGiq1VmLPSWwITxio/a5WVbVXeWAVrZSEqslYWoiJr5U3VxGs/b2b/+7dmcdNWvje9y9L4tJn+Ep0I2MBYKbAKzRmrUAErba4IrPLmyhkrv2pr5evBilr5UTkXSwZcIQiCIAiCIEiTVO+428yedIo3VgJYYq5e6QErmKsipwNGYNXEWAlgkbGiWStlrNx1rXLGauqQb5r5P1xjlvaO863vbRa3PGGmDvq+A6txMlYCWARWf5+bsXpeZqwErOoaKwdWBYyVAywPVHQ6oDZWY3/9FbP/r75sZr7yR7617QVwhSAIgiAIgiAFs7jlETP3uz+Z6S+f5MCqmbFy1cbKtp6x8mClS2DFJWPlDrHgamNlO/HWI8zsiWea6q0b+Zb2R+jgiolXHmPG/oG2AhJUabDiNRgrqYAVd5m1yozVWMJYhRkrXsVYjSWMle9XzOT7yzkxEHCFIAiCIAiCIC2k9tRus3DFWjNz4qlm6n2fWz5rVe96VtpYMWDVM1ZhxopPBwzG6j8OMdNf+qGZO/eqvtj2l8rsDy82Y89nqEoYqwisyFgxWLkZK1qDsfKAVfd0QG2uHFDpLYEEU8pc5WatxFxNvOzbfKvbC+AKQRAEQRAEQUrI4tbtZv7SNWb25DPM1Ee+osBKA5YyV8FY2dWCVWSt1KzVxMsPNlMfP97MfutMM3fe1aZ61wP8FfsztW27zPRhP81slTZWUgEracpYLZu1UsbKWavYWDmgso2Mla2AVcpY7f+rrGUEcIUgCIIgCIIgnUi1amq795rFBx8x1VvuNvOXX2/mfnuJqfzqQjP3q4tCK7SedbGZ+8OVZv6StWbhqpvNwg0bTPWOTaa2/Sn+ZIORhavvMhOv/S82Voea8QiseA3Gyq9irMbqnQ5YxFjlZ60cWNU3Vh6sxFxRj+R70F4AVwiCIAiCIAiCtJ3KTy63UHWogypfAiyBKw1WGrC40SEWtrwVUCpgJQ1gRebKzVll5spbqwyssgpY2VqwiszVX8JcIQiCIAiCIAjS41Tv2mqmv/AzD1R5Y9Vg1qqpsQpbAWUtYKxSpwMGc5XNWGljRWA1BnOFIAiCIAiCIEivsrR3wsx+/0Jvq6TaWAVrRVDFcJU3VgGwdDNjJdezShorASw2VtGWwHrGylXASgMW4ApBEARBEARBkB5k/vx1ZuJNXzfjLyCo+kwAq3EyV3/PgBWMlawerKLrWjljZVcLVZG5kq2ARWatWjgdUMCKjBWZq/GXfovvWXsBXCEIgiAIgiAIUijV2x8004ee5oHKgRW3kbFSYBVbKwtRkbViW0Vg5dacsbJgRVCVN1bhulYEVFIBq8haaVtF9caKOvnun/I9bC+AKwRBEARBEARBGqa2c7+Z/c4fzfgLyFJ9JhircW2sBLBSs1YOqmT1YOWMlVs9WCVnrRoZq/ysVQFjJbNWYqwErqa/cC7f0/YCuEIQBEEQBEEQJJmlsWlT+fkqM/Gao80YgZUrgZUuwRQ3aaykAlYZYAVrlTsdUGat5LpWAazy5soZK7+KscqqrZWttlYKrKizJ1/J97i9AK4QBEEQBEEQBImyNDNn5s662ky+6asWpj5txv/Rg1U0Y2WbN1bjidMB92uwel5mrGQrYOHTAR1YJYyVAywPVO50QG2snkkwRf/2UBWMFW8JHPvLo8z+Zxxp5i/cwPe8vQCuEARBEARBEATxqS6aud+vNZPvON4C1afNGDUYK662VvVmrRxY8drIWDFgxdYqM1Zj9YyVrQBWmLEK5opNVagHq8xaZcbK9RlHmcX7nuQHoL0ArhAEQRAEQRBk1FNbMvMX3GimDjzJAZU3VcuNlV+VsQpbAgmmBKwUYKlZK7muVZi1CsbKrhaqCp0O6MBKmSsHVMpcNZq1CsaKAesZ9G9vrsxijR+I9gK4QhAEQRAEQZARzVJl3sz9Ya2ZJKj6J2+qgrFisMrqwaqhsZIKWEmLGKuwFZBbxFjZZsbK1oJVZK7UseveWjFYBWt1pJl49ff50Wg/gCsEQRAEQRAEGbEsTcyYubOvNpPvPM5C1afMuAMrWXPmKnE6oDdWh5pxAavU6YC8irEaq3c6oDZWtKaMVX7WyoFVQWPlwIpgimeulLGiLYHTX/gDPyrtB3CFIAiCIAiCICOS2p5xU/nlFWbizcea8Rd+yoGVqwIrVwtWkbVSh1gsM1cOqjRYKcAKc1YCWFwGK7FWshVQGh1iYaFKmytvrTKwysq2SoyVnrVKGCsCK+rc2bfwo9N+AFcIgiAIgiAIMuRZmpj2UPX6I83YCz8ZwKqhsbJQFc1aFTFWf28hKm+seG14PauwJZCNFa0pYxWdDpgwVwxWYq4ErKLrWuXM1eKmcg6zoACuEARBEARBEGRIszS3YObOudpMvu2/LFB9MgdWGrB02VY1M1bBWhFUMVw1M1YMWGHOisEqaaxkSyAbq3hLoIeqZcbKlcBKl2CKq4wVdfzF3+JHqpwArhAEQRAEQRBkCDN//nVm6sDjLVB9woz/swarhLlisArmisFKzJWAlTsl8O8ZsMRc5U4H3M+nA2bGyq4WqiJzJVsBxVwJWKVmrZ6lzFU9Y5WbtRKwamSs9v/FUWbm8PP40SongCsEQRAEQRAEGaIsbn3STH/2Rw6opAGsGKpSxkq2AmYlsOKGLYFcbawUWMXWykJUZK3YVhFYuTVnrCxYEVTljZXMWQVjpcEqslZiqqQEU7qZsSKw2v+Mo83C6vv4USsngCsEQRAEQRAEGZIsXH2nmXjDV8z4iwioChir/KwVg1X+dMBwXSttrPKzVilj5VYPVslZq0bGqu6sVX1jJacDBmMVAItgyq4KrMZfWd4R7BLAFYIgCIIgCIIMQSqnX2zG/pmBKmGsIrCKrJW2Vdx6s1YOrHgNxkoqYJUBVmatbNlauQpYaXNFYJU3Vw6o/BrPWVG1taKKsbJtcDqgANbsyav5kSsvgCsEQRAEQRAEGfDMHP0zD1ZkrASwCKz+OWesXkgwlTBWDFjRjJVt3liNJ4zVfg1Wz8uMlWwFLHQ6YACrJsbqWRaigrn6sl0JpjKwyhurMTFWYUvg0WYfmau/ONosbnyCH73yArhCEARBEARBkAGOA6sXEVgRVGmwUubKGSu/irWSQyyWWysPVpGxkkZgxWszY6Vmrby1yozVWD1jZSuAFWasgrkSUyX1YJXVg1VmrQSsCKo8WM0cfRE/euWmr+BqYWHB7Hn6adcHN29u2kceeij87xEEQRAEQRBk1DL3u2sYrBLGSoMVGSsHWAxW/0QgpcyVg6rls1ZyXasYrBRgObDyq1zXKjlrZaGq8OmA0ZZAgillrhrNWgVjRf8mqKJ/E1QxYPGsFa2dsFaUnsHVzPS02fHoow6SbrruOnPFn/5kLj7vvLZLn2vT3Xe7zz0+NsZfDelk6HHe+eSTAXpvv/lm9zw0Kj1HGpDxXLUW+j5K/UGiyHNAveuOO9z/nr5f6HPQHziQ/kltcdGM799vHn/sMXP/pk3mtptuMtddc4256vLLzWUXXpj8GSi9ZtUqc8uNN5r77r3XPLp1q9mze7eZnZ3lz4z0Wxbtcz01OWme3rXLPLZtm3ngvvvM5o0bzUb7s/Ke9evNhttvN3fccou5dd06c9P115st999vttqfn9sfecS9Puhn8NP2OZ6emuLPiKwk8/PzZsf27Wb9bbfxf4IgA5KFqpl445GxsbJdZqx4XWasls1aEUyppoyVVMBKWsRYha2AWSOwstVgJc2MlVRZK3XsumujWStnrY7qmLWidBWu6Ic/vam+7uqrk28GOlGCNnoDSW8e6Y0o0l4Eijv1PNLnpOdLoAvxIfjUf4zo5PeQPAf4nulu6I31U0884d5UExwTHKWen3ZLULb2qqvcG3UCNoIupHuZnJgwTz7+uHue6Tmg77dVl1ySfK7aKb1+brVwvfGuu8wTO3bgDyeJLFarZrsFWXoe5A+89PMVQQYptSf2OLDKDrFQ5soBlQIsB1bKXOlZqwbGalzAKj9r5aDKr2KsxoqcDkhrEWOVOh0wmKvlpwOKsXIzV9pY2dXNWLGxGnvOcWbxvif5ESw/HYcrelNIb8TLMlPtln6R0Rt3vGksHnkOO/mGvlHplx09Z6Nkt+i+Ckj1+nuHnne6LfieKTf0Bpve+N6wZk1TC9XpXn7RRe4NJr3RnJub41uItBsCmp1PPeXM05rVq5OPfTdL1ots1yj9LM1naWnJbNu61dx+003J7zvAFTJoqa7fEqyVgNW4A6vYXLkqsHK1YBVZK3WIhbdWVIIqhqsIrBRghTkrASwug5VYK9kKuMxY2eZnrQoZK1cBK1t1iMUyYxWs1dGmclpnv887Blf0V2/6IZX/wdVPpTeNdDvxF73loceEgObqK65IPna9Kt0eAr1he3NAjze9FskY9csfIlKl72l8z7QW2vZF9v7OW2/tOUw1K70J371zJ99yZCXZv2+fefjBB81t9jFMPbb9Urp9BH6jEvrDAZm8S84/P/l4SEcJrsp8jwYo7V1qT+1tPmvVyFhZqArGKmwJJKBqYKzoelbaWD3PQhSDVVNjlZ+1erYyVw6qlLmqN2vFYCXmSsAqnBIoYJWYtZp818/4ketcSocreuPVb2/Im1W2DuIv837bHz0Wqcep30qvMwLAQX6jT2+2B+Xx1qXvGbJZgKzGoT8CPPTAA25G5tILLkg+lv1c2lr28JYteJ6bhLb60fO8bu3a5OPYzx1myKIZqpvt917qftcr4Kq1Aq56m2xL4HJjJacDRsbKlW1VM2MVrBVBFbeZsWLAys9aFTFWEVhF1kpMlZTASpdgihvAisvGirpw3YP8qHUupcEVzcf0attYmaUfEKM46zNIUJUq3fZBsVn0WJN9G7Q/QqQqkIVkmRgfdwcR0KETqcdsEEvbBmk7GW2pQnxmZmbMtocfdoeGpB6zQSttkxvbv5/v3eCGttuuFKh0AVetFXDV28wcdYYFqgKzVgxW9U4HFLDKX9fKmavc6YD7+XTAzFjJKsbKrrQVUJsrbazys1baWNGsVYHTAQWsihgrmrma/d7V/Ih1Nm3DFf1Fk4avU99sg1zZMjjsoeeP3uinHoNBbD/DMd2uYfxeoRIojvIBJPR99NCDD5prr7wy+fgMS+kgDNr2NqqhE+Ues78XaD5tEE1ksxJEk4EbtNAOANrKmrpPKy3gqrUCrnqb+QtvjMGKoSplrGQrYFYCKy4BlQMrbj1jJRVjFVmrzFYJWAVj5VZvqyKwYmsVGSsNVpG1shAVWSuCKV2CKS6Dlbum1Tcu40er82kLrujNVD/Ph5RRetM4rJBFJ5MNgz1JlX7Q98s2T3r9DIPVLVIC9VHaQjZtX2P3btjQ9zNUZZcOaKhWq/woDH8qlYo73W/1pZcmH49h68033GD2DtAfSwAJrQWP2/BkaWzKTL7za/WNVbNZq0bGKj9rVcRY5WetGhmrMGvFxirMWlmwehbB1HJjJacDBmMVAItgyq4RWB1lJt/d+TkrnZbhaphsR5HSD45h+cs8vfkd5C2AKyndz1692R/E+cMySiA57KeREbjTwRSp+z8qJYs1OzPDj8hwZtSgKt9HHn6YH4n+DiChteBxG67MX3xTctZKrmvlupLTAbW5csZKKmCVAVY0a8XWylXASsxVvVkrB1Z+jeesqNpaUcVYcbW1ErDS5uovjuZHqHtZMVzRG9Vh3dpUpP1iQ1oNvekdFYsipQuvdjOjClW6ZLRp+9SwhbaF0fHpw7glrJWuuvhiMzaE2wRHHap06fXe7wEktBY8bsOXma/8zIPVCwmmmhsr2RIYGSvb8YSx2q/B6nmZsXJA9dw6xsqtOWPlwKqAsaJVjNUzCaQysMobqzExVmFLoJ+xIrBaqnT/D+wrgisCq1F7Y65LV8of5NCb3WHfxplqN40jvUZSt2FUO0yARdfGGcXvnyJ9fPt2fpQGOwsWngFVy0uHXfRzAAmtBY/b8GWpMm+mPnJyZKzkEIvodEBnrTxYNTRW0giseM0bKzVr5a1VZqxcU8bKNm+sBLBWdDpgsFZUgirf2lPj/Mh0N4XhatTB6urLL+/Z9rIyQkeWp+7XsHfDHXfwI9CdkBlM3Y5R7qADFp3+Rxf6Td03NCsd2T7IoVPmaKtj6r6h57lTEfs1gITWgsdtOLO0d8JMvOGYzFwFY2VX3gqYn7WS61pFYJU7HVBmrdx1rRrNWgVjxYBVZNbKAZUyVw6s6s9aebCyq0BVYtZqcXPvLjFRCK5GHayodPjDoGZU5qtS7cU2zjJ/YQ1LBxGwarWaO1K92UVH0ayD+DzPVSruUJLU/UHjktXrxwASWgset+FNbcfTZvyFFqRSxkqfDujgisCKW89YSYOxkpXLx65LBayk0ZZAC1UarKSZsZIqa6WOXXcVsIqsFUGVb3XDY/xI9CaF4KqbM1b0DUpbq+iXNG3nqvfmmAwB/fdU+t/SD/0yf1Dodntmp8x0G6zk+aPnQ54f/RwSqMt/TqVr58hzR3Yw9TlbbbetlYRej6nbU2bpjx36sabHUT+u+dIfB+h/R49Jr/5QMkh/oHh61y5zTQ/m5tasXm023H67M830vJE1o0MjUifz0Ra2Pbt3m61btrjv8375A9iuAbog7eOPPdbT4/OvuPhic/0117jDUe7ftMls37Zt2feuLl0Ud8v995u71693Jolm3lKft5Pd/sgj/Oj1T8r83U+fa1SCx224s/jAjnjWShsrWpWxGhewys9aOajyqxgrAauGpwPSWsRY5WetCKiCuapvrNzM1TMYsMRc/cWRZvLtPzGmWuNHoHdpClf0pi31jVRWaYaB3vCV+caLfgnR7SYoandGgv7/g3qIRTfASj9/ZWybpMeaPhdBQzuwRberl9s4ywRF+lz0GMsfHMoIPTb0+ejztvs9UrT0dfr9FEE6sGL9bbclb3/ZvfKSS9zXIjjau2ePWVxc5FvRXnbv3OlMzJU9mhu63D7P01NTfGv6M3QB4LvuvDN5+ztZAin62fbEjh2lnbRI31N0ql83T68kKO2nABJaCx634U91/UPhEAs/Z0VlY+WsFZWgiuFKmysHVQxYDqykBFNcBqtmxkoawEpZq4bGylXAimBKAIurjNXsSVfwve59GsJVJ+dH6A0jvbnrRujNOoFW6nY0K0HaIKbTYEVvlMmEdBpgCLYElFO3o17ptvUy9PVTt6to6f7S90c3wF5Aq2xzmCrZlV5Cb6PQG8ZOm4DLLrrIAdXuXbv4q3Y29Cb+xh7Mi5EN6tfQRZC7Zavo9UTPN722Zmdn+RZ0Lvv27u3KHwfoYsP0tfolgITWgsdtNLI0M2cm3/NNB1beXFEJqPiUwJSxoutZBWOlAYtnrSxYZcaKIIvBqtmslYMqZa4KzloJWIVTApWxmnz36Wbh6s18b/sjDeGqE8dJ05vybkFVPvSmjt6oF90+Q/+7QUynbWOvwEUgoBlo9dpaUejrp25bo9IvJ7p/vbzt3YAs+st9P6Vi3/TeeuONydtaVulnKdmFXl14l45Lv+OWW5K3rVO97957+av3TwhqO30SIF1QWoCKTGgvsmvnTmfJUrevrBK098uFpAEJrQWP22ilcvrlaWMVrBVBFVeMVWSt2FaFZsbKd7mxanQ6oAMqaTNj5UowlXX8X79pKr9cx/euv1IXrtr9y3uq9Kaq1296JWTlmr1J7/ctTKnQm+PUfSmjBJv98piQ0aHXaAoE+sU20pa7/G3Ll0CQvi/6bespPbZ021K3uYyWtb2x3dDx6rSNLXUbyyh9z9ApdP2SnU8+2dU5ncmJCf7KvQ89DwQ+qdtZRumkQZqH6qctkZ0G6ns2bOCv1NsAEloLHrfRy/yltzmwiq5rZcHKXdcqdzpg0lgFwFLGisGqobGiWSttrGjWqoixYsCKjNWzjzEzX7/Y1B7fz/eq/5KEK3qjV+YbK/pc/TrMTm/yUj9g+u2v60VC4NOpN8T9/Hjo55Bgq1/SaFstvenulcEtGrr9RS3vSttrKzxtf8atK/GNRb5kDXb26cEOdDrezddfn7zdZffuO+/kr9rb0EERqdtXRunAJ9p+2a959JFHkre7rD66dSt/pd4FkNBa8LiNZqrrHzaT7zu5ubFSYBVbq8xWCVgFY+VWb6sisGJrlTJWDqikYqwia8Wm6t++ZWa/u9osbu2PP842ShKuivzFvWjpzf4gGKD8G/R+MWxFQ7e3U2+E+x0CJPRHgX4xIpL8Ly/6uN9uY6PQ66rMX8C6vXpd0UmAqdtTRmmWp1//kJTPg5s3J+9D2Z2fm+Ov2JvQgSGp29VOaeZo8733DsTvNgr9zEndjzJKJrTXhrLMn1H0uUYleNxGO/NXrjfTh52eAVZu1ipvrJqeDshgtcxYhVkrNlZh1sqC1bMIppYbKzkdkIzVxNtPNXNn32yWJit8y/s/y+CK3kylvnFa6aCAlQ79Ehq020zpxAEW9PwNClj1a2SbJv3iGSSoyqfMP7hIaQ6pF+nEBbXpe4W2GA5ayLik7k+Z3fbww/zVup9ObG+nWaN+OsyhaHbwz6JOlH4+9DKAhNaCxw2hVO94yMx87Xdm7B8tFEVglQFWZq08WIU5K9kKKOaqwKxVNmMlFWMl9WA1/amzLABu5Fs5WFkGV2X+MhqUv+AOeuhxTj3+7RZgVU4GGap0yvxFLO3Fa6xsuKLrUvXq4IIyQnNYqftVVm9cu5a/UvdTNlzREfeDnE7AprSXs4WAhNaCxw3RWXxkl6n86DIz8dZvWsDKzVg9t6CxcmvOWDmwshCVN1a0irF6pgWqvzvaTL3/dDP7zctMdf12vlWDmWVwVdbMTq//kjUqIdNY1nOmC7BC8unE1tNezF7RqX2p29JKaUvUMGTTPfck719ZnevR1sAyYaLfru3Uajphoak0Z1jWtdpWGkBCa8HjhtRLbfvTZv7i283MCeeZyXd/d7mxCoDljZVrEWNlK4A1/q/Hm+lDzzZzv7zBVG/bapame7uFvMxEcFXWvmx6s09vxJDOpxO/KAf12l5I50NbZlOvmXba7W24gKt01qxenbyPZbRXVqNMuBoWA03Hp3fqMBd6vHsRQEJrweOGFA1dK2vhpgdM5bQrzczx55npz55pJt/3IzPxmpPM2D8emZkrASs2V+MHHGcm3vxdM/XRM8z0l35nZr9zmZk7/3ZT2zYcP0/rJYIrOhEu9U2z0vbqB+yopSwY1qXj6RGkUcreWtTtkygBV+nQtbBS97GM9uq0UcBVOvQHDbqgdep+tlOao+zFta8ACa0FjxtSVpZm5k3tsb2metejZvGBJ01tzyT/N6OZCK7Kumhwv12zZ1hT9hatQTwlEelNyrzQcLe3BpY5c0WWfphy9/r1yfvZbuno914EcFU/dE2u1P1st704wASQ0FrwuCFIZxLgqqxTAnsxQzGKkVPoyuwgnpKI9CZlv/66+QcZwFX90DWwLjn//OR9bafX9OhkSMBV/SwtLZkb1qxJ3td2esO11/JX6F4ACa0FjxuCdCYBrsraYoYtgd1JWZZROogXTUZ6mzLtVTdPFi0VroZoW6CETj9M3dd224sArhqnUydFdvuiyoCE1oLHDUE6kwBXdIhB6htmpcUpc51P2dYAB5AgraTMN67d/KMM4KpxxvbvT97Xdlvtwc+Y+zdtSt6WVjqMcEVZt3Zt8v6201vXrePP3p0AEloLHjcE6UwCXJV16tyw/gLqp5RtrXA9MqSVlHlyYDcPUsG2wOa5ZtWq5P1tp7MzM/zZuxfAVfPQxa9T97fddnObOSChteBxQ5DOJMBVWd9kgKvOpmxrhR+ISDspa2tgN1+HMFfNU6aVlE6Mj/Nn714AV81DuxauKnGLr7SbNhqQ0FrwuCFIZwK4GrCUfUIgni+knZBxSr2uVtpuGiCYq+bZt2dP8v62014cmAO4KpZ7N2xI3ud2StdN61YACa0FjxuCdCaAqwFKmduwqPhhiLSbMg1HtwK4ap7FxcXSTw0EXPVv6CLPqfvcbunAjG4EkNBa8LghSGdSOlxhfqdzKesiz1KAMNJu6Ps99dpqpd0K4KpY1l51VfI+t1rAVf+mVqu5La6p+91O6eTJbgSQ0FrwuCFIZ1I6XOFI786F3silHvNWSrMyCNJu6A1n6vXVSrsVwFWx3Hnrrcn73GoBV/2dO265JXm/2+mVl17qrqfV6QASWgseNwTpTEqHK1xEuDMp0xBQ6eh9BGk3gKvhhav77r03eZ9bbU/gauPG5G1ppcMOV49t25a83+326V27+Ct0LoCE1oLHDUE6k9Lhijrsv4R6kbIODpDiulZIGQFcDS9cbXv44eR9brW9gKvNgKvCod8Jqfvdbuk56HQACa0FjxuCdCYdgSt8k5Wbsn/p0TXNEKSMAK6GF67KPuQAcNX/uen665P3vZ3esGYNf/bOBe9fWgseNwTpTAJclX1dE2w7Ky/0WKYe41aLQ0eQsgK4Gl642r1rV/I+t1rAVf/n4QcfTN73dlvt8E4JQEJrweOGIJ1JgKuyL05Lpc+JtJ8yfwAO85tBpPsBXA3v99P+vXuT97nVAq76P2UDtXTnU0/xV+hMAAmtBY8bgnQmAa7KfJOkC8BqP6nHtdViSyBSZgYSrkqcJVp18cX8WYcvE+PjyfvcaunzdTuAq5VlrlJJ3vd2++DmzfwVOhNAQmvB44b0a2pPjpnqrY+Y6i1Zl2bm+b/t/wS4otBfYVPfNO32LvuGHgcotJayoRdbApEyM5BwBXNVKGXDFczVYISOT0/d/3Z6+80382fvTAAJrQWPG9IvWXxgp5n9zpVm4o2nmrHnHGf2/8UxZt+fH232/7ld/+8xdj3W7Ps/x5ipg84yldNvNIubunOB8lYTwRVZjdQ3TRm9+oorRuaXU5kpexYOQcoM4ApwVbQ9gasSj5Mfld9ft9xwQ/L+t1P6/d/JABJaCx43pNdZWPOAmf78uRamjrIlmLKV1YLVfgKrUAKsY81+6l8fZ2ZPvsYsjc/yZ+qvRHDVibmrfOkbsBe/ZAc1+OGH9HMAV4CrogVcDUbKvr6ZtJO7V/B7srXgcUN6lert28zUZ84x+59BMKXBShsrWQWseP3/CLD+y60TLz/FzF94D3/W/kkEV/TDr1NbA/OlbQIwWY1T9hHsZMEQpMwArgBXRdsLuCoTFEbl99WO7duT97/d7tm9m79C+QEktBY8bki3U9s5YWaOusBClQUqqoCVVIyVlMHK2apQAqv/Mvtt/fpVM/u9zl/yYSWJ4IpS9ja0ZqVvyB049CIZmo9KPWatFjCLlB3AFeCqaAFXg5Gyn3fp1i1b+CuUH0BCa8HjhnQz86vvMxOv/p6FqiMdWO0jsFLmSoyVANYyYxXAitf/14OVrP0EWMvgqpv2Spf2ZNObHhx8kQXzVki/B3AFuCpawNXgJHX/2+2G22/nz15+AAmtBY8b0q3M/veVZv9fElR5sMqslQcrD1RSMVbSzFoJWJG1cuaKwOr/JcD6qlsX1vbHNXaXwRWlbGOy0tLpgpjLKvcH33VXX82fFRmk0PcBvamjo4yptJ2WXhf9UnpdpV5vrbRbAVwVC+Aq7ijBVSf+wLpm9Wr+7OWHfhalvmYrpc81KsHjhnQ881Uz9enfWLAioGKwShmr/OmAZKqCucoZK94KmJkrAquvmX3/26/V9Tv4i/cuSbii3HbTTclvoG6W3riN8pZBsnmpx6WV4vpW/R+ytjuffNJsuvvuUn/pDUq7FcBVsQCu4o4SXJX5u0e3VqvxVyg3gITWgscN6WSWpubM1MG/Xm6sgrUiqCKgkmpb5cEqGCsGrGCsAmB5Y+XA6n8TYH3NjP/7Kaa2a5JvRW9SF67ojd7Vl1+e/CbqdukNDL3hHDWblXosWu1W+4YS6b/MTE+7N/ujCFP5diuAq2IZCri6557kbWmlowRXZRpp3f379vFXKDeAhNaCxw3pVJb2T5vJd56WgRWZq7+IzdW+P2fACsZKVjFWdlVg5cyVbAUUcyVgJeaKAOvPvmZmv7uWb0lvUheuKPTLsBPbA9qp2Kxhn82ixz51/1vtKL0xGISQoaItfqnnalTbrQCuigVwFXeUfoZ26o89jz7yCH+FcgNIaC143JBOpLZrwoy/+KQYrFLGSoFVbK0sRLG1KmSsHFhxLVjt/7Ovm7Hnf7en9qohXFF6PX9Vr/SmZphns8p+3HFQSH+E/jDQqS03g95uBXBVLMMAV5sAVy2lU3/42bxxI3+FcgNIaC143JCyU9uxz8LUV3JglTNWAlgEVjRrVe96VtpY5Wet6hir/f/76wGwemmvmsIVpRsXF26nw3jSIE4KHK4QLAOqGrdbAVwVC+Aq7ijBFf3hMvUYtNt7Nmzgr1BuAAmtBY8bUmYWNz7uoUq33qxVmLPyYFVv1so1GCveEkhgpc0VWysBrH0WrPb9r6+b8Zecwres+ykEV5R+Bywp/VIYhl+CdABF6v61UvzQ611opqrMX2DD3G4FcFUsgKu4owRXNOOcegza7Z233spfodwAEloLHjekrCw+8JSFKTZWtmNFjJUGqz8vaKzClkBlrBxYZcaKwGr/nx3n1oVre3PeQGG4otAvF3ozkfrG6rcOus3CD73BT5lv4keh3QrgqlgAV3FHCa7K3jkhvfXGG/krlBv8vmwteNyQMrI0Pmv2/1UGVk2NlZ61yhkrD1bSzFi55oyVzFlFxspWAGvf/zrOzBy7im9ld7MiuKLQL8h+OUWwaAfRZpX5Q49+USLdCwE9DqtYebsVwFWxAK7ijhJcPfTAA8nHoN3euGYNf4VyA0hoLXjckDIy/pKTLFwRVDWYtXJA5dfselayClhpwGJzJVsBVzBr5cyVBat9//PrZvzFP+Zb2d2sGK4o9OZxY4e2DXSyZLMG5aTBMo/CBVx1L/QGslPHGA97uxXAVbEMBVyV+HtqlOCqU9a9UxcSBiS0FjxuSLuZfM9PGKxUU8ZKKsZKymAVzVgpY5VtCWRj5daUseLVGSspAdZxZvH+XXxru5eW4EpCv2wGzWJR6Q0R2Syah+nXpG53q8U1rroTevM4KNtm+7HdCuCqWABXcUcJrrY/8kjyMWi3qy+7jL9CuQEktBY8bkg7mT783GCsxhLGys1YPYOgygNWmLEK5sqDVeFZqyLGimetvLmiHm/mL+jMKaWN0hZcUQbVYklp+1Yvfuk3S+q2ttpRelPQqwCs2m+3ArgqFsBV3FH6Obpj+/bkY9BuL7vwQv4K5QaQ0FrwuCGtZvb7q3nOqsGslYMqD1YeqKRirKSZtRKwkjmrRqcDugpYRdZKwMp39sRr+VZ3L23DlYQsUJkn3HW7/WayUrex1QKuOptegxX9UqPSHzloCyiVnvOy2ihl/nLuVgBXxTIMcFXmH/6afS8MU558/PHkY1BGa7Uaf5XyAkhoLXjckFYy98c7shmrsCWQgIrBKmWs1OmAzljR6YDBXDUxVmErIK9/psyVgyplrnjWSszV/v95vJl8/+/4lncvpcGVhH4BlfkN283SGyV649UPSd2+VjtKbwq6HTK33ZyxotfobTfdFACq1ynze71bAVwVC+Aq7ij9HN311FPJx6CMzs/N8VcpL4CE1oLHDVlpFu97wow938JLI2MVrBVBFbeZsWLACsYqAFYBYxWslQWqyFodb/b9P8eb8Zf+hG9991I6XEnoFxG9CUx9E/Z76c1yL94ISOgNe+p2tVrAVedS5i+nRqWvQ9ea67eUef+7FcBVsQCu4o7Sz9E9u3cnH4MyOj01xV+lvAASWgseN2SlmTrk1w6sxpqdDkjXteLTAbMZK1nFWMmqzFUEVnYVsErNWmljRbNWOWO17//xgLX/L77Jt7576RhcSWirHf2Vnd6EpL4h+7V0e3v1ZpZ+iaduU6sFXHUmdFBI6vEus7TVtpeg3yyAK8BV0QKuBie7d+1KPgZldGz/fv4q5QWQ0FrwuCErSeWM6/2clT4dMIAVt56xkoqxYmtVz1gRVGWzVjlj5Q6x4GpjFayVBSu2VtKl/bN8L7qTjsOVDsFKmd/M3SgNRHc7BKSp29JqAVflh56jTv7BoNf2tGjK/H7uVgBXxTIUcHXXXcnb0kpH6efoziefTD4GZXTfnj38VcoLIKG14HFDiqZ692Nm/3OOLWSsAmDJrFURY5WftYrAKmeswqwVG6swa3WcXTNjRVC1/39+w62LG3fyPelOugpXEnpjSn9RHJRj3OlEwW5fGyt1O1ot4Kr8lPlLSZferA/S0fllPg7dCuCqWABXcUfp5+gTO3YkH4MyOjkxwV+lvAASWgseN6Ropj78i+anA2pz5YyVVIyV1Fur0GCs7NrgdEABrGCstLkKc1YZWOkurN3K96Q76Qlc6dAvLNr61EkLUEbJJHQTsFK3odUCrsoNPZ6px7nd0musn06sLBLAFeCqaAFXgxPaZZJ6DMpopVLhr1JeAAmtBY8bUiSV067NjBVvCRzTxsr1aH9dK22sNFjR6YDaWP3fOsYqHGKhjJUDK4KpJsZKgZUYK+n8pZv53nQnPYcrCYEL/UDv50MwuglYqa/fagFX5ebqK65IPs7tlF733bajZQRwBbgqWsDV4OTRrVuTj0EZxVHs/RM8bkizVG/fZsaeZaHJWSsPVg2NlTQCK17DVkBpZqxctbFy1iphrGwFsIKx0rNWCqh0537X3RGfvoErHXqTSVujCGZS38S9LN2mbiT1tVstHSiClJNO/EV3kH8plfnLuVsBXBXLMMDVvYCrlrJ1y5bkY9BucRHh/goeN6RZpt7/M2WsGLBSs1YOqvyaXc9KVgErDVjKXAVjxYBV73RAba4cUClz5cBK1qxisCpn3Mb3qDvpS7jSkdMG+2k+i+bFOp0yt0kCrspL2cDfTRvaiQCuAFdFC7ganGx54IHkY9Bur7rsMv4K5QaQ0FrwuCGNUjnjOm+s+ux0QAdUUjFWDawVdfb7N/C96k76Hq506JcbzWelvrG73U4f017mDz16zJD2U/YpjtRevOEsM2W+TrsVwFWxAK7ijhJc3b9pU/IxaLdrr7qKv0K5ASS0FjxuSL0sPvK0GXvhcd07HTA1a5UyVgVPB5TKx3Nndvd98EDBlYT+0t9rm0Vvqjp5+AB+6PVfyrxmDnUYjGKZr9NuBXBVLICruKMEV2U+brrrOvS7CL8vWwseN6ReZo48j+esGKy0uRJrpc2VM1ZSMVZSb61Cg7HiLYHBWPGWQLZW+VkrMVdFTgfMd37Vg3zPupOBhCudp554otQfECtpJ3+Y0Bvv1NdspXQAA9J+ytyqSX8YGOTtgJIyv/e6FcBVsQwFXG3YkLwtrXSU4Gr9bbclH4N2S5c16UQACa0FjxuSysI19w386YD5j6t3P8n3rjsZeLiSkEWi7W9lvgEu0k5tDywTrqhIe6E3hqnHtdV2eltptwK4AlwVLeBqcHLrunXJx6Dd3tWhLeqAhNaCxw1JZfLdP2Fr5cGqobGSRmDFa9gKKM2Mlas2Vs5apY1VK6cD5lvbPcX3rjsZGriSyJbBbkFWp6wQGbnU12u1o/TGoBOh0ytTj2urHQZrRQFcAa6KFnA1OLlxzZrkY9BuN91zD3+FcgNIaC143JB8Kmdcr4wVA1Zq1spBlV/78XTA6OM/+wbfu+5l6OBKQm9eyWSlfgiU3U5YCJiS/kqZv4TodTksKfNx6VYAV8UyDHB1D+CqpaxZvTr5GLRbOuK9EwEktBY8boiOP8TCAok+HdDBFYEVt56xkjqwkmbWyoEVzVixtWo0a+WtFVWMlVSMlTQGq3od+6cf8T3sXoYWriT0C7HTB1906tpXqa/VaofpDX0vknpMW+0wgS7gCnBVtICrwcnqSy9NPgbtdu+ePfwVyg0gobXgcUN0Zo69IBgrN3OVM1ZuxkqdDhhmrIK58kBV+HTAIsYqN2vlgCqYq6yNZq4m3ngm38PuZejhitINi9WJkwPL/MHXrYsfD2PKPoK9k6dMdjtlvka7FcBVsQCu4o4SXNHFflOPQbut1Wr8FcoNIKG14HFDJIsPPGX2P8tCU6PTAR1UebDKrBUDViNjZcFK5qwaGisBLAKryFoRYAlcMWApkGrWqUPO53vZvYwEXEk6CVg0k1N2yr69wzLn0+3Qm6rU49lqhymAK8BV0QKuBiOVSiV5/9ttp65xRQEktBY8bohk9huXeLAKWwIJqHhNGSt1OmBy1kqBVdgSWGTWykFV81mroqcE0sczX1vN97J7GSm4opR9rSLpbTfdxF+hvJR9iAIdkoGsPGWe3Dhsv4DK/OXcrQCuimUo4Gr9+uRtaaWjAle7nnoqef/b7d133slfofwAEloLHjeEsrjtaTP2XAs8etZKG6tgrQiquGKsImuVGStfb6scWLk1bawisIqslYWoyFpl0LSSzv1mA9/T7mXk4IpS5g8UaSfeZNGbkdTXarWYu2otZcJVJyC8lynze6lbAVwVC+Aq7qjA1Zb770/e/3b76COP8FcoP4CE1oLHDaHMfvuK7LpWAlb50wHpulZ/zoDVyFjlZ60isLJrPWOVmrVq01jJvxfv28X3tHsZSbii7XGdOOSiE9vu6M1b6mu1UlxMuLWU+QuIQG2YUuZj060ArooFcBV3VOCKLvSbuv/ttpPPPyChteBxQ2pPjJnxf7Iwoo2VAytuI2MVrJWFKLZWAlZirQSsCKocWLnVG6swY+XAiitbAfPGSqoAqkj3/+W3+J52NyMJVxQ6sS31A6KdduKXL5mO1Ndqtb14gzPoKfMXEOCqfrsVwFWxAK7ijgpc0R/hUve/nV5yfmcHysv8OXTj2rX8WYc/gCuk8oOrLIA0NlYBsJbNWompklUZK7cqYxW2BBYwVmHW6ji7EiRlpwOuxFhRJ992Ft/T7mZk4YpStr3qxExT2XNXNHOGrCyAq/oBXAGuirYXcHU34GpFKftkVCldlLiTKfPn0LVXXsmfdfgDuBrtLFUWzPjLvu3BSpsrsVbaXDmgkoqxknprpWetPFjZtcHpgAJYwVoxYGXGSprB0ko78/XOHaTTKCMNV2WDSyfeOJf9yw5bA1cewFX9AK4AV0ULuOr/0B8IU/e93Xb6j3pl/hxadckl/FmHP4Cr0c78nzaEQyzGtLFyPdpf1yphrBxQ/fmxylxZoPq/BY0VbwmMjJVt0lgpsFqpsZKP5//Um/dcIw1X9Msy9UOi1XbqjXPZhm1UtreUFcBV/QCuAFdFC7jq/9DPp9R9b7ePP/YYf4XOpMyfQ9RRCeBqtDP1qbNz1krAiqCKwUoagRWvYSvgcmPlq4yVs1ZpYyVbAsOclTZX6hCLVlrbvp/vbXcz0nBFSf2QaLWdeuNc9vHxODVwZcEvoPop87HpVgBXxTIUcHXnncnb0kpHAa6uv+aa5H1vt3OVCn+FzqTMn0PU+bk5/szDHfxuG90sbtllgarYrFXD61mlZq2CsbKrbAVsNmvloEqZKwdU2ayVdCUGa/zFp/K97X4AV4kfEq22U3BFb0pSX6+d4oLCxVPmL6Drrr6aP+twBHAFuCpawFV/Z8/u3cn73W47PW9FKRuupiYn+TMPdwBXo5vKKddkxioPVqFirKRirKSZtYqPXWfAYmOVn7Xy1ooqxkrKtio0g6ZWOvXJC/nedj8jD1dl/nDp5JavsrcGDtv2tE6mbHM4TAFcAa6KFnDV39nUoQvsP/TAA/wVOpey4Wrfnj38mYc7gKvRzeQbfuiBSoGVm7HKG6u/sBAVzJUHqmjWShursBWQV22saE0Zq2jWyv5nDFbhulYMSisxVvJx5Ze3873tfgBXJf5woQMyOpWy98LTm0LYq2Ip+7EfpjdpgCvAVdECrvo3S0tL5ppVq5L3u93u37uXv0rnUva1ubZu2cKfebgDuBrNLFyzObNWYqykYqwiayWmSqqMFQOWzFnFh1jkjJVsCSSwiqwVAZaHqjKMFXX/M75lak9N8D3ufgBXJf5w6eQv304ckQt7VSz0vKYev1Y7TMfhA64AV0ULuOrfdOqUwG4da35Xic8z9dZ16/gzD3cAV6OZ6SP+kIEVmau/YMAKxkpWMVayirGyqwKrsCWw6KzV/8rNWv3P5bNW7Z4SOP2Zi/je9iYjD1c0A5P6QdFKO/3Lt+wLCsNeFUvZM2/DdBw+4ApwVbS9gKsy33QPM1zddccdyfvcbjdv3MhfobO57557kl+/1V524YWmtrjIn314A7gavdSeGDNjz7Gw08hYBWtlISqyVpmx8lXGyq05YxWOXc8Zq2CtLERF1soCUgnWijp/2f18j3sTHGiR+CHRajsNKmUbFCrsVbHQm+jU49dqe/FGsxMBXAGuihZw1Z+hk/xWXXxx8j6322495w9v2ZL8+u10986d/NmHN4Cr0cvcL2/0YJU4HVCMlQMruq5VkdMBI7BqYqzys1YdMFbUsX/9sTGLNb7HvclIw1WZRoIOnOhGyj7YgkpbDpHGKdsaDstx+IArwFXR9gSuSjQywwpXdOBE6v622ztvvZW/QufTiT88dsu69TKAq9HL5Lt+ymDFZbBKGqtgrSxEsbUKM1ZsrQSsCKocWLnVG6swY+XAiitbASNjJc1gqZ3OHN/7U5lHGq4ee/TR5A+JVkpvvruRMm+zlIaBkcahw0pSj107HQaoBVwBrooWcNV/oa1vNBeVur/tlua4upVqtZq8De2URgYW7ecd5gCuRivVW7YmjVXYEijGKsxaEWDVMVZuVcYqbAksYKzCrNVxdrVAFMxVe8ZKPq7evoPvce8y0nBVpo3o5va6TtirTp50OAwp03JKhwFqAVeAq6IFXPVfHt26NXlf2+31117LX6F76QQkDvu2ecDVaGX2G5dmYKXNVQArXoOxknprpWetPFjxGowVbwlkayWAFawVA1anjBV14i2/5nvb24wsXNF8VOoHRKvt5huHTtgrepOI7YGN0wmoHfQ3bIArwFXRAq76K/Tzng7XSd3XdvvoI4/wV+le7lm/Pnlb2umlF1xg9u/bx19h+AK4Gq1MvJ6ubSVgdbS/rlXCWDmgImPFYOWM1f8taKzCIRYEU2ysbPPXsxJz5cEqM1fSVg1W5afd247cKCMLVzTzkvoB0Uq7NW+l04k3+rQNAqmfTmwNpDc3g3xiI+AKcFW0gKv+SpmPje7111zDX6G72fnkk8nb026Heds84Gp0srjxCQVWBFUMVtIIrHgNWwGXGytfZazYWuktgVLZEphVwMpWHWLRbsdfdIqp7ekPSTCScFX2Fq9eXLeoU9cloV+4SDqduNYYdZAfc8AV4KpoAVf9k07sfpD2wlpR5ufnnWlK3aZ2+9i2bfxVhiuAq9FJ5ec3WKhKz1o1vJ5Vs1kr2Qq40lmrko0VtfKL2/ne9j514Yp++G4aooudSsgSlHltK2qvttOV+YNRF/NX9VP2qYFS+n4bxACuAFdF2wu4KnOHApVO1hv0PL17t7n0wguT96/d9spaSejiv6nb1W4J2nY+9RR/lcHPvr17zbq1a5P3tdUCrvo7k+/8Sc5aebDyxkoqxkqaWav42HW7CliJuRKwkjprpW0VlW1VaAZJ7XbijWfyPe2PJOGKAITeNNA3DIFIL34pdiplb4WgX969StkGTndQ3+ynQo9TWSdX0V+vU49XGe3m6VplpExIoXYrgKtiGQq4uv325G1pp9dZgNg1wG+0r7z00uT9KqO9/r3x5OOPJ29XGaXv9T0WTAc5s7OzbqdN6v61W8BV/6a2Z8pBlZuxyhurv7AQFcyVB6po1qqesUqZqz9T5sqBlTJXPGslgBWua8Vw1I6xos5fupnvbX8kCVepv/Y9uHnzQM+GUDqxx7zXh0DQaUap21VGBx2waA++mBX6xVjW67dTxpBu4yD8IYMex058L3UrgKtiAVw17t3r15upyUn+SoORG669Nnlfyuj6227jr9LblG1kdFdbMB3UAy62btliVl1ySfJ+lVHAVf9m/tJ7ctaKoIqASiqmSqqMFQOWzFnFh1ikjZUcYhGdDhhZqwyKyuj0of33e3gZXDX6yzy9kdgxoG+4O/FmsJfWSqfsbY66gwZY9MafXqOpU7DKOla3k/aq3wGLblsnXm/dhBTAVbEArpqX3qzev2mTme7zk1ZnZ2bMmtWrk/ehjJIN6xfQ3L5tW/I2ltVrVq0aiD+CUWq1mtm2dauzran7UmYBV/2b2W+visBq35/LKsZKVjFWsipzFYFVzljlZ60Sxio/ayWA1a6xGnve98zi1r18T/sny+CqyBsneuM6KJBFb7bptJ/U/Win9KaqX44upx/0qdtYVglM+z30PJNdpecldR+o9N+VZa86NXsl7Teolcc3dVvbLf3MKet5KRLAVbEAror3cvs6oO1W/fimm7Ybr7r44uTtLqvbHn6Yv1p/5NYbb0zezrJ62UUXuZ+HBC/9mKr9eUqmqpNAnS/gqn8z9aFfBrCKrZWFKGnOWPkqY+VWZazc6m1VtBUwZayCtbJAVLK1qpzZn+9PI7ha6RazfocsMgyN3my3036bj+nEMeG63X4DXDT0HK/ESpZlrzp1cqAu3a9+eMzpe7xT30e9eF0BrooFcNVa6ft2r/251OvQzyjaupi6jWW2H48q37tnT/K2ll3aZtlP7wXm5ubcoStk11K3t5MFXPVvxv7pBDdrtey6Vq2eDhjAKmeswqwVnw6ojdX/IhhiwLJQ1K6xoo+nPvpHvof9lwBX9IO41TdQ9P+jkwX7xeTQ7ejUXAyVrEU/JjUrV2bpee4HmKY34/W2/jUr3Yey3sx3ct5NSvexV7+8W32Mi5Zer72AR8BVsQCu2usdt9ziDr7ott2oLS6aRx5+2Ky+7LLk7SqzdL3Fyuwsf+X+yv0bNyZvcyd61513OqDrVehr0++jq7rwnNcr4Ko/U9s5zodYcOsZK26YsWJrJWBFUJWBlV0tWMmclQCWGCsBrHjOKgOrMjrxhjPN0r4Zvpf9lwBXZcEIfR56U9aLN00rtRitlH6Z9OK+FQndrk7Mw+RLz3Ev3igRNNPz2+ofAaRl2StKNx5vKj3m9PrudOg1RPDRSaii9nJeEXBVLMMAV+t7CFdSghy6HXStpE7+AXJqasr9bLu2i9aiGz+TWk21Wu3az2cpHQX/+GOP8S3obAjc773rLnPtlVcmb0u3C7jqz1TveNRCVc5YhVkrAqyCxipsCSxgrGjVxorWEo0VrYv39/fJnQ6u6C/jqW+WdkvfbPRGppO/VOlzd+PNIJXeSPXiDcJK0o6BXGkJdDr9y5XuDz2/Zf6SpMenLEDu5uNN7cQfL+hz0cmKnf7DBJUeq17PkwGuimUo4Oq225K3pZe9ce1as3njRvP0rl18K1sPnVz38IMPOkvWqQvo1isdHNHv6eTR7I269qqr3PY8es0vLS3xrWk/9F6NXtOdPPWv1QKu+jOLm5/KrJU2V85YSQmmdAWseM0ZKwdWeWMl1cZKz1opQGq3C2u38r3r3/wPemPVLTChvdk0BEpvyFv5Cx79oKI3gfQ56HN1800ttd/mrOqFHqduPjb0+qFtoWWAFr0uCB7o83Xyr45l2qtO/XGiWemXmXw/rST0+qD/D/1/6XOkPncnSs9nL95g5wO4KhbAVed7+UUXmVtuvNHcfeed7mcSAcvunTvd96cu/Wf039H/hv639P+5osOHVDRqmT8/O51u/NGoUek5ptks2qJKs9H0fBIUT05MuN93c5WKs2wEYbTStajoe4+2+j36yCPmnvXr3cWZU5+7nwq46s/Utu9lsMqMlQMqMlYMVs5Y/d+csfo/2lgxYBFY5c2VgyplrhxQZebKg1VmrqStGqvKT2/le9bf+R+duqBc0dIbc/qmlNIPQgIn/Z91W+2nOmhHkncbsHTp+SI4ojfvVHozq98o0Mfy38kbfGrqc3Wq9NiUaX/o9ZH6Ot0s3Sd5LOl7iL6X5GNqL7+PejVflQrgqlgAV2iqgwRWkl7O3o1K6XcM0n9xFxDWxkoawMqvYq3k2PVwSqA6xMLPWWXmylurDKyyCljZqkMs2u3kgefwver/9ByuBqGDBlaSXgJWv5ceFwK9MtPpA0UGsfQ495vxBVwVC+AKzXcQwUpCBih1n9ByessNN/AjjfRTlioLK7ueVWrWKmWsms1alWysJl7zc75HgxE3c0VvMvEmfHn78Y3hSgPAWt5OWhQAVlb6w02/2CodwFWxAK5Q3UEGKwn+mNy50mEeSH9m7HnfsFCltgSG5oyVnrVSxio/a5VZKwIssVVUtlWhGSS104k3/YrvyeAknBZIb4I6fWHUQSqdCtiLNwOdCO3r7oetlb0uPQZl26pURv0XOG0P6efvHcBVsQCu4hJc0Hbn1H837N21cyc/ooMfOkwkdR/R9tqP1ztDfKYO/k1mrixUReYqAiu7ClilZq3+TJkrB1XLZ60EsMRcCSC1aqwm3/UbvheDlQBXEjI1o246CDL78S/u7WSU4ZlAudtbO/thBqvbpZ8bNLDd7wFcFQvgKq6Ym9mZGXc6X+p/M2yli9HS62DYQs/lJeefn7zPo1K6RMB9997rjFPqv19p77x1MA4aGMVUfnBtzlopY+VWb6tisKpvrBxQRdbKQlRkrTJIaqdTHzyX78HgZRlcUeiN+Cj+9X1Q3hy2k1F6XnsBVTqjst2WHmd6szIof5AAXBXLMMDVnR2AKwkdpT4Ip7i1Wvpj3NzcHN/b4QudxnfzDTck7/swN38trrL+AEGHhiD9mdquSTP+z99uPGvVyFg1mrViY5WftRLAatVYTX/mIr71g5kkXEnolyFt8Ul9Iw1bh9FW1Qu96ac3xKnHYRjaa6jSodfUsH4P9dPjvJIAroplKODq1luTt6WV5uFKsu3hh82VfXjdoVZLR4dveeABvnfDH7oe1WUXXph8LIal11xxhXv90vHv+ZS11ZUuEYD0b2bJXpGxUtYqMlZuVcbKrd5WRVsBU8YqWCsLSFIFTCtt5cc38a0e3DSEKwm9GR/mN4jdmMPptwyjnSRA7tfnkiBkWCwW/SwYRKiSAK6KBXAVtx5cUWir4L133TXwb9Jpu2MvnqdeZ2z//qHcNk/PJ11IuVHuu+ee5P93pb1nwwb+jEi/ZuLNP11urNyaM1YBrBoYKzodUBur/0VgxIBlAakVYzX2klPNwtXDsXusEFxJhgmyBvWv7mVn0J9Teh7pTU8rF6XudghoB/U0QYIIgvFheOMFuCoWwFXcRnAlmbY/h8j6rB2wA4ToIrf4fWjM9kceMTesWZN8jAala1avrmupUilrWyD9fkD6P2PPOzEzV8FYEVRpsLKrBSuZsxLAEmMlgBXPWWVg1UqnPnaeqT0+PPOdK4IrCf2SpDeJg/iX+EH/q3unMkiQRUA1yG/0CQQHAbLo+5tu56BfjiAfwFWxAK7iFoErHTIG/X7wxU3XX292bN/OtxiR0GMyaH90LGKpUinrftLhGMhgZOpTv19urMKWQDZWYUtgwljRqo0VrS0aq7Fn/7eZPXn4LkDdElxJ6C/xdAAEvdlNfbP1S+Wv7oNgN3qdfoUsOkZ9WMyJhF6PdJ/66Y8U9DjTm8h+3V5ZRgBXxQK4irtSuJJM2Pt9/8aNbu4l9Xl70dvWrRu6P5p0IgQrt9x4Y/Ix7HWvtq+nu+64w/2xuJ33NmX9vr9/0yb+jMggZPak1cpcxcZKTgeMjJVUjJW0DWM1c8yVZvGRfXyLhittwZUO/eIk0OqX6ymJ3cAvkNZCP6x7+XwKTNHzNwoHjdD9pD3/3QYt+sU6So8zpTI76+CxjO7bs4c/6/BlsVpN3udWS5+v2+kHuJIsLi66U9roDfFVl12W/Bqd7Dr7vf7wgw8W3i6GZNm9c6d5cPNmd9Leqh4cXkK/F2i7Ir126I9D9IePslIWXLX7/YF0P9U7tpupj57jzZWAVX7WykGVMlcOqDJz5cEqM1fSRsZq6tMXmuqG4X5vXhpc6cgb826+WaSvQ1+Pvu4w2Y1+iDyf9Ca8bKtFEEyfk34w01/g6E3YqEf+UEGPS1lwS58LjzMyauknuMpn39697nOSGbm8A78n6RpVdGFX+hp0YANSXsbt47lt61Z3/Ph111zT9mmRdBAKPV8EwPSa3XTPPe4Uyqd37zaVSoW/amdS1u90ur3IYGbh6gfN1Id/66BKmytvrTKwyipgpQGreac+cYFZuHY0Xicdgat86M05vaGTN+ftvmGk/z+BFP3SoL+4A6a6H3rM6Q06PQe69LzIc5MvAYP8FRtZWeh7SB47Kr3u848v/Wf6f4PvC2TUU+bME32PdTJklLZv22Y2b9zoTh6kN+4ERzdff707cOLaK690F36lo9Lp9tAb+rVXXeX+e7qeF/1+JTO1e9cuM9fhN+TI8tRqNTM9NeV+9tLMFh3xvuX++83WLVsciD1mn1syl/RzetdTT5k9FpzIQC3Mz/Nn6E3Kgqsnduzgz4gMahbWPGRmvr7KjL/sx81nrQoaq4mX/dRUfnqLqW0frT/wdAWu6iX/hpEArNGbRQRBEAQpmkGCKwTpRcqCK4JFZHhSvetxM3vyGjPxmtNXZKz2/5+TzPgBp5mpT11oqrdmF6setfQUrhAEQRCkUwFcIUjjlAVXZc6BIf2V2s5Js3D9VjN/5QNm/sKNZu6cDWbu57eZ2VPWmcopN5n5izaZ6vrHTW33FP8/EMAVgiAIMpQBXCFI45QFV9iKiiBZAFcIgiDIUAZwhSCNc/011yRf7yvt0tISf0YEQQBXCIIgyFAGcIUgjUOnFKZe7yvpqosv5s+GIAgFcIUgCIIMZQBXCNI47R4jT6WTLBEEyQK4QhAEQYYydJR56s1gKwVcIcOYSy+4IPl6X0nXrV3Lnw1BEArgCkEQBBnKAK4QpH4WFxeTr/WVlr7PEATJArhCEARBhjKAKwSpn0qlknytr7R3r1/PnxFBEArgCkEQBBnKAK4QpH4mJyaSr/WV9v5Nm/gzIghCAVwhCIIgQxnAFYLUz/69e5Ov9ZV2x6OP8mdEEIQCuEIQBEGGMoArBKmfJx9/PPlaX2nH9u/nz4ggCAVwhSAIggxlAFcIUj9b7r8/+VpfaelgDARBsgCuEARBkKHM7TfdlHwz2EoBV8iwZcMddyRf6yspXYQYQZA4gCsEQRBkKHMb4ApB6uaGNWuSr/WVlL7HEASJA7hCEARBhjKAKwSpnysuvjj5Wl9JcVIggiwP4ApBEAQZygCuECSdubm55Ot8pX38scf4MyIIIgFcIQiCIEMZwBWCpLN3z57k63ylnRgf58+IIIgEcIUgCIIMZQBXCJLO9m3bkq/zlXZpaYk/I4IgEsAVgiAIMpQBXCFIOpvuvjv5Ol9J16xezZ8NQRAdwBWCIAgylLlt3brkm8JWCrhChinXXX118nW+kt5xyy382RAE0QFcIQiCIEMZwBWCLM/M9HTyNb7S4nsCQdIBXCEIgiBDmVsBVwiyLI89+mjyNb7S0qEYCIIsD+AKQRAEGcoArhBkeWg7X+o1vpJeesEFplar8WdEEEQHcIUgCIIMZQBXCBJnfGws+fpeael7C0GQdABXCIIgyFAGcIUgcTZv3Jh8fa+0D27ezJ8RQZB8AFcIgiDIUAZwhSBZxvbvN5f/6U/J1/dKu3vnTv6sCILkA7hCEARBhjKAKwTJcsuNNyZf2yvtTdddx58RQZBUAFcIgiDIUObWkt5MUgFXyCCHXr+p13Ur3b5tG39WBEFSAVwhCIIgQxnAFYIYt4Uv9ZpupWtWr8YpgQjSJIArBEEQZChT1jYoKuAKGcRUFxbM9ddck3xNt9It99/PnxlBkHoBXCEIgiBDGcAVMspZmJ83t910U/L13ErJWs3bz4kgSOMArhAEQZChDOAKGdVMTU6aG9euTb6WW+2O7dv5syMI0iiAKwRBEGQoA7hCRjG7du4016xalXwdt9o7b72VPzuCIM0CuEIQBEGGMoArZNTyyMMPJ1+/7XT1pZeaifFx/goIgjQL4ApBEAQZytxyww3JN4utFHCF9HP27d1r7rjlluRrt90+8dhj/FUQBCkSwBWCIAgylAFcIcOe2dlZs+mee5Kv2TJ6/6ZN/JUQBCkawBWCIAgylLkZcIUMcbZu2WKuuuyy5Ou1jJIJQxBk5QFcIQiCIEMZwBUybNm/b5/ZvHGjufbKK5Ov07JK3zsIgrQWwBWCIAgylAFcIcOQyuys2fbww+bm669PvjbLLl10GEGQ1gO4QhAEQYYygCtkUDM5MWG2bd3qjkC//KKLkq/JTvT2m2/mW4AgSKsBXCEIgiBDGcAVMihZWFgwO5980h1OQeYo9RrsdPEaR5ByArhCEARBhjJlbqPCG0+kzBBMPfXEE25+6ib7Ou2mnUoVr28EKS+AKwRBEGQoA7hC+iF0XPq+PXvMY9u2mU13322uu/rq5GusF6WDMXZs3863FEGQMgK4QhAEQYYygCukG1msVs3U5KR5etcu89ijj5oHN282d91xh7lxzRqz6uKLk6+nfui9d91l5ioVvhcIgpQVwBWCIAgylKHtVqk3la0UcIXks7i4aNatXWuuvuKK5GumX0szXU89+STfCwRByg7gCkEQBBnKAK6QTmfD7bcnXy/9WprxIihEEKRzAVwhCIIgQxnAFdLp0PWnUq+Xfisdsb5n926+1QiCdDKAKwRBEGQoA7hCOp2x/fuTr5d+6KUXXGDuXr/e7N2zh28tgiDdCOAKQRAEGcrcdN11yTedrRRwhdRLr65LVa+rL7vMbf+jQzYQBOl+AFcIgiDIUAZwhXQjdOpe6jXT7dIR71u3bDHzc3N8yxAE6UUAVwiCIMhQplarmUceeshdyyf1ZnQlBVwh9ULXiUq9ZrrRqy6/3Ny7YYPZ9dRTfGsQBOl1AFcIgiDI0GdmZsbcv2mTuaLF6w4BrpB6mZyYMJddeGHyddOJXnnppebuO+80Tz3xhPsDAoIg/RXAFYIgCDJS2b93r7ln/frkG9d6BVwhjVLm4SmpXnXZZWb97bebJ3bsMNWFBf6qCIL0YwBXCIIgyMiG/vp/xy23JN/Q6gKukEahAyRSr5tWSzBFr0uaoaI/BiAIMjgBXCEIgiAjn7lKxV2zaF2dQzAAV0ijPPn448nXTZFecv75Zu1VV7kLEm9/5BG3zRBBkMEN4ApBEARBVMbHxtx8lj4IA3CFNMrszIybhdLQlO+qSy4x69audfNSDz/4oDuEYnpqij8DgiDDEsAVgiAIgtTJrp07zV32zTDgCmmWLfff7+zn44895sBp3969zkJVKhWzuLjI/ysEQYY9gCsEQRAEaZIFHCKAIAiCFAjgCkEQBEEQBEEQpIQArhAEQRAEQRAEQUoI4ApBEARBEARBEKSEAK4QBEEQBEEQBEFKCOAKQRAEQRAEQRCkhACuEARBEARBEARBSgjgCkEQBEEQBEEQpIQArhAEQRAEQRAEQUoI4ApBEARBEARBEKSEAK4QBEEQBEEQBEFKCOAKQRAEQRAEQRCkhACuEARBEARBEARBSgjgCkEQBEEQBEEQpIQArhAEQRAEQRAEQdqOMf8/UWbvTzfQ2ykAAAAASUVORK5CYII=;labelBackgroundColor=none;fontSize=17;fontColor=#46495D;strokeColor=#788AA3;fillColor=#B2C9AB;strokeWidth=1;imageBorder=#B3B3B3;" vertex="1" parent="1">
          <mxGeometry x="140" y="54.5" width="115" height="61" as="geometry" />
        </mxCell>
        <mxCell id="LAokjbQ1z-uIzmXzvzG--101" value="" style="shape=image;verticalLabelPosition=bottom;verticalAlign=top;imageAspect=0;aspect=fixed;image=data:image/png,iVBORw0KGgoAAAANSUhEUgAAAgAAAAIACAYAAAD0eNT6AAAABHNCSVQICAgIfAhkiAAAAAlwSFlzAAAN1wAADdcBQiibeAAAABl0RVh0U29mdHdhcmUAd3d3Lmlua3NjYXBlLm9yZ5vuPBoAACAASURBVHic7N13/FxVnf/x15RvL+m9kNCGJkU6+FNQQBAcEfuKgAI2QCbo6tpWXPsWvbt2JO7Kqquri3hddEFBUcAQSgIakksSAuntm28vU+/vj5lAEpJvmbn3njsz7+fj8X18v4SZc97sxu/5zDnnnhNxXRcRCbdEMtUCTBvjqw1oAhpL38fzM0AayJS+j+fnQaBrtC/Htob9+L+DiHgnogJAxJxEMtUILAAWA4v2+T6b/Qf3FjMJyzbM/kXBduA5YMM+3zc5tpUxlE+k7qkAEPFRIpmKAgvZf3Df9/tcIGomnXEFYCv7FwX7ft/o2FbBUDaRmqcCQMQjiWRqOnAi8LLS9xOB46m+T+9hMQysAp4qff0FeMqxrd1GU4nUCBUAIhNUmrY/lhcH+b0D/hyTuerINvYpCEpfq7WcIDIxKgBExpBIpo4AzgVeAZwNHAPEjYaSA+WANcCfgQeBhxzbWm82kki4qQAQ2UcimYoDp/DigH8uxQ15Un22Aw9RKgiAFY5t5cxGEgkPFQBS1xLJVCfFT/V7B/wzgVajocQvQ8AjvFgQ/NmxrT6zkUTMUQEgdaW0K/8M4BLgYuA06ncXfr0rAI8B/wf8Bliupw6knqgAkJqXSKZmA6+lOOBfBEw1m0hCag9wL8WC4B7HtrYbziPiKxUAUnNK6/jnUBzwLwZOBiJGQ0m1cYGVFIuB/wMe1v4BqTUqAKQmJJKpScDlQBK4AOg0m0hqTB/wO8AG7nJsq9dwHpGKqQCQqpVIpjooDvhvozjF32g2kdSJDHAP8FPAdmyr33AekbKoAJCqkkim2oDLKA76lwDNZhNJnRuhuIHwp8D/OrY1aDiPyLipAJDQK92E9zqKg/6l6DE9Cach4G6KxcCvdSOihJ0KAAml0uN6FwFXAa8H2s0mEpmQAeBXwB3AvXq8UMJIBYCESiKZmg+8B7iW4i16ItVuI7AU+L5jW5tNhxHZSwWAGJdIpmIUp/avp7iuHzObSMQXeYr7Bb4H3O3YVt5wHqlzKgDEmEQytZjiJ/13A3MNxxEJ0lbg34Gljm1tMB1G6pMKAAlUIplqAN4AvJfi8/o6oEfqmUvxfIHbgF86tpU1nEfqiAoACUQimZoOfBC4AZhpOI5IGO0Evgl8y7Gt3abDSO1TASC+SiRTRwG3AFcDLYbjiFSDYeAHwFcd21prOozULhUA4otEMvUK4MMUT+rTbXsiE1egePTwvzi29aDpMFJ7VACIZ0q7+d8IfAQ403AckVryCPDPwC/09IB4RQWAVKx0PO97gBRwuOE4IrVsA/A1imcK6NhhqYgKAClbIpnqpDjop4AphuOI1JNuwAIsx7b6TIeR6qQCQCas9In/RuCjwFTDcUTq2R7gH4FvaEZAJkoFgIxbIplqBj4A/B16lE8kTHYCXwa+7djWiOkwUh1UAMiYEslUI3Ad8El0Yp9ImG0FvgDc7thWxnQYCTcVAHJIiWQqDlwDfBpdzCNSTTYCnwP+w7GtnOkwEk4qAOQlSlfxvhP4DHCE4TgiUr71wGeBH+lKYjmQCgDZTyKZOo/i7uKTDEcREe88CaQc2/qD6SASHioABHjhZr5/Bq4wnUVEfHMn8BHdQCigAqDuJZKpduATFM/rbzIcR0T8lwa+CnzRsa0B02HEHBUAdSqRTEUoXtDzJWC24TgiErztwMeBHzi2pYGgDqkAqEOJZOpciuv8p5nOIiLGPUZxf8BDpoNIsFQA1JFEMrUQ+ArwdtNZRCR0fgJ8zLGtjaaDSDBUANSB0i19Syg+DtRqOI6IhNcQxcd/v6ZbB2ufCoAal0imTgZuB041nUVEqsbjwHWOba00HUT8owKgRpXO7b8V+DAQN5tGRKpQDvgX4FbdL1CbVADUoNJhPrcBRxmOIiLVby3wXh0iVHtUANSQRDI1Gfgn4FogYjiOiNQOF1gK/K1jWz2mw4g3VADUiEQydQXwDWCO6SwiUrO2ATc6tnWn6SBSORUAVS6RTM0GvgW80XQWEakbvwA+6NjWdtNBpHwqAKpYIplKUpyWm246i4jUnd3AtY5t2aaDSHlUAFShRDLVSvEs7/eZziIide+7wC2ObQ2ZDiITowKgyiSSqZcDPwYSprOIiJQ4wN84tvWE6SAyfioAqkQimYoCHwE+DzQYjiMicqAs8Cngnx3bKpgOI2NTAVAFEsnUfOAO4HzTWURExvB74CrHtjabDiKji5oOIKNLJFNvAZ5Cg7+IVIfzgadKv7skxDQDEFKJZKod+DpwjeEoIiLl+g/gJse2BkwHkZdSARBCiWQqQfE522NNZxERqdBq4I2ObTmmg8j+tAQQMolk6nJgORr8RaQ2HAssL/1ukxDRDEBIlHb5fx74O3SOv4jUHhf4MvApPSUQDioAQiCRTE2j+Gz/RaaziIj47F6KZwZ0mQ5S71QAGFY62OdO4DDTWUREAvI8cIUODjJLewAMSiRT1wAPocFfROrLYcBDpd+BYohmAAxIJFONgAV8wHQWERHDvg2kHNvKmA5Sb1QABCyRTM2i+Ijf2aazSG2IRKJEYnEi0ThEI0QiUaD0PRKByIs/7/8dXNcFt1D6vu/PL37HdXFdF7eQxy3kcPM50//JUnv+TPFRwR2mg9QTFQABSiRTxwK/BhYZjiKhFSHa0Eg03kS0oYlovIFINF4c4GMNREsDffGfS1+R4Ffy3HwOt5CjkC8WBHv/2c1nX/izQi5DIZumkE3jFlQ0yJieA17n2NZq00HqhQqAgCSSqfMpbvabbDqLmBOJxog2NBcH94YmYg17B/q9f9ZILT4F6hbyFLIjLxQEhWyafG7vz8U/FwF6KG4O/L3pIPVABUAAEsnUVcDt6Ba/uhGJxog1tZa+2l74Ho03mo4WSq5boJAeJp8eJJceIp8eJJ8eopAdMR1NgpcFrnNs6w7TQWqdCgCfJZKpW4HPmM4hfokQa24l3tS+34AfbWgyHawmuIUC+cwQ+X2KgvxIP4Vc1nQ08d9nHdu61XSIWqYCwCelnf63A+8ynUW8E403Em/pJN7SQbylg1hzO5FozHSsulPIjpAb7i999ZEbGSxuWJRa858UZwP0hIAPVAD4IJFMTaa40/88w1GkApFIlFhLO/HmFwd8fbIPKdclNzLwYkEw3K/lg9rxB4pPCPSYDlJrVAB4LJFMLQbuRpf5VKVYUxsN7VNoaJtCQ2snGNhhL94oZNNkB7vJDnSTHezRkwjVbTVwqWNbG0wHqSUqADyUSKZOpfiY30zTWWR8IrEGGtomvzDoa5NejXJdciP9pWKgm9xwv+lEMnE7KT4m+LjpILVCBYBHEsnUKyh+8u80nUVGF29up6FjGg1tU4i3dJiOIwa4+SzZwR6yA3vI9O/R7ED16KM4E/Cg6SC1QAWABxLJ1IXAXUCr6SxycLHmNho7Z9DUOYNoQ7PpOBImrktmYA+Zvt1kB7pwC3nTiWR0Q8Dljm391nSQaqcCoEKJZOoNwE8B7Q4LmVhTK42dM2jsnEGsscV0HKkCrlsozgr07SI7sAe3oCcLQioNvM2xrV+aDlLNVABUIJFMvQO4A4ibziJF0YYmmibNLA76TW2m40gVcwv5F4qBTP8eQL8rQyYHXOXY1n+ZDlKtVACUKZFMXQd8F12pHAoN7VNonjKXhvappqNIDSrkMqS7t5Hu2U4hp0fSQ6QAvM+xrdtNB6lGKgDKkEimUsBXqcVD26tIJBanadJsmqfMIdqodX0JgOuS6e8i3b2V7FCv6TRS5AK3OLZlmQ5SbVQATFAimfoU8DnTOepZvLmdpqlzaeycYeQmPBGAfHqoOCvQu0MbB8Ph045tfd50iGqiAmACEsnUV4CPms5Rrxrap9AyfSHxFj1pKeHhFvKku7cxsmez7igw7x8d2/qY6RDVQgXAOGnwN6c48B+mZ/Yl1NxCgXT3Voa7NuPmVQgYpCJgnFQAjIOm/c3QwC/VaO+MgAoBo7QcMA4qAMZQ2vD3NdM56klD2xRaZmjgl+qmQsC4JdoYODoVAKMoPep3G9rtH4hYYwuts4+goW2K6SginnHzOYZ2PUe6e5vpKPXGBd6rRwQPTQXAIZQO+fkhes7fd5FIlObpC2iZNl+370nNyo0MMLRtLbmRAdNR6kkBuFKHBR2cCoCDKB3v+3N0wp/vGtqn0DbrSD3HL3Uj3b2NoV3P4eZ1AVFAcsCbdWzwS6kAOEDpYp9fobP9fRVtaKJ11uE0dkw3HUUkcIVcluGdz5Lu3Wk6Sr1IA6/XBUL7UwGwj9KVvvegW/181dg5g7Y5RxGJxkxHETEqO7CHga3PaJNgMIaA1+oq4RepAChJJFOnAvcDOmXGL5EobbMOp2nKHNNJREKjkE0zsNUhp6OFg9AHvNqxrcdNBwkDFQBAIplaDCwDZprOUqtijS20zzuWWLNu6BN5KZfhXc8zvHuT6SD1YCdwlmNbG0wHMa3uC4BEMjUZeBg41nSWWqUpf5HxyQ52M7jV0ZHC/lsNnOPYVo/pICbVdQGQSKYaKa75n2c4Ss1qnXUEzVPnmo4hUjUKuQwDm1bpcUH//YHinoC6vd+53h+6vh0N/v6IRGifm9DgLzJB0XgjHYedSLx1kukote48imNA3arbAiCRTN0KvMt0jpoUidI+71gaJ2lLhUg5ItEYHQtO0KmY/ntXaSyoS3W5BJBIpq4CfmA6Ry2KRGO0zz+OhrbJpqOIVD/XZWDLajL9XaaT1LqrHdu6w3SIoNVdAZBIps6nuO7fYDpLrYnE4nQsOJ54i56kFPGM6zKw7RkyOjTIT1mK+wF+bzpIkOqqAEgkU8dS3PGvj6dei0ToPOxEDf4iPunftIrswB7TMWpZD8UnA1abDhKUutkDkEimZgG/RoO/L9pmHaHBX8RH7fMSxBpbTMeoZZOBX5fGirpQFwVA6XG/XwCLDEepSU2TZ+t0PxGfRaJx2ucfp/M0/LUI+EVpzKh5dVEAABZwtukQtSje0kHb7CNNxxCpC7GmVtrmJkzHqHVnUxwzal7N7wFIJFPXAP9uOkctisYb6Vx8CtF4OIvleCzKKYumctScTqZ1NBW/2ptoa4rTPZihqz9N10CaXb0jrHiuiw07dfCKVIfiscEbTceode92bOs/TIfwU00XAIlk6uXAQ4Aum/dB+/xjQ3edb1M8yrnHzOLso2dwxpHTaWmMj/u927qH+fMzO3lwzQ7+uqmuTwiVKtC74QnyI4OmY9SyEeBcx7aeMB3ELzVbACSSqWnA48BhprPUonjrJDoPO9F0jBdEIxEuPnke73rlEUzraKq4vSef38Pt963F2aob2iScsoM99G/8i+kYte554FTHtmryIIaaLAASyVQU+A1wkekstapz8SnEm9tNxwDg7KNncN1rjmbBNO9vGvzTmh3cft8zbOse9rxtkUrp0cBA3Atc4thWwXQQr9XqJsDPo8HfN02TZoZi8I9EIrz3gqP57FtP8WXwB/h/x8zim9eezWlHTPOlfZFKtM46HCIR0zFq3UUUx5SaU3MzAIlk6nLgTkD/q/BBJBpl0hGnG9/419YU5xNXnMjpRwSzB6Hgutz2u2e485HnA+lPZLyGdqxnZM9W0zFqnQtc4djWXaaDeKmmCoBEMpUAlgM6kcYnTZNn0zbnKKMZJrU28C9XncHC6f586h/NLx/dyDfvWRN4vyKHUsim6Vm33HSMetAHnOHYlmM6iFdqZgkgkUy1UzzsR4O/jxo7ze76j0cj/P2bTzYy+AO84fSFXH76QiN9ixxMtKGJeKt+7QWgk+IhQebXPz1SMwUA8HXgWNMhalkk1kBDq9mTlG+8+FhettDsFanvvyjByw/XngAJj8aOGaYj1ItjKY41NaEmCoBEMvUW4BrTOWpdY8c0oxuOXvfy+bzu5fON9b9XNBLhU1ecyKxJOpddwsH0zFyduaY05lS9qi8AEsnUfOC7pnPUA5O/ZNqb41x7vtm9B/tqb27gPa8OTx6pb9F4I/HWSaZj1JPvlsaeqlbVBUDpef87ALNzwvUgEjE6/f+Ocw+no6XBWP8Hc97xszl6jtZeJRwa26eajlBPpgB3lMagqlXV4YGPAOebDlEPovEmY9P/Myc1c/kZ4dt4FwGuf83RpmOIAMXNgBKo8ymOQVWraguA0jn/NXk4QxiZ/OXy5rMW0RAL51/VkxZN5bj5ZjdGioAKAEM+XxqLqlI4f6uOIZFMtQI/BsI1J1zDTP5yOTcx01jf43HuMeHOJ/UhGlcBYEAD8OPSmFR1qrIAAL4K6FLsAMUMFQBHzu5kRme4L3M852gVAGKe6dM561iC4phUdaquAEgkU0ngfaZz1BtTny7OSYT/+eZ5U1uNHUwk8oJIREWAOe8rjU1VpaoKgEQyNRtYajpHXYqa+aty8qLqOHDn5EXagS0hEKmqX+m1ZmlpjKoa1fa35VuATryoIzM6qmNdc3rIlylExHfTKY5RVaNqCoBEMnUF8EbTOSRYU6ukAJjWXh05RcRXbyyNVVWhKgqARDI1GfiG6RwSrI6WhtA+/ncgFQAiUvKN0pgVetXx2xX+CZhjOoQEa0pb9WxomtxePVlFxFdzKI5ZoRf6AiCRTJ0HXGs6hwRvYCRnOsK4DVZRVhHx3bWlsSvUQl0AJJKpZuA2iqeuSp3pGcxQcF3TMcalqz9tOoKIhEcEuK00hoVWqAsA4FZAV67VqYLr0j2QMR1jXLoGVACIyH6OojiGhVZoC4BEMnUy8GHTOcSsPVUysO7RDICIvNSHS2NZKIWyAEgkUzHgdiBuOouYtWZLr+kI47J6a3XkFJFAxYHbS2Na6ISyAACWAKeaDiHmPfzMTtMRxtQ7lOXpTT2mY4hIOJ1KcUwLndAVAIlkaiHwWdM5JByefG4PQ+lw77B/ZO2uqtmsKCJGfLY0toVK6AoA4CtAVV6tKN7LFVyWr9ttOsaoHnbCP0shIka1UhzbQiVUBUAimToXeLvpHBIudz260XSEQ9raPcTydbtMxxCR8Ht7aYwLjdAUAIlkKgJYpnNI+Dy9uYcH1+wwHeOgvn//WnIFTf+LyLhYpbEuFEJTAABXA6eZDiHh9P3715IP2UDrbO3lj6vDWZiISCidRnGsC4VQFACJZKod+JLpHBJem/cM8avHN5mO8QLXdfnubx3TMUSk+nypNOYZF4oCAPgEMNt0CAm37/3uGZ7eHI7H7W6/by1/1aN/IjJxsymOecYZLwASydRi4BbTOST8svkCt/5sJTt6h43muPfJrfxs2XNGM4hIVbulNPYZZbwAAP4Z0GXqMi49gxk+89OVDGfMnA3w143dWL9+2kjfIlIzmiiOfUYZLQBK1yVeYTKDVJ9nd/aT+o/l7OgJdibgj6t38PH/eoJcvhBovyJSk64wfWWwsQIgkUxF0WN/UqYNOwe48fuPBLYO/8M/recL//Mk6Ww+kP5EpC5YpbHQCJMzAO8ETjLYv1S53qEMH/3hY9z5yPO+fSrf3TfC537+JHc8sJ5wPYQoIjXgJIpjoRER18AZ5olkKg6sAY4IvHMpS9vco2maNMt0jEOaPbmFa847kvNPmIMXp2wMjGT5yUMbuOvRjWRymvKX6tCz7lEK2RHTMWRi1gPHOLYV+MYmU9ftXoMGf/HQ9p5hvnzXX/j5sue47NQFnHXUDKa2T3xv6brt/Ty4Zgf2Y5sYGMn6kFREZD9HUBwTbw+648BnABLJVCOwFgjdzUhyaGGfAThQBDhm3iTOSczk6DmTmNbRxLSOJtqaijWv67p0D2bYM5BmZ98IKzfs4eFndrKzV5+epHppBqBqbQSOcmwrE2SnJmYArkODv/jMBVZv6WX1lt79/rypIUZbU5yewYyu8BWRsFhIcWz8VpCdBroJMJFMNQOfDLJPkX2ls3n2DKQ1+ItI2HyyNEYGJuinAD4AzA24TxERkbCbS3GMDExgBUAimWoD/i6o/kRERKrM35XGykAEOQNwIzAzwP5ERESqyUyKY2UgAikAEslUJ/DRIPoSERGpYh8tjZm+C2oGIAVMDagvERGRajWV4pjpO98LgNJ6RiD/MSIiIjUgFcRegCBmAN4DTAmgHxERkVowheLY6StfC4BEMhUDlvjZh4iISA1aUhpDfeP3DMAbgcU+9yEiIlJrFlMcQ33jdwHwEZ/bFxERqVW+jqG+FQCJZOoVwJl+tS8iIlLjziyNpb7wcwbgwz62LSIiUg98G0t9KQASydRRQNKPtkVEROpIsjSmes6vGYBbfGxbRESkXkQpjqm+NOypRDI1Hbja63ZFRETq1NWlsdVTfnxK/yDQ4kO7IiIi9aiF4tjqKU8LgEQy1QDc4GWbIiIiwg2lMdYzXs8AvAFd+SsiIuK1mRTHWM94XQC81+P2REREpMjTMdazAiCRTC0GLvCqPREREdnPBaWx1hNezgBcC0Q8bE9EREReFKE41nrCkwKgdGPRu71oS0RERA7p3V7dEujVDMClwFyP2hIREZGDm0txzK2YVwXA9R61IyIiIqPzZMytuABIJFPzgUs8yCIiIiJju6Q09lbEixmA9wCerEeIiIjImGIUx96KVFQAJJKpKB7uSBQREZFxubY0Bpet0hmAi4CFFbYhIiIiE7OQ4hhctkoLgKsqfL+IiIiUp6IxOOK6bllvTCRTLcBOoL2SAFIdmqbMoaF1kukY4rFovJG4/v9aM3rWPUohO2I6hgRnAJjp2NZwOW+OV9Dx69DgXzfS3dtId28zHUM81tA+hQ4VACLVqp3iWPw/5by5kiWAt1XwXhEREalc2WNxWQVAIplqw6OTiERERKRsl5bG5AkrdwbgMqC1zPeKiIiIN1opjskTVm4BoOl/ERGRcChrTJ5wAZBIpjrQ0b8iIiJhcUlpbJ6QcmYAkkBzGe8TERER7zVTHJsnpJwCQNP/IiIi4TLhsXlCBUAimZoEvHainYiIiIivXlsao8dtojMAlwONE3yPiIiI+KuR4hg9bhMtACa8xiAiIiKBmNAYPe67ABLJVBzoAjrLCCUiIdTQPoWOBSeYjiEe8fIugHed/QRvPvWvnrTlJxcYzjTQP9JE/0gTA+ni977SPz/fNZnV22bSPdhiOmoQ+oBpjm3lxvPiidwFcA4a/EVE6sLUtmEWTe82HcMzO/raWb1tJqu3zeTprTN5ettMdveXdYBemHVSHKv/OJ4XT6QAuLisOCIiIobN6hxgVucA5yWefeHPVm+byb2rjuLeVUexubtmLsW6GBUAIiIih3bsnJ0cO2cnN1/wEKu2zuK3q47inlVHsbWnqie7LwY+MZ4XjmsTYCKZmg2cXEkiERGRsDp+7g5SFz7Ib1L/zvff/XPOPmKj6UjlOrk0Zo9pvE8BvBaIlJ9HRESkOpx62Ba+865f8J/X/ZRXHPWc6TgTFWGc5/WMdwlA0/8HiMTiRCLl3qUkEg6R6ERWAUXqy4nzt/PNd/6SVVtn8d0HzuAB53DTkcbrYuAHY71ozMcAE8lUFNgFTPUmV8hFIsSb2og1txNvbifa0EQkGisO+NF46XvMdEoRkZfoWbecQjbtSVs3X/AQ73nFY560VSue3jqTf/jVa1i9babpKGPZA8xwbKsw2ovGU/6fQQ0P/rHGFuJtk4mXBvxYUxtEtNohItVIv7v8dNzcnfzo+p+y9MHTuO2BM8jmQ/thcCrFsXvZaC8aTwFQc1f/RhuaaOycQVPnDGLN7abjiIhIlYhFC7z3lcs5P/Esf//LC3l6a2hnAy5hjAJgPIvYNbH+H4030jx1Lp2LTmLykWfQOnOxBn8RESnLUbN288PrfsqNr/4zDbG86TgHM+bYPWoBkEimOoHTPItjQLShmbY5RxUH/VlHEG+p6uc7RUQkJGLRAte/cjn/9d6fMHdyn+k4BzqtNIYf0lgzAGeP4zWhVBz4j2byEafRNHm21vVFRMQXe2cDjp+3w3SUfUUpjuGjvmA053qXJRjRxmba5u4d+Gdp4BcREd9Nax/i+9f8nPOPeXbsFwdn1DF8rALgFR4G8VUkEqV15mImH34aTZM08IuISLCaG3J89W3/y9+cudJ0lL1GHcMPWQCUrv890/M4Poi3dNC5+BSap83XwC8iIsZEIy4fu+QBPnrxA0Qjo5+zE4AzS2P5QY02A3AK0Op9Hg9ForTOXETnopOINYU7qoiI1I93nrWSL15xj+kioJXiWH5QoxUAoV7/jze3M2nxKTRPW4AOvxARkbC55GUOH7vkAdMxDjmWj1YAhHb9v/g8/8n61C8iIqH29jOe5H2vesRkhEOO5VU3A9A6azGts47QWr+IiFSFD56/jLee/pSp7ic2A5BIpo4AxnWfcGAiUdrnHUPz1Pmmk4iIiEzIx1/3By46fq2JrmeXxvSXONQMQKg+/UdicToXnkBj5wzTUURERCYsGnH54hX3cObhm0x0f9Ax/VAFQGjW/6MNzXQuOol46yTTUURERMrWEMvztbf9L/OmBH5s8EHH9EMVAKMeHxiUvYN/rFGb/UREpPq1NWX48pt+QyxaCLLbg47pLykAEslUI3CM73HGEIk10LHwBKLxRtNRREREPHPi/O188PxRb+r12jGlsX0/B5sBOBY45MlBQYhEY3QsPIFYY4vJGCIiIr54zyse4/TFm4PqLk5xbN/PwQqAE/3PMopIhPb5xxJvbjcaQ0RExC/RiMsX33gPk1tHguryJWN76AqA9rlH09A2xWQEERER383sHODW5G+D6m5cBcDLAghyUK2zDqexc6ap7kVERAJ1/jHP8rZgDgl6ydgemhmApsmzaJ46z0TXIiIixqQufJDpHYN+dzP6DEAimZoOzPE7xYFijS3F431FRETqTGtjltQFD/ndzZzSGP+CA2cAgv/0H4nQNu8YItFY4F2LiIiEwWUnruZl87f73c1+Y/yBBUDg6/+tMxdpx7+IiNS1SAT+7pIH/L7nbr8x3ugMQEPbFF3uIyIiApwwbzvJk572ECjdqQAAIABJREFUs4tRZwACKwAisQba5h4dVHciIiKh96ELHqKtKeNX8wcvABLJVBQ43q9eD9Q+92gd8ysiIrKP6e1DXP/K5X41f3xprAf2nwFYCARy9m5j5wwa2qcG0ZWIiEhVufKslcyf0utH0y0Ux3pg/wJgkR+9HSgSidI6c3EQXYmIiFSdhlieq895wq/mF+39Yd8CIJBRuXnafKINTUF0JSIiUpXecPLTTG4d9qPpF8b6QGcAog1NNE9b4Hc3IiIiVa2pIcc7znjSj6YX7f0h0BmA1pmLiUQPdvqwiIiI7OvtZzxFc0PO62aDnwGIt3TS2DnDzy5ERERqxuTWYS4/ZZXXzS7a+0NgMwCts3XWv4iIyES86+wVRKOul03uPwOQSKYagble9rCvpkmzdNyviIjIBM2f0ssFx67zssm5pTH/hRmABRz8amBPNE/Xxj8REZFyXHPu4142F6U45r8w6Ps2/d/YMY1YYyDnC4mIiNSc4+fu4KQF27xscjG8WAAs8rLlfTVP02U/IiIilbjsxDVeNrcIfJ4BiLd0Em/p9KNpERGRuvHaE56hIZb3qjn/ZwD06V9ERKRyk1pGeMVRz3vV3CJ4sQCY7VWre8UaW2jsmOZ1syIiInXpshNXe9XUbHixAPB8pNanfxEREe+88ugNdDSnvWhqGvhUAETjjTRNmullkyIiInWtMZ7nouPXetGUfwVA05Q5ENGZ/yIiIl661JunAYoFQCKZagE8fVBfn/5FRES89/KFW5gzub/SZloSyVRLFI8//cdbOok2NHvZpIiIiACRCFz6Mm9mATwvAPTpX0RExD/nJZ71ohmPC4BIRFf+ioiI+Oj4eTuY1DJSaTPeFgCN7VOJxOJeNSciIhPhFkwnkABEIy5nHr6p0mY8LgA0/S8iYoxb8OyoWAm5c46o+FRA7wqASCxOY/tUL5oSEZEyqACoH2cfsbHSJrwrABo7puvZfxERQzT415fZk/o5fMaeSprwrgDQ7n8REXNUANSfCpcBpkWBtkpDRGINxFsnVdqMiIiUyc3nPG0vHtWGwrA758iKCoC2KNBUaYiGtsmVNiEiIhUoZCt+LGw/rY1ZT9sT75122BYa42XP/DRFgcZKQzS0T6m0CRERqUA+M+Rpe61NGU/bE+81NeR4+cIt5b690aMZABUAIiIm5dPDnrbXphmAqlDBeQBNFRcAsaY2ovGKJxFERKQC+Yy3BUBro2YAqsHxc3eU+9bKlwA0/S8iYl7B6wKgSTMA1eC4uTuJRMp6a+VLAJr+FxExq5BNU8h5+4m9TTMAVaGjOc2CqT3lvLWyJYBIJEpDa2e5bxcREQ9kB8saAEY1rd3bTYXinzKXASpbAoi3TdLpfyIihnldAExrH6KjOe1pm+Kf4+fuLOdtlS0BaPpfRMS83JC3BcCiad2etif+qmQGoIICQAcAiYiYlE8Peb7+v2i6CoBqcsycnUQj7kTfVv4SQCQaI9ZU8SnCIiJSgexAl+dtLlYBUFVaG7PlFG3lLwHEmtvLeZuIiHgo3bvL8za1BFB9Tpg34WWApigw4XkDgLgKABERo/Ijg+TTg563u2h6RdfMigHHTXwfgBsFynrWI97SUc7bRETEI+m+snZ/j2pK2zDzp/R63q74q4yNgENlFwBaAhARMSvT630BcPqizeWeLCcGlbFvYzgKTPj8yEgsTqyxZaJvExERj2T6d3u++x/gjMVlXy4jBnU0p5nUMqErocubAdD6v4iIWcO7/RmoT1+02Zd2xX/zp05o6aa8GYBYs9b/RURMyQ7sIT8y4Hm7MzoGdQZAFVswsb0bZc4AtGgGQETElOHdG31pV9P/1W2CmzeHy1wC0AyAiIgJ2cFucsP9vrR97pHP+9KuBGPBxJYAhia8BBCJNRBtqOgGYRERKYfrMrTjWV+abmnM8upj1vvStgRj/pQJ3Qkx8RmAWFPrhAKJiIg3RvZsIZ/255re1xy7npbGrC9tSzB8nwGINTZPKJCIiFSukMv4tvYP8PqTVvvWtgRjZscAjfH8eF8+8U2A0QY9/y8iErShHetxC+P+5T4hMzsHtAGwBkQiMG9y33hfXsYSgGYAREQClenbRaZvt2/tX3bimnKuk5UQmj913PsAJr4EEG1QASAiEpTccD+DW5/xrf1IRNP/tWT+FF9nALQEICIShEIuw8Dmp3Hdgm99vOroZzl8hm7/qxVzJ427AJjYDEAkFicSi5cVSkRExs91CwxsWuXLef/7uv6Vj/ravgRrStu4h/SJzQDENP0vIhKIwa3PkPPhuN99nXn4Jk6Yt93XPiRYk1vHXQBM7CmAqKb/RUR8N7x7E5m+Xb73c/3/W+57HxKsKa3jvhFwYpcBaQZARMRfmf4uhnc953s/Jy3YxumLdfNfrZnSOu7P9ENRYNzPDET1CKCIiG/yI4MMbnUC6ev9r3okkH4kWJPHPwPQFwXGXQKqABAR8UduuJ/+TX/17bCffb362PWco4t/alJbU2a8pwFujgJbgHGdAKElABER72X6dtL//FO+7/iH4qU/H7v4Ad/7EXPGuRFwc9SxrTQwrt0mkVhDRaFERGR/wzufY2CL4+uz/vv6wHnLmD3Jn+uEJRzGsRGwy7Gt4b0P9W8GZo768kiESDTmQTQREXELeQa3OmT6uwLr88iZXVx51srA+hMzxjEDsAkgWvqHMfcBRPXpX0TEE4XsCH3PPRno4B+JwKcuu59YNJiZBjFnvAXAvjMAo4rEVQCIiFQqN9RL/+bVuPlsoP1eedYKTlm4NdA+xYypXhcAmgEQEalMunsbgzvWgxvszXvHz9vBzRc8FGifYs44ZgA2w0RmAFQAiIiUJZ8eYnD7OnJDvYH33d6c5h/f/BsaYv4/XijhMGnsTYCaARAR8ZNbKDC8+3lG9mwJ/FP/Xrcm72P+lOALDzGnpSE31ku0B0BExBeuS7pvF8O7nqOQTRuL8dbTn+LC49Ya61/MGMdsj2YARES85LoFMj07GO7aZHTgBzh54VY+8to/Gs0gZoxRALgUDwAsPgbo2NYwMOrzKNoDICJycIVclpGuzfSue5TB7euMD/5Hzuzi6++waRrfkbBSY+KxUR/13FU6APCFGQAozgJMO9Q7IvH4of6ViEj9cQtk+veQ7t1BdrDb2Br/geZM6ufbV95FZ4vZIkTMGWMGYNPeHw4sAE461Du0BCAi9c7N58gO9ZId2EOmfzdufszNVoGa3DrMd971C2Z2DpiOIgY1jD4DcMgC4JC0BCAi9aaQy5JPD5Ad7CE32ENuJLwDa0tjlm++02bR9G7TUcSwMWYAXhjrx18ARKKj/WuR8HNd3EI+sEtXJNzcQr70lcPN56GQJ59NU8gMkc8Mk88Mh+4T/qF0NKf5t3f8ihPmbTcdRUKgscwlgEOLRCpLJOITt5Ajny7+wi5khsinhynkMvv8gi/+kg/LGq2Il2Z0DPLtK+/iqFm7TUeRkCh3D8AhaQZAwsB1C+SG+sgN9ZAb6isO+gHcoS4SRodN6+Y777qLuZP7TEeREClnD4AzaouaARATXJfccB/ZwR6yQ73khvv0SV6E4vn+3/ybXzKlbcxz36XOjDED8OzeH14oABzb2pRIpro42KOAGvwlYLnhPtK9O8n07aqadViRoJx/zLN88Yr/o7Ux2BsFpTqMUgDscmzrhSshD3y4/0ng1Qe+Q9P/EoRCdqQ46PfuJJ/RpxqRAzXE8iy58EHeedZK01EkxEZZAtjvL86BBcBKDlIAoAJAfJQd7GakazPZwR7TUURCa8HUXv7xzb/muLk7TUeRkIsfegZgzALgJSJaAhAfZPq7GOnaRG6433QUkVC76Pi13Jr8HW1N2vAqFZl4AaA9AOKlTN8uhndvIp8eNB1FJNQmt46w5MI/cfkpT5uOIlUkkzvk0f2jFgCrgTTQtO8fag+AeCE31Mfg9nUa+EXGEInAG05exZILH2Ry64jpOFJlMvnYwf54mAOe9tuvAHBsK5dIplYBL9/vbZoBkAq4+SxDOzaQ7t1hOopI6B01azefuvT3nLxw69gvFjmITO6gBcBfHNvab3PAweYJVvKSAkAzAFKedPc2hnY9p0f5RMbQ0Zzmva9czjvPWkksquOqpXyHKABessR/qAJgP9oEKBOVzwwxuPUZbfATGcO09iGuPGsFbzv9KW3yE0+kD74HoLwCQDMAMhHp3p0MbV+HWxj1NCqRujZnUj9Xn/s4V5yyiqYGzZCJd7IH3wMwrgLgScAF9vnYr6NXZWxuIc/Q9vVa6xcZxfHzdvDW057ishPXEB/9zHaRsqRfugRQAJ468A9fUgA4ttWXSKY2AIe/8Ic6e13GkE8PMrB5DfnMkOkoIqEze1I/l564hteftJrF07tNx5Ead5A9AOsc23rJ41eHelhwJfsUAK4KABlFpm8Xg1ufwXX1aUZkr47mNOcf8yyvP2k1py/apIepJDAHOQfgoGf8jFYAXPHCP+kXuxzCyJ6tDO1YbzqGiHFtTRlOWbiVMxZv4vRFmzlmzi6iEX14kuAd5ByACRcAL9IMgBzE8K7nGd690XQMkcC1NWVYNL2bRdO6OXJmF6ct2szxc3fq8T0JhYPsASi/ANASgBxocPs60t3bTMeoWGM8T2tjhpaGHBF9Wqt7zQ05WhqztDVmaGvK0tqYobUxS3tThnlTellcGvSnd+g0SwmvbCUFgGNbmxLJ1B5gKqAlAHmR6zKwdQ2Zvt2mk4ypMZ5n4dSeFz6p7f0+rX2I1tIv+FHuzRYRqUoHnAOw07Gtg35aO+SNAcCjwGtBMwDyooFtz4R28I/HCpwwbztnLt7EmYdv4sT52zXAi0jdOWAPwIpDvW60AuB+SgWA9gAIwNCOZ8n0husu8uaGHK85dh2XnPAMpy7aTGtj1nQkERGjDngM8IFDvW60AuB3L/6oJYB6N9K1mZE9W0zHACAacTl98WYuO3E1Fxy3ToO+iMg+DlgC+N2hXjdaAbAS2ANM1RJAfUv37mBo5wbTMWhqyHHFKau4+pzHmTNZdwyIiBzMwEjj3h97gMcP9bpDFgCObRUSydTvgTdpCaB+ZQe6Gdy21miGtqYMbzv9Ka48awXT2nXSoIjIaHYNtO398feObR1yCn+0GQCA+4A3AcV9ADrKqq4UsmkGtjrG9oDEYwWuOvsJ3n3uY3S2pI1kEBGpNl0vFgCHnP6HsQuAF97sFnJEYg0VxpKq4boMbFmDmzezvn7aoi188tL7OXzGHiP9i4hUq139LxQA9432ulHv+XVsay2wCaCQ13WV9WRo13PkhvsC73dq2xBfeOM9LL3m5xr8RUQmyHVhz2ALwGbHtpzRXjvWDAAUK4hrXBUAdSM70M1I1+bA+z198Wb++S13M7l1JPC+RURqQfdQK/lCFMb49A9jzACU3AcYmwqWYBVymeK6f8DeevpTfPddv9DgLyJSgd0DrXt/HHX9H8Y/A4BmAOrD0I71gRZ7sWiBj7/uD7zltL8E1qeISK3aPc71fxjHDEDpDOGnC5oBqHnZwe5Aj/md3DrCbVf9QoO/iIhHSjMATx/q/P99jWcGAOA+N587rqJUEm6uy9D29YF1d8TMLv7tHb9i/pTewPoUEal1u4uPAI45/Q/j2wMAxQKg7EASfsNdm8lnhgPp61WJZ/nPa/9bg7+IiMdKBcCY0/8w/hmAPxQKuQLjLxikihSyaUZ2bwykr6vOeYIlFz5INKLTJUVEvLZ7oLUA/GE8rx3XgO7YVi9u4ZlKQkl4De3cgOv6f+HTpSeu4cMX/UmDv4iIT4bSjWsc2xrXIS4T+UT/5zLzSIjl00Nk+nb53s8J87bzmeS4lqVERKRMw9n4H8b72nEXAJFo7P6y0kioDXdt8r2PmZ0D/Ovb/5emeN73vkRE6lnvcPPd433tuAuAaEPzXW4hr7nbGpLPDJPp9ffTf1NDjn99+6+Y3jHoaz8iIvVuMN3ort0xfdxTreMuAFYuXTKQG+5/vrxYEkYjXZsAf2u6z19+L8fN3elrHyIiAqu2ztro2FZmvK+f0K7+Qmb4JxOPJGFUyKZJ9/o7ML/3Vcu56Pi1vvYhIiJFz+2e8oOJvH5iBUA++xUtA9SGkT1bitdG+eSC49bxwfO0b1REJAh9I01u91DLVybyngkVACuXLunJjfT7v2tM/OW6ZPr8+/R/5MwuPn/5vUQivnUhIiL7eGrTnNU3L1k2NJH3TPhgn0Jm5GcTfY+ES3awm0LOn7sdIhH4+9ffR0uj7o4QEQnKxj2TvzPR90y8AMhlvuwW/D80Rvzj59r/G05exUkLxryDQkREPLKrvy3fN9z0zYm+b8IFwMqlS3bnR/q3TPR9Eg5uIUe2v8uXtie1jLDkwod8aVtERA7ur1tmP5G6ZdmEP5mXdbZ/PjN8ZznvE/Myfbt9O/b3Q695mMmtwVwoJCIiRZu7J32tnPeVVQAUcpkvBHF2vHjPr4N/Fk3v5opT/+pL2yIicnCb9kxKX3/D4/9VznvLKgBWLl2yIz88sL2c94o5rlsgO+zPFbzvecVjuuRHRCRgT2+bWfa6a9nX++YzQ3eV+14xIzfU58uz/3Mm9XPpy9Z43q6IiIxua0/n58t9b9kFQCGX+Qe3oMtdqkluqMeXdq8+93HiMS0JiYgEae3OaYMfuOmx35f7/rILgJVLl2zLDffpnNcqkh30fvp/atsQV5yyyvN2RURkdM9sn3FvJe8vuwAAyKeHrUreL8FxC3lyI/2et3vZSWtoash53q6IiBxawY2wvbfj1kraqKgAWPG9m75VyI6M++YhMcev9f/Xn7Ta8zZFRGR0T2+dueeGm5c/VUkbFRUAALnh/nHfPSzm+PHpPzF7N0fP2u15uyIiMrp1O6dVvBG/4gIgnx35uJ+3yok38hnvD+jRp38RkeBl8jF29bffWmk7FRcAK29PPZUb7teZACFXSE/okqgxRSMul+jRPxGRwP1l8+ytN6Ueqfhm3ooLAIB8evB2L9oR/3g9A3DsnJ1Mb/e2qBARkbFt2DX1x16040kBUMhnv1DIZfUgeEgVchm8PrPhjMWbPW1PRETGNpBudLsGW7/gRVueFAArly4ZyQ33LfeiLfFePuP9J/UzD9/oeZsiIjK6RzfMf+LmJcs8OdXNkwIAoJAZ/oxXbYm3Cmlvp/8bYnlOWbjV0zZFRGR0+UKUDbun3uhVe54VACtuv/ne3MiAPzfNSEUKeW8P6jlx/naadfiPiEignnh+7sYPfujRZV6151kBAJAfGdBmwDDyeP3/2Dk7PW1PRETG5myf8fdetudpAVDIZT5RyKX10TBkvN4AuGh6t6ftiYjI6NZsm9F73Q1P/MDLNj0tAFYuXZLJDfb+2ss2pXKeFwDTVACIiATpL1tmf9vrNj0tAADy2ZEb3UJeRwOGiGYARESq19aezmzXQOunvW7X8wJg5dIlm3JDvU963a6Uz8sCoLUxy4yOQc/aExGR0T3+/Lw7U7cs83x53fMCACCfHkr50a6Ux8sCYM7kPs/aEhGR0fWNNLnbejo8e/RvX74UACtuv/mB3FDvNj/alnJ4tyLT1pj1rC0RERnd8g0L/vyhJY/4cu2qLwUAQG5k8Et+tS3mtDVlTEcQEakL2XyM53dPucGv9n0rAFZ876av59NDui2mxrQ2qgAQEQnCY8/NW3fDzctX+tW+bwUAQG647w4/25fgtWsGQEQkEGt3TP+Yn+37WgAUcpkP65bA2tKqPQAiIr77y5bZXe+98fE7/ezD1wJg5dIlQ7nB7rv97EOCFYuqnhMR8duqLbO+6ncfvhYAAPnsyHvcvGYBRERExmPjnsnpa96/8ot+9+N7AbBy6ZLd2YHu//W7HxERkVrwxPNzfxxEP74XAAD57Mi7tRdARERkdN2DLYUdfR2BHKYXSAGwcumSPbnBbjuIvkRERKrV8ucW/P7mJcsCOXI1kAIAIJ8duVazACIiIgfXN9LkbuyafG1Q/QVWAJRmAX4ZVH8iIiLV5E/PLLZvSj3yfFD9BVYAQPGJAM0CiIiI7G9bb0d2c/ekK4PsM9ACYOXSJT3ZwW5fDzYQERGpNg+vO+xbNy9ZNhBkn4EWAACF7Mj1hVzGu/tpRUREqtjandMGd/W33RJ0v4EXAMVZgB7NAoiIiACPbljw8dQtywJfHg+8AAAoZEeuK2TTORN9i4iIhMWKjXO3v+cDK75uom8jBcDKpUv6soPd/2qibxERkTDIF6I8uWlOYI/9HchIAQDwxHdv+Eh+ZDCQww5ERETC5uH1C59+/02P/dpU/8YKAIDsUM+HTPYvIiJiwnCmwXW2z3ibyQxGC4AV3/vQD7KDPRtMZhAREQnaH9cu+v2NNy//q8kMRgsAgPxI/ztcV2cDiYhIfegabC08v3uK0U//EIICYMXtqUeyA3seNJ1DREQkCA+uXfTDDy15ZLfpHMYLAIB8eujNOiJYRERq3cY9k9PbejquN50DQlIArFy6ZEd2YM8PTOcQERHx05/XL/xS6pZlGdM5ICQFAEAhl35vPjM0bDqHiIiIH1ZtndV99fue/KzpHHuFpgBYuXRJLjvQ80nTOURERLzmAk88P/dG0zn2FZoCAGDF9276WnawJ7C7kEVERIKw/NkFz11/wxM/Np1jX6EqAAByw/2XuYWcazqHiIiIF4azDazaOusdpnMcKHQFwMqlqb9m+rt+ZDqHiIiIF3739JH//cEPPbrMdI4Dha4AAChk01frngAREal2q7fN7NnS3Rm6T/8Q0gJg5dIlhexg91W4WgkQEZHqNJKNs+zZBVekblkWynNuQlkAAKy4/eZfZga6HjadQ0REpBz3rT7yFx+46bHfm85xKKEtAADy6aHXF7LprOkcIiIiE7Fm+4y+TXsmvdV0jtGEugBYuXTJnsxA16dN5xARERmvdC7OsvUL35y6ZVnOdJbRhLoAAFhx201fyQ72PGc6h4iIyHjc9/SR9vtveuy3pnOMJfQFAEBuuP9SN6+zAUREJNye2TG9f+OeSW8ynWM8qqIAWLk09XSmf/dS0zlEREQOJZOL8fC6w94a9qn/vaqiAAB44rs3XJ8b6t1iOoeIiMjB3Lf6yLvff9Nj/2c6x3hVTQEAkB3qO7+Qy4byeUoREalfa3dMH3i+a/IVpnNMRFUVACuXptZm+nd9ynQOERGRvTL5GA+vP+ztqVuWZUxnmYiqKgAAVtx205eyA3ueNJ1DREQE4P7VR9zzvhsfu9t0jomqugIAIDcycF4+M5w2nUNEROrb+p3TBp/bPSVpOkc5qrIAWLl0SU92YM/VuitARERMyeZjPLjusCurbep/r6osAABWfO9DP8307/616RwiIlKf7l99xO/ed+Pjd5nOUa6qLQAA8pnhN+RGBnpM5xARkfqybue0oQ1dU15vOkclqroAWLl0SS432H2JW8hrLUBERHw3mG7k6/efk/7bn73ujNSSZSOm81SiqgsAgBW3p5Zl+nZ9w3QOERGpXQU3wp1PnMDrv341t//x9Hf+Zukdq0xnqlTVFwAAT3z3hg9lB/Y8ZTqHiIjUnkc3zOft3/0bPmu/hq6B1q85tvU/pjN5IW46gFdyIwPnRhuatsWa2tpNZxERkeq3YfcU/u1353L/miP2/tFDwEcNRvJUzRQAK5cuGTjlOuuCaLzp4UgsXhMzGyIiEqzhTAO/ffpI7lpxPI8/P2/ff7ULeJtjW1Vx0c941EwBALDi9tQjp7z3659onjL3y6aziIhI9Xhy0xzuWnEc96w6msF044H/ugC8w7GtmrqQrqYKAIAVt930lVM/8J2LGjtnvNp0FhERCad8IYqzfTrLnl2IvfI4NuyeMtrLP+PY1n1BZQtKzRUAAPnM8IW54b7t8ZbOGaaziIiIebsHWnlq0xye2jyHJzfPZtXWWaSz4xoCfwN8wed4RtRkAbBy6ZLCyddaZ0fjTWuiDU01+d8o4oVtPR2mI4hUxCXCYLqR3uEm+oab6R1upme4+YWfuwdbWLN9Blt7OstpfiNwpWNbNXnWTM0OjiuXptafcv2/vad5ypw7iGhPoMjBXGy9x3QEkbDKAG9xbGuP6SB+qemRccX3PvSf6b5dPzKdQ0REqs4tjm0tNx3CTzVdAAA88Z0PXjmwZY2d7t2BW8ibjiMiIuH3I8e2vmk6hN9qdglgX5m+XW/K9O369VB0/YWNndNpmjSbeGtZ60EiIlLbHgKuMx0iCDU/AwBQOrjhLW4h/3S6Zwd9zz9Jz7rlDG57hkzfLgq5rOmIIiJi3jrgDY5tVfUlP+NVFwUAgGNbvcBlFE9zopBNk+7ZwcCWNfSsXUbvhicY2vEs6d4d5Ib7cPM1c9iTiIiMrQu4xLGtLtNBglIXSwB7Oba1IZFMvQG4H2je99/lRwbJjwzu9/pIrIFYYwvRhmYisRiR6P5fRCIBpi9fIa8ZDhGRUYxQ/OS/znSQINVVAQDg2NafE8nUu4EfA6OO4G4+S244C8N9wYQTEZGgucDVjm09ZDpI0OpmCWBfjm39BPiM6RwiImLcxx3b+m/TIUyoywIAwLGtzwH/aTqHiIgYc5tjW18xHcKUui0ASq4D/mQ6hIiIBO7/gBtMhzCprgsAx7YywBuB9aaziIhIYJ4E3lp6RLxu1XUBAFB65ON1wE7TWURExHdbgEsd2+o3HcS0ui8AABzbega4COgxnUVERHzTT3Hw32I6SBioAChxbOtJ4BJgwHQWERHx3BBwWel3vaACYD+ObS0DkhQPhRARkdqw96CfP5oOEiYqAA7g2NbvgTcDOj5PRKT6ZYArHNv6nekgYaMC4CAc27obuBIomM4iIiJly1Hc7f8b00HCKOK6rukMoVU6MngpYxwZXE+uPGsFf3uxZtFqxbaeDtMRxAef/dUF/Hn9QtMxTMsD73Bs62emg4RV3d0FMBGObf17IplqB/7NdBYRP8yZXPdPQtWkloa6X8EsANczR/KFAAAO/0lEQVRo8B+dlgDG4NjW14FPms4hIiLj4gLXO7b1Q9NBwk4FwDg4tvVF4Mumc4iIyJhucGzr+6ZDVAMVAOPk2NbHgX80nUNERA5piWNb3zYdolqoAJgAx7Y+BnzadA4REXmJjzu2ZZkOUU1UAEyQY1ufB26muM4kIiLmfdqxLS3TTpAKgDI4tvVvwLUUHzMREREzXOCm0gczmSAVAGVybOvfgXegEwNFREzIAn/j2NY3TAepVioAKlB6xvRyYNh0FhGROjIIvN6xrZ+YDlLNVABUyLGtX1O8RVAnqoiI+G8P8BrHtu4xHaTaqQDwgGNbDwAXUPyLKSIi/tgM/D/Hth4xHaQWqADwiGNby4HzgO2Go4iI1CIHONexradNB6kVKgA85NjWX4BXAutNZxERqSGPAq9wbGuj6SC1RAWAxxzbWgucBTxoOouISA34HfBqx7Z2mw5Sa1QA+KD0F/UC4Eems4iIVLGfAZc6tjVgOkgtUgHgE8e20o5tXQl81nQWEZEq9E3g7Y5tZUwHqVUqAHzm2NatwJVA2nAUEZFqkAU+6NjWjY5tFUyHqWUqAALg2NaPKC4JdJnOIiISYruBC3WjXzBUAATEsa0HgTMpPsoiIiL7ewo4vXSuigRABUCAHNtaD5wN/MFwFBGRMLkTOMexredMB6knKgAC5thWN3AR8B+Go4iImOZS3Cj9Zse2Bk2HqTdx0wHqkWNbWeDdiWTqKeArQIPhSCIiQRsErnJs607TQeqVZgAMcmzraxSPD95sOIqISJCeozjlr8HfIBUAhjm29TDwcuC3prOIiATgAYqb/Z4yHaTeqQAIAce2dgEXU1wL03OvIlKrvkPxMT8d6xsC2gMQEqUDL25NJFMPUzxCeLrhSCIiXumneLjPD00HkRdpBiBkHNu6FzgF+LPpLCIiHlgOnKLBP3xUAISQY1ubgVcBluksIiJlKgBfpniNr65IDyEtAYRU6VHBJYlk6kHg+0Cn4UgiIuO1FXiXY1v3mw4ih6YZgJBzbOt/gFMpTqOJiITdr4CTNPiHn2YAqoBjW+sSydS5wMeBT6ODg0Q84UbbIT6n+BWdBLmdkNtOpLADCiOm41WbEeAjjm1903QQGR8VAFXCsa0c8LlEMnU3cAdwvOFIIlXHjS+g0H4pbtul0HI6bqT10C/OdxEZeoDo4N1EB++FQm9wQavPKuAdjm39xXQQGT8tAVQZx7aeoLgk8C/ozACRcYhS6LyS7MIHyS1eRWHGP+K2vmr0wR8gNg234wrys5eSPfxZ8vPuwm15RTCRq8u3KR7so8G/ymgGoAo5tpUGPpJIpmyKlwotNptIJJwKrRdSmP453KbjKmso0kCh9dUUWl9NdPA3RHd/hkhmjTchq9du4HrHtu4yHUTKoxmAKubY1h+Bk4DbTWcRCZXYdPLz7iI/738qH/wPUGi7hNzCP5Of8SWI1O1nqB8Cx2rwr251+7e3Vji21Q9cn0im7qJYCMw2HEnEKLfpBPJzf4obX+BfJ5EYhck34DaeQHz7VZDv9q+vcHkOeL9jW/eYDiKV0wxAjXBs627gBOBnprOImOK2v578gt/5O/jv21/rq8gt+ANu4zGB9GdQgeLBZCdo8K8dmgGoIY5tdQFvTSRTbwT+FQjmt6BICBTaLiI/5z8J+nON27CY3Py7iW98FZFcTd7s/RTFtX6dRVJjNANQgxzb+gVwLPBPQNZwHBHfuY0JCrP/HWO/0mIzyM39ydhPFlSXNPBJ4DQN/rVJBUCNcmxr0LGtj1K8WOiPpvOI+CY6ubjmH+0wm6PpRPKzvwtEzObwxh+BEx3b+mLpWHKpQSoAapxjW6sc23oVcA2wy3AcEc/lZ30Vt+Fw0zEAcNvfQGHSNaZjVKIXeB9wnmNbz5gOI/5SAVAnHNv6AZAAvoMOEJIa4TadRKH9TaZj7Cc/9eO4kRbTMcpxJ3CcY1u3Obblmg4j/lMBUEcc2+p2bOsDwNnAE6bziFQqP/0fCN2Ue3w27pQbTaeYiCeA8x3bepNjW1tNh5HgqACoQ6UNPWcAN1Gc8hOpOm7rebit55uOcVCFKSmITTEdYyybgaspbvL7g+EsYoAKgDrl2Fbesa1vUFwW+BZ6WkCqTGHSVaYjHJIb7aDQfrnpGIcyQPFW0aMd27pD0/31SwVAnXNsa4djWzcAx1E8REi/DOT/t3fnsU2edxzAf34P3/GZw8RxHMaRrssSugxw1XaIqkWidGwdHaiatqplEyKUkHRAVzRt0woSU1lic7WwonWt1D+qdtOidV2nrTuqqTlGuLqpphBISOw4tuPbfu332h8w1JYjB44fO/59JP/j2M/7/SOWv37e932e4qdgQdauIZ3itmTdOtIRPk8EgF8BwBJvj3uvt8edIR0IkYULASEAAPD2uC/A1UWElgPALwCgOOdWEQIASXM/yJSBdIzbkrSrgFLoQCGnSEcBAPgzAOzEHfvQp2EBQJ/h7XEPAMCDjes71gLAfgBoJhwJoRsU4a/rGylUALqHAZJE98v5CAB2eXvcfyIZAhUnPAWAbsrb434Xri4i9D0AGCYcB6HPkFVfIh1hWiRlfncinC6GlqJw9X7+Zfjlj24FZwDQLXl73BIAvN64vuNNANgGV5cFtZBNhRAAMAtIJ5ieAucMp7RS35DjnQZrZLO3x40Lf6HbwgKApuTtcWcBoKtxfccJADiWyio36lS5Irv5GpUVpkR2vS5QzkBcL/Rfcrzlixq27OjsjRfkoKjkKWQZL/pGM3PIvdLhsERfWbnwykNmXQZPI6GCkqkKEBaNkY4xPdwZYK88MGfDj0aMuYFLda8GEvodHZ293JwdCM1LWADQrHm6XaZaU/zl5Q2jG2zGBM4mocKgzcB/oTQuS1Fk/wvMiCvv4w4FLZnBEfvRUEL7o45ne4W8HwCVBSwA6I65u1zKakPS3er0PeW0RtSk86D5j180AkCZSMeYEpV6B2jfE3kbzzteFT99ZcGBJ7eceSFvg6KyhQUA5Y27y0VZdJmftDj8nY22YHHfpI1KmuD4G8jqVtIxpkRFDwMd3HPH45wbtYXPjdl+/vTWUwfzEAshAMACgObIiZfuaWuqDfysxeGvIp0FzT+i7QRIFd8mHWNKdPBZoKKvzOq9MgCcGrb7/+Orfu4H2wZfz28yhLAAoDl2/HDr440Lgi+2OscaGAp3IUb5IVqeB8n6POkYU6LHvglU+v0ZvYcXaRgcrr308XhV55ZnTv5+jqIhhAUAFcZhz4qmOnPsQIvD/+ACY4IlnQeVNqliI4i22f2yLiTmcjMo+MvTeu1oxJg7O2p7zxc17HxmR//5uU2GEBYAVGDuLhdl0nLPLakJbVvm8NtpnBVAsyCzDSA0nIZiXsxUwV8E5vJX4Hb7a+UEGk6N1F6+GLR2Pb311KHCpUMICwAi6IhnRbPdHDtwT71vdY0hibcRohkRFrwBsv5R0jFuiQruBjr68k3/NjJpyp4btf3RF63Ytb2j/2KBoyEEAFgAUBFwd7kYk5bbvbQmtK3F4a/FWQE0HbLmXhDq3iMd46YUUhLoS42gkBLXn8sKDAwO114cClpe3Nx26hjBeAgBABYAVGSOeFYsq7PEDixz+FbhrACaiuB4H2T1V0nHuAEdOw7UxE4AALgcMnPnxmw947GKnds7+q4QjobQdVgAUFG6Niuwq94afarZPr5Yr87i3gPoBnLFYyDYfkM6xufIIF5wweAn6fNDIcv+77cN/pp0IoRuBgsAKnqebpferM3srLdGv/tl+/hC3IgIXaegQajvB1m5hHQSADkHqUh/7sromQ8/HPjdE+0dfX7SkRC6HSwAqKR4ul0Gsy6922mNfqfZPu7UKHksA2VOVjaC6PgryBSBxSflDMTDfZzP7/1gPBhq//o39n9c+BAIzQ4WAFSyPN0uk1WX3uO0RjY11QXqNSxPOhIiRNKuBrH2bQBFAS4bkRIQDfWlfP5P/uILBLY/tuGXeF4flSQsAGheONi9stKiT+9ZWBnZ2GQP2FUMbpBWbiTjZhCru+dkbFmMQGSiNz42PvSHWCK5fe26vZNzciCECggLAJp3PN0ui1HDbakxJL+1sHKyqaESdygsF2LVfpBMbXkZS+J9EA78e9I/MfxWLJn64SPr9iXzMjBCRQILAJr3jnhWNFt06bZaU3zNkpqw06JLF+/ycegOUSBZd4Fo3g2gmNmK07IQhvjk6XQoPHxuIhw6umbtC6/NUUiEigIWAFR2jh9ufbyyIvWkwxy7t9EWtCoZkXQklG/qFhCqj4GsuvvWr5GSkIqezk0Eh86HIqFXM9mce92j+/CfAZUNLACorHm6XaZrpws2NFRONjmtUQ2lwM/EvKBQgWj9MUjm7QBAAchZyMTOCqHwhZFgOPBmiuP24bQ+KmdYABD6lIPulTV6VW6TSZt5uLoitcxhidpwRcLSNJnSSiOTxqCgfsinUH/xZDyV+unaR/b6SOdCqFhgAUBoCoc9K+6qUGc3WbSZ1dWG5N1Oa8Rq0nJ4HUERiabV0vCkORyM67yRtOaDOKd6e1v7wEnSuRAqZlgAEJqFoweX32/UcBssusx9NmNiqdMaMWhxUaKCiGfU8nDYNBlI6L3RlOZfcU7127b2gV7SuRAqNVgAEMqTIweXt2pZ/ms6VW65QZO9y6zN1FUbkqYaQ5LF6wpmRgaAcFInTsR1iUhaMx7PqIeSWeXZJKd6d2v7wD9J50NoPsACgNAc83S79GpWWKVV5u7Tq3ItRg232KJP22yGhL7cTyWEU1ppIq5PRFKaQCyjvpjKKj9K59h+jmf+3t7ZFyKdD6H5DAsAQgQdcq90qln+ASUjLlIxQr2aFexqVqjSKHmLTpkzVKhzWoOGUxo1HFVKswhJTiXHMio+kVVxqawymc6xUY5nQxzPjGd5ZuTal/w/2jv7JkhnRahcYQFAqAS4u1wMQ0tLWVpcqmTExSpGbFAxgl3FCtUMJWloSlIxlKSkKZllKImlaYllKYmhKYlhaZFmaIlmaZFiaYlS0iLFMqLi/8sl5wQaeJGWrz4oSRApSZBoSRApUZCuPwRRpARRUvCiTPGCSOVyAh3jeHYiK9D+rMCM8CJ9KSdS5wWR9u7o7MXb6xAqcv8DFMlZeTVGGNMAAAAASUVORK5CYII=;fillColor=#B2C9AB;strokeColor=#788AA3;fontColor=#46495D;" vertex="1" parent="1">
          <mxGeometry x="40" y="40" width="90" height="90" as="geometry" />
        </mxCell>
        <mxCell id="LAokjbQ1z-uIzmXzvzG--166" style="edgeStyle=orthogonalEdgeStyle;curved=0;rounded=1;sketch=0;orthogonalLoop=1;jettySize=auto;html=1;exitX=0.5;exitY=1;exitDx=0;exitDy=0;entryX=0.5;entryY=0;entryDx=0;entryDy=0;fontColor=#46495D;strokeColor=#788AA3;fillColor=#B2C9AB;" edge="1" parent="1" source="LAokjbQ1z-uIzmXzvzG--106" target="LAokjbQ1z-uIzmXzvzG--107">
          <mxGeometry relative="1" as="geometry" />
        </mxCell>
        <mxCell id="LAokjbQ1z-uIzmXzvzG--106" value="Malignant cells&#xa;of 10 samples" style="whiteSpace=wrap;align=center;verticalAlign=middle;fontStyle=1;strokeWidth=3;fillColor=#B2C9AB;strokeColor=#788AA3;fontColor=#46495D;fontSize=12;" vertex="1" parent="1">
          <mxGeometry x="40" y="270" width="160" height="40" as="geometry" />
        </mxCell>
        <mxCell id="LAokjbQ1z-uIzmXzvzG--107" value="Preprocessing" style="whiteSpace=wrap;align=center;verticalAlign=middle;fontStyle=1;strokeWidth=3;fillColor=#B2C9AB;strokeColor=#788AA3;fontColor=#46495D;fontSize=12;" vertex="1" parent="1">
          <mxGeometry x="40" y="340" width="160" height="40" as="geometry" />
        </mxCell>
        <mxCell id="LAokjbQ1z-uIzmXzvzG--127" value="Malignant cells and LN&#xa;of 10 samples" style="whiteSpace=wrap;align=center;verticalAlign=middle;fontStyle=1;strokeWidth=3;fillColor=#B2C9AB;strokeColor=#788AA3;fontColor=#46495D;fontSize=12;" vertex="1" parent="1">
          <mxGeometry x="212.25" y="270" width="160" height="40" as="geometry" />
        </mxCell>
        <mxCell id="LAokjbQ1z-uIzmXzvzG--128" value="Malignant cells and LN&#xa;of each samples" style="whiteSpace=wrap;align=center;verticalAlign=middle;fontStyle=1;strokeWidth=3;fillColor=#B2C9AB;strokeColor=#788AA3;fontColor=#46495D;fontSize=12;" vertex="1" parent="1">
          <mxGeometry x="384" y="270" width="160" height="40" as="geometry" />
        </mxCell>
        <mxCell id="LAokjbQ1z-uIzmXzvzG--132" value="" style="endArrow=classic;html=1;fontColor=#46495D;strokeColor=#788AA3;fillColor=#B2C9AB;entryX=0.5;entryY=0;entryDx=0;entryDy=0;exitX=0.5;exitY=1;exitDx=0;exitDy=0;" edge="1" parent="1" source="LAokjbQ1z-uIzmXzvzG--107">
          <mxGeometry width="50" height="50" relative="1" as="geometry">
            <mxPoint x="295" y="430" as="sourcePoint" />
            <mxPoint x="120" y="410" as="targetPoint" />
          </mxGeometry>
        </mxCell>
        <mxCell id="LAokjbQ1z-uIzmXzvzG--139" value="" style="endArrow=classic;html=1;fontColor=#46495D;strokeColor=#788AA3;fillColor=#B2C9AB;exitX=0.5;exitY=1;exitDx=0;exitDy=0;entryX=0.5;entryY=0;entryDx=0;entryDy=0;" edge="1" parent="1" source="4" target="LAokjbQ1z-uIzmXzvzG--128">
          <mxGeometry width="50" height="50" relative="1" as="geometry">
            <mxPoint x="370" y="370" as="sourcePoint" />
            <mxPoint x="480" y="270" as="targetPoint" />
            <Array as="points">
              <mxPoint x="330" y="250" />
              <mxPoint x="464" y="250" />
            </Array>
          </mxGeometry>
        </mxCell>
        <mxCell id="LAokjbQ1z-uIzmXzvzG--140" value="" style="endArrow=classic;html=1;fontColor=#46495D;strokeColor=#788AA3;fillColor=#B2C9AB;exitX=0.5;exitY=1;exitDx=0;exitDy=0;entryX=0.5;entryY=0;entryDx=0;entryDy=0;" edge="1" parent="1" source="4" target="LAokjbQ1z-uIzmXzvzG--106">
          <mxGeometry width="50" height="50" relative="1" as="geometry">
            <mxPoint x="370" y="370" as="sourcePoint" />
            <mxPoint x="420" y="320" as="targetPoint" />
            <Array as="points">
              <mxPoint x="260" y="250" />
              <mxPoint x="120" y="250" />
            </Array>
          </mxGeometry>
        </mxCell>
        <mxCell id="LAokjbQ1z-uIzmXzvzG--172" style="edgeStyle=orthogonalEdgeStyle;curved=0;rounded=1;sketch=0;orthogonalLoop=1;jettySize=auto;html=1;exitX=0.5;exitY=1;exitDx=0;exitDy=0;entryX=0.5;entryY=0;entryDx=0;entryDy=0;fontColor=#46495D;strokeColor=#788AA3;fillColor=#B2C9AB;" edge="1" parent="1" source="LAokjbQ1z-uIzmXzvzG--142">
          <mxGeometry relative="1" as="geometry">
            <mxPoint x="292.5" y="410" as="targetPoint" />
          </mxGeometry>
        </mxCell>
        <mxCell id="LAokjbQ1z-uIzmXzvzG--142" value="Preprocessing" style="whiteSpace=wrap;align=center;verticalAlign=middle;fontStyle=1;strokeWidth=3;fillColor=#B2C9AB;strokeColor=#788AA3;fontColor=#46495D;fontSize=12;" vertex="1" parent="1">
          <mxGeometry x="212.25" y="340" width="160" height="40" as="geometry" />
        </mxCell>
        <mxCell id="LAokjbQ1z-uIzmXzvzG--143" value="Preprocessing" style="whiteSpace=wrap;align=center;verticalAlign=middle;fontStyle=1;strokeWidth=3;fillColor=#B2C9AB;strokeColor=#788AA3;fontColor=#46495D;fontSize=12;" vertex="1" parent="1">
          <mxGeometry x="384" y="340" width="160" height="40" as="geometry" />
        </mxCell>
        <mxCell id="LAokjbQ1z-uIzmXzvzG--167" value="" style="endArrow=classic;html=1;fontColor=#46495D;strokeColor=#788AA3;fillColor=#B2C9AB;exitX=0.5;exitY=1;exitDx=0;exitDy=0;" edge="1" parent="1" source="LAokjbQ1z-uIzmXzvzG--128" target="LAokjbQ1z-uIzmXzvzG--143">
          <mxGeometry width="50" height="50" relative="1" as="geometry">
            <mxPoint x="460" y="380" as="sourcePoint" />
            <mxPoint x="510" y="330" as="targetPoint" />
          </mxGeometry>
        </mxCell>
        <mxCell id="LAokjbQ1z-uIzmXzvzG--169" value="" style="endArrow=classic;html=1;fontColor=#46495D;strokeColor=#788AA3;fillColor=#B2C9AB;exitX=0.5;exitY=1;exitDx=0;exitDy=0;entryX=0.5;entryY=0;entryDx=0;entryDy=0;" edge="1" parent="1" source="LAokjbQ1z-uIzmXzvzG--127" target="LAokjbQ1z-uIzmXzvzG--142">
          <mxGeometry width="50" height="50" relative="1" as="geometry">
            <mxPoint x="460" y="380" as="sourcePoint" />
            <mxPoint x="510" y="330" as="targetPoint" />
          </mxGeometry>
        </mxCell>
        <mxCell id="LAokjbQ1z-uIzmXzvzG--173" value="Integration(samples)" style="whiteSpace=wrap;align=center;verticalAlign=middle;fontStyle=1;strokeWidth=3;fillColor=#B2C9AB;strokeColor=#788AA3;fontColor=#46495D;fontSize=12;" vertex="1" parent="1">
          <mxGeometry x="40" y="450" width="160" height="35" as="geometry" />
        </mxCell>
        <mxCell id="LAokjbQ1z-uIzmXzvzG--174" value="PAGA" style="whiteSpace=wrap;align=center;verticalAlign=middle;fontStyle=1;strokeWidth=3;fillColor=#B2C9AB;strokeColor=#788AA3;fontColor=#46495D;fontSize=12;" vertex="1" parent="1">
          <mxGeometry x="40" y="490" width="160" height="35" as="geometry" />
        </mxCell>
        <mxCell id="LAokjbQ1z-uIzmXzvzG--175" value="PCA" style="whiteSpace=wrap;align=center;verticalAlign=middle;fontStyle=1;strokeWidth=3;fillColor=#B2C9AB;strokeColor=#788AA3;fontColor=#46495D;fontSize=12;" vertex="1" parent="1">
          <mxGeometry x="40" y="410" width="160" height="35" as="geometry" />
        </mxCell>
        <mxCell id="LAokjbQ1z-uIzmXzvzG--178" value="PCA" style="whiteSpace=wrap;align=center;verticalAlign=middle;fontStyle=1;strokeWidth=3;fillColor=#B2C9AB;strokeColor=#788AA3;fontColor=#46495D;fontSize=12;" vertex="1" parent="1">
          <mxGeometry x="212.25" y="410" width="160" height="35" as="geometry" />
        </mxCell>
        <mxCell id="LAokjbQ1z-uIzmXzvzG--179" value="PCA" style="whiteSpace=wrap;align=center;verticalAlign=middle;fontStyle=1;strokeWidth=3;fillColor=#B2C9AB;strokeColor=#788AA3;fontColor=#46495D;fontSize=12;" vertex="1" parent="1">
          <mxGeometry x="384" y="410" width="160" height="35" as="geometry" />
        </mxCell>
        <mxCell id="LAokjbQ1z-uIzmXzvzG--182" value="" style="endArrow=classic;html=1;fontColor=#46495D;strokeColor=#788AA3;fillColor=#B2C9AB;entryX=0.5;entryY=0;entryDx=0;entryDy=0;exitX=0.5;exitY=1;exitDx=0;exitDy=0;" edge="1" parent="1" source="LAokjbQ1z-uIzmXzvzG--143" target="LAokjbQ1z-uIzmXzvzG--179">
          <mxGeometry width="50" height="50" relative="1" as="geometry">
            <mxPoint x="450" y="460" as="sourcePoint" />
            <mxPoint x="500" y="410" as="targetPoint" />
          </mxGeometry>
        </mxCell>
        <mxCell id="LAokjbQ1z-uIzmXzvzG--184" value="Integration(samples)" style="whiteSpace=wrap;align=center;verticalAlign=middle;fontStyle=1;strokeWidth=3;fillColor=#B2C9AB;strokeColor=#788AA3;fontColor=#46495D;fontSize=12;" vertex="1" parent="1">
          <mxGeometry x="212.25" y="450" width="160" height="35" as="geometry" />
        </mxCell>
        <mxCell id="LAokjbQ1z-uIzmXzvzG--185" value="p-EMT expression " style="whiteSpace=wrap;align=center;verticalAlign=middle;fontStyle=1;strokeWidth=3;fillColor=#B2C9AB;strokeColor=#788AA3;fontColor=#46495D;fontSize=12;" vertex="1" parent="1">
          <mxGeometry x="212.25" y="490" width="160" height="35" as="geometry" />
        </mxCell>
        <mxCell id="LAokjbQ1z-uIzmXzvzG--186" value="" style="whiteSpace=wrap;align=center;verticalAlign=middle;fontStyle=1;strokeWidth=3;fillColor=#B2C9AB;strokeColor=#788AA3;fontColor=#46495D;fontSize=12;" vertex="1" parent="1">
          <mxGeometry x="384" y="450" width="160" height="35" as="geometry" />
        </mxCell>
      </root>
    </mxGraphModel>
  </diagram>
</mxfile>
